<?xml version="1.0" encoding="UTF-8"?>
<svg version="1.1" xmlns="http://www.w3.org/2000/svg" width="305" height="274">
<path d="M0 0 C-1.35431709 4.79442734 -3.46061479 8.58993596 -6.3125 12.625 C-6.69083984 13.18445312 -7.06917969 13.74390625 -7.45898438 14.3203125 C-11.09613761 19.53910429 -14.30646073 22.60843822 -20.44140625 24.27734375 C-25.82144476 25.94156009 -27.97990788 28.93716322 -30.9375 33.5625 C-31.43910645 34.31192871 -31.94071289 35.06135742 -32.45751953 35.83349609 C-53.04734197 67.12456506 -65.21556673 102.17557195 -57.91015625 139.72265625 C-54.31302957 156.98653608 -48.116883 172.41462406 -40 188 C-39.76925781 187.02160156 -39.53851563 186.04320312 -39.30078125 185.03515625 C-37.42461721 177.39105548 -35.39509809 170.64668523 -31 164 C-30.34 164 -29.68 164 -29 164 C-25.32262704 173.73518823 -22.50370517 184.48959571 -25.90625 194.7265625 C-27 196.9375 -27 196.9375 -29 200 C-29.99 200 -30.98 200 -32 200 C-30.29798107 201.756532 -28.58884897 203.50507087 -26.875 205.25 C-26.400625 205.74113281 -25.92625 206.23226562 -25.4375 206.73828125 C-22.1995368 210.02000071 -18.91434179 212.56079592 -15 215 C-15.680625 214.2265625 -15.680625 214.2265625 -16.375 213.4375 C-20.66030174 207.0095474 -20.6948669 199.50047505 -20 192 C-18.984375 189.1328125 -18.984375 189.1328125 -18 187 C-10.7828508 192.28831818 -4.35339559 200.58914345 -2.3125 209.4375 C-1.8039201 213.39026025 -2.14909319 216.39073172 -4 220 C-4.66 220.33 -5.32 220.66 -6 221 C0.27 224.3 6.54 227.6 13 231 C12.34 230.01 11.68 229.02 11 228 C7.02239484 221.16667831 4.9981343 214.83609912 4 207 C9.65281165 207 12.53521719 209.77766124 17 213 C18.36125 213.928125 18.36125 213.928125 19.75 214.875 C25.10423787 219.93178021 27.49878654 224.98058472 27.95703125 232.3125 C27.97121094 232.869375 27.98539062 233.42625 28 234 C26.02 234.99 26.02 234.99 24 236 C31.8973185 239.25651166 39.80717948 242.47896259 47.73095703 245.67041016 C50.35310588 246.7368943 52.95848945 247.83067636 55.55859375 248.94921875 C56.71488281 249.41972656 57.87117187 249.89023438 59.0625 250.375 C60.00222656 250.77460938 60.94195312 251.17421875 61.91015625 251.5859375 C66.68967656 252.22642948 70.5296601 250.62210753 75 249 C75.87712646 248.68466309 76.75425293 248.36932617 77.65795898 248.04443359 C80.34482355 247.05491164 83.01714498 246.03318463 85.6875 245 C87.03424805 244.48566406 87.03424805 244.48566406 88.40820312 243.9609375 C93.32017638 242.07531553 98.18012486 240.10993166 103 238 C102.01 237.34 101.02 236.68 100 236 C99.20998166 229.15317435 101.43500916 224.81248127 105.5625 219.5625 C110.06258043 214.49849972 116.18312009 209.22515353 123 208 C124.667467 212.05544443 123.2206967 215.44618434 121.875 219.375 C121.67390625 220.02210938 121.4728125 220.66921875 121.265625 221.3359375 C119.66042729 226.13219089 117.42071502 229.27982844 114 233 C116.77223992 231.71128306 119.5428053 230.41916616 122.3125 229.125 C123.09818359 228.76019531 123.88386719 228.39539063 124.69335938 228.01953125 C125.45068359 227.66503906 126.20800781 227.31054688 126.98828125 226.9453125 C127.68477783 226.62062988 128.38127441 226.29594727 129.09887695 225.96142578 C131.240819 224.92576491 131.240819 224.92576491 134 223 C133.01 222.34 132.02 221.68 131 221 C128.9510564 215.30712676 130.09237902 209.99627082 132.48828125 204.6328125 C135.90227161 198.68699982 140.26650148 192.82233235 146 189 C149.89928886 195.63807507 148.3111556 203.96838041 146.53515625 211.125 C146.06757374 212.7632453 145.53874679 214.38375962 145 216 C147.12856908 214.06629992 149.2529021 212.12827941 151.375 210.1875 C151.97828125 209.64029297 152.5815625 209.09308594 153.203125 208.52929688 C153.78320312 207.99755859 154.36328125 207.46582031 154.9609375 206.91796875 C155.76217041 206.18743286 155.76217041 206.18743286 156.57958984 205.44213867 C158.23454469 203.85257274 158.23454469 203.85257274 160 201 C158.68 201 157.36 201 156 201 C150.80897529 192.19782767 151.67382232 183.65230047 154 174 C154.85458266 171.53581505 155.83099206 169.33801589 157 167 C157.99 167 158.98 167 160 167 C160.81436868 168.76997474 161.6264294 170.54101152 162.4375 172.3125 C162.88996094 173.29863281 163.34242188 174.28476563 163.80859375 175.30078125 C165.52715731 179.19431378 166.21511553 182.46926 166.5625 186.6875 C166.64628906 187.68136719 166.73007813 188.67523438 166.81640625 189.69921875 C166.87699219 190.45847656 166.93757812 191.21773437 167 192 C169.3676836 187.31635404 171.71981943 182.62560742 174.04736328 177.921875 C174.77429048 176.45535246 175.50855126 174.99246271 176.24609375 173.53125 C179.52195717 166.68048168 181.39409597 159.29161051 183.43530273 152.00097656 C183.96513872 150.12352919 184.51885668 148.25286805 185.07421875 146.3828125 C193.87654266 114.21904666 184.19833984 79.41290745 168.28466797 51.22314453 C165.07110323 45.66200418 161.66342561 40.27504889 158 35 C157.47921875 34.23816406 156.9584375 33.47632813 156.421875 32.69140625 C153.79781729 29.22390142 151.83048497 27.73946166 147.625 26.5625 C138.33548703 23.94397957 133.79570439 15.56126145 129.25 7.63671875 C128 5 128 5 128 2 C137.08343081 2.43952085 144.4728316 4.99701366 150.9375 11.625 C154.16201298 15.59363136 155.14910263 19.5128382 156.2578125 24.43359375 C157.37654296 28.30204591 159.06042237 30.28089069 162 33 C162.99 33 163.98 33 165 33 C164.98839844 32.09378906 164.97679687 31.18757813 164.96484375 30.25390625 C164.91411085 23.40496536 165.06398731 16.786092 166 10 C167.32 10 168.64 10 170 10 C171.29855607 12.20452542 172.58888195 14.41323296 173.875 16.625 C174.42220703 17.55119141 174.42220703 17.55119141 174.98046875 18.49609375 C179.2365096 25.84743704 181.03994724 32.46482322 180 41 C177.90878063 45.25712514 176.22677651 47.07308718 172 49 C172.59748047 49.94359375 172.59748047 49.94359375 173.20703125 50.90625 C176.4596493 56.16108792 179.04551616 61.13654848 181 67 C182.95371245 61.5122388 184.19824375 55.96203133 185.41210938 50.27734375 C186.41526522 45.80910377 187.75520307 42.04191356 190 38 C195.59837165 42.87858101 197.11126937 51.03394374 197.9375 58.125 C198.25747652 64.29254738 197.62898515 69.80556274 193.6015625 74.69921875 C192.0625 76.125 192.0625 76.125 189 78 C186.80859375 77.6171875 186.80859375 77.6171875 185 77 C185.34933594 78.01320313 185.69867188 79.02640625 186.05859375 80.0703125 C186.51847229 81.42179229 186.97809409 82.77335947 187.4375 84.125 C187.78264648 85.12273437 187.78264648 85.12273437 188.13476562 86.140625 C189.46674519 90.07865153 190.43925034 93.86205422 191 98 C191.50789063 96.94941406 192.01578125 95.89882812 192.5390625 94.81640625 C202.61050478 74.19474761 202.61050478 74.19474761 207 72 C210.16480445 81.89001392 210.83406496 93.54542315 206 103 C203.78176375 106.76206368 201.43169108 109.13175211 197.1875 110.375 C195.6096875 110.684375 195.6096875 110.684375 194 111 C193.67 110.67 193.34 110.34 193 110 C193 116.6 193 123.2 193 130 C194.65 127.999375 196.3 125.99875 198 123.9375 C202.23574825 118.8815838 206.52799422 113.77143256 212 110 C212.66 110 213.32 110 214 110 C214.47930499 119.74586822 212.60038191 129.79478929 207 138 C204.23765547 140.84755824 201.17318106 143.89090457 197.0546875 144.09765625 C195.03645833 144.06510417 193.01822917 144.03255208 191 144 C188.46567969 149.79273215 186.04226392 155.73524454 188 162 C188.86625 161.175 189.7325 160.35 190.625 159.5 C194.24747878 156.39182376 198.1391957 153.9580884 202.25 151.5625 C202.86439941 151.19640625 203.47879883 150.8303125 204.11181641 150.453125 C205.69649894 149.55181778 207.34600861 148.76673721 209 148 C209.99 148.33 210.98 148.66 212 149 C204.52311709 169.78737777 204.52311709 169.78737777 195.5 175.5 C191.8082316 177.08218646 189.02544005 178 185 178 C182.79296875 176 182.79296875 176 181 174 C180.74307373 174.54938232 180.48614746 175.09876465 180.22143555 175.66479492 C179.04621961 178.17366801 177.86689925 180.6805909 176.6875 183.1875 C176.08131836 184.48397461 176.08131836 184.48397461 175.46289062 185.80664062 C173.48658789 190.00025862 171.50337096 194.08696384 169 198 C169.67804688 197.55269531 170.35609375 197.10539063 171.0546875 196.64453125 C191.39045428 183.4347326 191.39045428 183.4347326 201 184 C198.78676901 193.34475307 191.80224487 201.62942992 184 207 C179.43684294 209.40618452 175.19674649 210.59053937 170 210 C167.625 209 167.625 209 166 208 C166.875 202.25 166.875 202.25 168 200 C165.24054843 202.74391995 162.50485365 205.50614617 159.80078125 208.3046875 C150.0755059 218.30354263 140.35882293 225.48027312 128 232 C126.26827543 232.95370339 124.53889493 233.91168245 122.8125 234.875 C121.54169184 235.5833785 120.27086299 236.29171987 119 237 C120.90072266 237.36351562 120.90072266 237.36351562 122.83984375 237.734375 C139.44387415 241.00808445 139.44387415 241.00808445 147 245 C147 245.66 147 246.32 147 247 C144.93950145 247.81756238 142.87651147 248.62884734 140.8125 249.4375 C139.66394531 249.88996094 138.51539063 250.34242188 137.33203125 250.80859375 C129.61975029 253.56620887 120.20063002 254.91374761 112.5625 251.3125 C109.15185115 249.45838888 106.68291319 246.77495138 104 244 C103.2886792 244.33322266 102.5773584 244.66644531 101.84448242 245.00976562 C98.62821311 246.51242514 95.40794068 248.00630273 92.1875 249.5 C91.06794922 250.02464844 89.94839844 250.54929688 88.79492188 251.08984375 C87.72177734 251.58613281 86.64863281 252.08242187 85.54296875 252.59375 C84.55321045 253.05458984 83.56345215 253.51542969 82.54370117 253.99023438 C80 255 80 255 77 255 C77 255.66 77 256.32 77 257 C78.051875 257.10183594 79.10375 257.20367187 80.1875 257.30859375 C86.23174852 258.06412482 92.09412771 259.60463576 98 261.0625 C99.15628906 261.34416016 100.31257812 261.62582031 101.50390625 261.91601562 C104.33693276 262.60671217 107.16889673 263.3014699 110 264 C110.36219017 268.46701209 110.36219017 268.46701209 108.78491211 270.78808594 C105.24457467 273.19189322 101.09376755 272.45639731 97 272 C93.53537689 271.17790859 90.26249124 270.01592518 86.9375 268.75 C86.10412109 268.44964844 85.27074219 268.14929688 84.41210938 267.83984375 C79.49230008 266.04038043 74.78012354 264.01704688 70.10766602 261.64550781 C65.67397392 260.28761578 61.36473026 262.49668934 57.18359375 264.03125 C56.08982422 264.42957031 54.99605469 264.82789063 53.86914062 265.23828125 C52.17047852 265.86283203 52.17047852 265.86283203 50.4375 266.5 C48.18684571 267.32468671 45.93556853 268.14767601 43.68359375 268.96875 C42.68900146 269.33419922 41.69440918 269.69964844 40.66967773 270.07617188 C35.86013456 271.74048933 31.10865011 272.93068477 26 272 C23 269.625 23 269.625 21 267 C21 266.34 21 265.68 21 265 C32.32542345 261.96972975 43.66078911 258.97822116 55 256 C52.29655719 253.13359774 49.74525557 251.79404373 46.125 250.1875 C44.97386719 249.671875 43.82273438 249.15625 42.63671875 248.625 C41.43660156 248.08875 40.23648438 247.5525 39 247 C35.59035269 245.40415207 32.18317158 243.80319947 28.77734375 242.19921875 C26.49380023 241.21321613 24.42698022 240.4947082 22 240 C21.938125 240.7425 21.87625 241.485 21.8125 242.25 C20.70762444 245.98957882 19.30219285 246.96247675 16 249 C6.92290528 252.02569824 -0.33465903 251.44589563 -9.375 248.6875 C-10.07753906 248.47472412 -10.78007813 248.26194824 -11.50390625 248.04272461 C-14.99449178 246.90887508 -17.71983834 245.96769132 -20 243 C-9.55748975 238.37066381 -0.35220251 235.90059227 11 235 C9.40671875 234.20335937 9.40671875 234.20335937 7.78125 233.390625 C0.85416667 229.92708333 -6.07291667 226.46354167 -13 223 C-12.34 224.32 -11.68 225.64 -11 227 C-17.49763257 232.30070025 -21.64789653 232.69853956 -30 232 C-37.95971084 230.14312838 -44.93610578 225.35955805 -51 220 C-51.33 219.01 -51.66 218.02 -52 217 C-41.75979486 215.09484556 -31.29206316 215.84497888 -21 217 C-21.68964844 216.40574219 -22.37929687 215.81148437 -23.08984375 215.19921875 C-37.02131278 202.91124264 -45.89747683 189.06392359 -53 172 C-53.66 172.99 -54.32 173.98 -55 175 C-59.20339383 176.59798443 -62.95651745 175.66756762 -67 174 C-75.44968825 169.2511442 -79.59742674 159.70359821 -83 151 C-83.72265625 148.0078125 -83.72265625 148.0078125 -84 146 C-83.34 145.67 -82.68 145.34 -82 145 C-79.75301043 146.01802384 -77.69161823 147.08327175 -75.5625 148.3125 C-74.9422998 148.66699219 -74.32209961 149.02148438 -73.68310547 149.38671875 C-67.36055614 153.14493408 -62.1996882 157.82153502 -57 163 C-57.27714844 161.92621094 -57.55429687 160.85242188 -57.83984375 159.74609375 C-58.20592096 158.30994471 -58.57179558 156.87374401 -58.9375 155.4375 C-59.11990234 154.73302734 -59.30230469 154.02855469 -59.49023438 153.30273438 C-60.6115514 148.87862902 -61.43456329 144.52944562 -62 140 C-62.66 140 -63.32 140 -64 140 C-64 140.66 -64 141.32 -64 142 C-67.60385549 143.20128516 -69.48827 142.54427068 -72.94140625 141.125 C-80.29841181 137.10447324 -82.72194897 129.62855038 -85 122 C-85.29777344 121.00806641 -85.29777344 121.00806641 -85.6015625 119.99609375 C-86.09107843 117.54371493 -86.09537775 115.24870905 -86.0625 112.75 C-86.05347656 111.85796875 -86.04445313 110.9659375 -86.03515625 110.046875 C-86.02355469 109.37140625 -86.01195313 108.6959375 -86 108 C-81.68831601 108.48582355 -79.58919758 111.01089319 -76.625 114 C-75.70976563 114.9075 -74.79453125 115.815 -73.8515625 116.75 C-71 120 -71 120 -65 129 C-65 121.74 -65 114.48 -65 107 C-65.33 107.66 -65.66 108.32 -66 109 C-71.5117587 108.00788343 -74.1142383 106.38416506 -77.73828125 102.14453125 C-81.03074726 96.54835838 -81.3172138 90.73879357 -81.25 84.4375 C-81.25773437 83.70853516 -81.26546875 82.97957031 -81.2734375 82.22851562 C-81.25739185 77.77183661 -80.67116317 74.19780272 -79 70 C-78.34 70 -77.68 70 -77 70 C-71.06338924 78.00721671 -67.19916439 86.6024546 -64 96 C-61.9282933 92.35118324 -60.92431922 88.46766307 -59.875 84.4375 C-59.69324219 83.76525391 -59.51148437 83.09300781 -59.32421875 82.40039062 C-58.56143029 79.51269145 -58 77.0002579 -58 74 C-59.98 74.99 -59.98 74.99 -62 76 C-66.34853796 73.06179868 -68.8017326 70.1064626 -70 65 C-71.04516805 56.30726083 -69.59220957 47.98268793 -66 40 C-63.859375 37.625 -63.859375 37.625 -62 36 C-58.29467843 45.52796975 -55.63266817 54.8966652 -54 65 C-52.51706418 62.23116804 -51.03931138 59.4596027 -49.5625 56.6875 C-49.14162109 55.90181641 -48.72074219 55.11613281 -48.28710938 54.30664062 C-47.88427734 53.54931641 -47.48144531 52.79199219 -47.06640625 52.01171875 C-46.69459229 51.31522217 -46.32277832 50.61872559 -45.93969727 49.90112305 C-44.87823011 47.86282996 -44.87823011 47.86282996 -44 45 C-45.32 45 -46.64 45 -48 45 C-51.60765722 41.39234278 -52.32984302 38.44027478 -52.5625 33.375 C-52.21357319 23.67724118 -47.91838525 13.89809673 -41 7 C-40.34 7 -39.68 7 -39 7 C-36.73560389 16.36085176 -36.79833874 25.44349683 -37 35 C-31.78020047 29.29463772 -28.55337864 25.01493353 -27.45703125 17.31640625 C-26.46742932 12.3007315 -23.72768381 9.24889331 -19.66015625 6.30859375 C-13.22610737 2.29336024 -7.72049124 -0.36764244 0 0 Z M164 36 C164.33 36.99 164.66 37.98 165 39 C165 38.01 165 37.02 165 36 C164.67 36 164.34 36 164 36 Z M166 39 C167 41 167 41 167 41 Z M182 68 C183 72 183 72 183 72 Z M-56 165 C-55 167 -55 167 -55 167 Z M-55 168 C-54 170 -54 170 -54 170 Z " fill="#FCDD61" transform="translate(88,2)"/>
<path d="M0 0 C1.22882904 0.30932968 2.45765808 0.61865936 3.72372437 0.93736267 C6.95700663 1.75261109 10.18861333 2.57393949 13.41955566 3.39837646 C16.7302077 4.24150933 20.04292622 5.0764411 23.35546875 5.91210938 C29.83003471 7.5472174 36.30251331 9.1903859 42.7734375 10.83984375 C42.7734375 12.15984375 42.7734375 13.47984375 42.7734375 14.83984375 C41.00394138 15.34455572 39.23278527 15.8434506 37.4609375 16.33984375 C36.47480469 16.61828125 35.48867187 16.89671875 34.47265625 17.18359375 C31.7734375 17.83984375 31.7734375 17.83984375 28.7734375 17.83984375 C28.91352421 21.36093005 29.06154732 24.88164087 29.2109375 28.40234375 C29.25025391 29.39298828 29.28957031 30.38363281 29.33007812 31.40429688 C29.3851788 40.36838108 29.3851788 40.36838108 31.7734375 48.83984375 C31.22816406 48.64648438 30.68289062 48.453125 30.12109375 48.25390625 C17.43219123 43.87243905 3.49166188 40.71937374 -9.2265625 46.83984375 C-12.27669955 48.45036088 -12.27669955 48.45036088 -12.8828125 50.59814453 C-13.29727166 53.30095985 -13.53537895 55.97882486 -13.7265625 58.70703125 C-13.8090625 59.84011719 -13.8915625 60.97320312 -13.9765625 62.140625 C-14.0590625 63.32011719 -14.1415625 64.49960938 -14.2265625 65.71484375 C-14.390675 68.04575415 -14.55726112 70.37649198 -14.7265625 72.70703125 C-14.79875 73.73940918 -14.8709375 74.77178711 -14.9453125 75.83544922 C-15.22957367 78.87200994 -15.68894156 81.83868683 -16.2265625 84.83984375 C-16.8453125 84.48921875 -17.4640625 84.13859375 -18.1015625 83.77734375 C-19.1534375 83.31328125 -19.1534375 83.31328125 -20.2265625 82.83984375 C-21.2165625 83.33484375 -21.2165625 83.33484375 -22.2265625 83.83984375 C-23.6140602 72.17895881 -24.94323676 60.51264703 -26.2265625 48.83984375 C-38.18730693 42.70612866 -48.78733604 42.38261264 -61.65625 45.96875 C-64.70194552 47.0009538 -67.38773717 48.34572516 -70.2265625 49.83984375 C-70.8865625 49.50984375 -71.5465625 49.17984375 -72.2265625 48.83984375 C-61.85837638 40.35678238 -50.33367936 38.69657471 -37.30761719 39.59472656 C-31.32153171 40.2997981 -26.19172105 42.52973805 -21.2265625 45.83984375 C-20.79418945 48.17822266 -20.79418945 48.17822266 -20.71484375 51.06640625 C-20.67939453 52.09765625 -20.64394531 53.12890625 -20.60742188 54.19140625 C-20.57358398 55.81175781 -20.57358398 55.81175781 -20.5390625 57.46484375 C-20.50490234 58.5528125 -20.47074219 59.64078125 -20.43554688 60.76171875 C-20.35287916 63.45432438 -20.28379163 66.14659666 -20.2265625 68.83984375 C-17.74598622 66.35926747 -17.93637245 65.47791911 -17.8125 62.05078125 C-17.77382812 61.10976562 -17.73515625 60.16875 -17.6953125 59.19921875 C-17.664375 58.214375 -17.6334375 57.22953125 -17.6015625 56.21484375 C-17.56289062 55.22226563 -17.52421875 54.2296875 -17.484375 53.20703125 C-17.3899311 50.7514899 -17.30436375 48.29595965 -17.2265625 45.83984375 C-15.64581686 45.02232072 -14.06185027 44.21102378 -12.4765625 43.40234375 C-11.59484375 42.94988281 -10.713125 42.49742188 -9.8046875 42.03125 C-1.26554493 38.08513108 11.60093679 38.35573151 20.3984375 41.33984375 C21.5121875 41.83484375 22.6259375 42.32984375 23.7734375 42.83984375 C25.00404171 40.37863534 24.9792098 38.58207509 25.08984375 35.83203125 C25.13173828 34.84589844 25.17363281 33.85976562 25.21679688 32.84375 C25.25611328 31.81121094 25.29542969 30.77867188 25.3359375 29.71484375 C25.40071289 28.15443359 25.40071289 28.15443359 25.46679688 26.5625 C25.57306518 23.98844545 25.67377277 21.41416244 25.7734375 18.83984375 C19.8334375 20.32484375 19.8334375 20.32484375 13.7734375 21.83984375 C13.7734375 26.12984375 13.7734375 30.41984375 13.7734375 34.83984375 C12.0615625 34.55109375 10.3496875 34.26234375 8.5859375 33.96484375 C7.48121094 33.784375 6.37648438 33.60390625 5.23828125 33.41796875 C3.06002321 33.05451645 0.88479247 32.67187508 -1.28515625 32.26171875 C-15.22601334 29.77545124 -28.62946977 30.27497128 -42.45703125 33.0859375 C-46.04406402 33.80334405 -49.59026221 34.43786392 -53.2265625 34.83984375 C-54.2265625 33.83984375 -54.2265625 33.83984375 -54.32421875 31.7734375 C-54.31261719 30.94972656 -54.30101563 30.12601563 -54.2890625 29.27734375 C-54.28003906 28.45105469 -54.27101563 27.62476562 -54.26171875 26.7734375 C-54.25011719 26.13535156 -54.23851563 25.49726562 -54.2265625 24.83984375 C-48.38943895 22.11585276 -42.46096418 20.42944707 -36.2265625 18.83984375 C-37.7115625 19.18208984 -37.7115625 19.18208984 -39.2265625 19.53125 C-40.55974697 19.82229731 -41.89308907 20.11262324 -43.2265625 20.40234375 C-43.87496094 20.55380859 -44.52335937 20.70527344 -45.19140625 20.86132812 C-54.38225341 22.81779559 -62.81931683 20.07341007 -71.7265625 17.77734375 C-72.83515625 17.49568359 -73.94375 17.21402344 -75.0859375 16.92382812 C-77.8006062 16.23345979 -80.51406888 15.5387 -83.2265625 14.83984375 C-83.2265625 13.51984375 -83.2265625 12.19984375 -83.2265625 10.83984375 C-75.58122674 8.8470535 -67.93147853 6.87260543 -60.27559853 4.92076015 C-56.71996129 4.01366335 -53.16610459 3.10056755 -49.61572266 2.1730957 C-46.18288571 1.27657667 -42.74615933 0.39668882 -39.30625534 -0.47230339 C-37.37042772 -0.96577882 -35.43887862 -1.47594255 -33.50747681 -1.98646545 C-21.21914693 -5.06125392 -12.10341619 -3.10571621 0 0 Z " fill="#46689D" transform="translate(171.2265625,47.16015625)"/>
<path d="M0 0 C7.70010513 -0.46667304 16.04085224 1.9589491 22.25390625 6.5546875 C24.64210459 8.5139879 24.64210459 8.5139879 27.20703125 8 C29.84903882 7.23271038 31.79390535 6.24325295 34.12890625 4.8046875 C44.40378998 -1.071527 54.25535401 -0.60755447 65.53515625 2.19921875 C73.73581594 4.80585701 80.68833207 9.25029274 86.81640625 15.2421875 C86.81640625 15.9021875 86.81640625 16.5621875 86.81640625 17.2421875 C83.55638573 16.08540602 80.66736125 14.60360649 77.69140625 12.8671875 C65.69560881 6.13200555 54.24837042 3.52424898 40.81640625 7.2421875 C36.04229432 9.38412714 32.91859142 11.35096459 30.81640625 16.2421875 C25.56874895 16.76695323 25.56874895 16.76695323 22.81640625 16.2421875 C21.46231305 14.25618413 20.13183001 12.25401207 18.81640625 10.2421875 C10.01676141 5.09703997 0.76744106 4.53328134 -9.05078125 6.37890625 C-15.54697868 8.16900554 -21.63145214 11.16017724 -26.85546875 15.421875 C-29.5601016 17.53657115 -30.83723319 17.62462871 -34.18359375 17.2421875 C-28.22678674 8.30697698 -17.08935845 3.03166995 -6.74609375 0.7421875 C-4.49959258 0.43567653 -2.25297486 0.24988272 0 0 Z " fill="#46638F" transform="translate(125.18359375,153.7578125)"/>
<path d="M0 0 C0.99 0.66 1.98 1.32 3 2 C3.43237305 4.33837891 3.43237305 4.33837891 3.51171875 7.2265625 C3.54716797 8.2578125 3.58261719 9.2890625 3.61914062 10.3515625 C3.65297852 11.97191406 3.65297852 11.97191406 3.6875 13.625 C3.72166016 14.71296875 3.75582031 15.8009375 3.79101562 16.921875 C3.87368334 19.61448063 3.94277087 22.30675291 4 25 C6.48057628 22.51942372 6.29019005 21.63807536 6.4140625 18.2109375 C6.45273438 17.26992187 6.49140625 16.32890625 6.53125 15.359375 C6.5621875 14.37453125 6.593125 13.3896875 6.625 12.375 C6.66367188 11.38242188 6.70234375 10.38984375 6.7421875 9.3671875 C6.8366314 6.91164615 6.92219875 4.4561159 7 2 C8.58074564 1.18247697 10.16471223 0.37118003 11.75 -0.4375 C12.63171875 -0.88996094 13.5134375 -1.34242187 14.421875 -1.80859375 C22.96101757 -5.75471267 35.82749929 -5.48411224 44.625 -2.5 C45.73875 -2.005 46.8525 -1.51 48 -1 C48 -0.01 48 0.98 48 2 C47.44054687 1.855625 46.88109375 1.71125 46.3046875 1.5625 C35.9559838 -0.83334137 24.80825678 -1.72008825 15 3 C11.94986295 4.61051713 11.94986295 4.61051713 11.34375 6.75830078 C10.92929084 9.4611161 10.69118355 12.13898111 10.5 14.8671875 C10.4175 16.00027344 10.335 17.13335937 10.25 18.30078125 C10.1675 19.48027344 10.085 20.65976563 10 21.875 C9.8358875 24.2059104 9.66930138 26.53664823 9.5 28.8671875 C9.4278125 29.89956543 9.355625 30.93194336 9.28125 31.99560547 C8.99698883 35.03216619 8.53762094 37.99884308 8 41 C7.071875 40.4740625 7.071875 40.4740625 6.125 39.9375 C5.42375 39.628125 4.7225 39.31875 4 39 C3.01 39.495 3.01 39.495 2 40 C0.6125023 28.33911506 -0.71667426 16.67280328 -2 5 C-13.96074443 -1.13371509 -24.56077354 -1.45723111 -37.4296875 2.12890625 C-40.47538302 3.16111005 -43.16117467 4.50588141 -46 6 C-46.66 5.67 -47.32 5.34 -48 5 C-34.82022227 -5.7834545 -15.22159271 -7.88415199 0 0 Z " fill="#A1AEC1" transform="translate(147,91)"/>
<path d="M0 0 C12.06244445 1.57177306 24.09490411 7.95087738 32.5625 16.625 C34.07905866 19.13061865 34.6689048 21.10291704 35 24 C30.48337325 27.0110845 26.28819572 26.79393823 21 26 C11.3641651 21.86601405 4.04907893 12.4602904 0 3 C0 2.01 0 1.02 0 0 Z " fill="#FCDC65" transform="translate(15,183)"/>
<path d="M0 0 C1.81274414 0.00676758 1.81274414 0.00676758 3.66210938 0.01367188 C6.62895789 0.02539855 9.5957027 0.04181104 12.5625 0.0625 C8.84928631 7.87868457 1.15425926 11.07278683 -6.6171875 14.08203125 C-13.0215559 16.30848065 -17.12519524 16.20447855 -23.421875 14.046875 C-25.56597843 12.99975472 -26.8625381 11.83682417 -28.4375 10.0625 C-27.47519517 6.59820262 -26.54471275 5.15225951 -23.75 2.8125 C-16.46210756 -1.03770732 -8.0403376 -0.05702367 0 0 Z " fill="#FCDD5F" transform="translate(255.4375,220.9375)"/>
<path d="M0 0 C0.99 0 1.98 0 3 0 C4.8882546 9.74830628 5.87235947 21.28764577 1.16796875 30.3359375 C-0.09136934 32.1301784 -1.32017339 33.58790925 -3 35 C-5.5 35.0625 -5.5 35.0625 -8 34 C-11.14122828 29.55895312 -11.68113843 25.29341864 -11 20 C-9.55440975 12.29018535 -5.29091083 5.70693003 0 0 Z " fill="#FCDC65" transform="translate(48,138)"/>
<path d="M0 0 C0.99 0 1.98 0 3 0 C9.79326801 7.673305 14.28203111 16.63120922 14 27 C13.37293917 29.86582346 12.57901353 31.44090911 11 34 C9.125 35.1875 9.125 35.1875 7 35 C2.64421678 32.55651185 1.0428442 29.70060935 -0.4375 25.125 C-2.58033416 17.02984873 -2.66375789 7.99127366 0 0 Z " fill="#FCDD62" transform="translate(253,140)"/>
<path d="M0 0 C6.38772569 1.10967172 11.11581313 6.55396912 14.875 11.5625 C18.82515745 17.56780693 19.36553192 22.05854606 18 29 C17.34 29.99 16.68 30.98 16 32 C11.55215797 31.4916752 9.16430777 30.16430777 6 27 C0.54054754 18.84847271 -0.30851723 9.56403416 0 0 Z " fill="#FADE6D" transform="translate(255,112)"/>
<path d="M0 0 C8.67476767 2.33788065 16.99950976 6.19923523 22 14 C23.93118715 17.76581495 24.36685917 20.78111956 24 25 C23.34 25.99 22.68 26.98 22 28 C16.47558742 27.59577469 12.89485877 25.82452272 9 22 C4.19842357 15.63991667 1.43352296 8.52960634 -1 1 C-0.67 0.67 -0.34 0.34 0 0 Z " fill="#FCDC60" transform="translate(250,84)"/>
<path d="M0 0 C2.95769717 2.52486344 4.26698254 4.52956836 5.5625 8.1875 C5.12890625 10.375 5.12890625 10.375 4.5625 12.1875 C-3.03749991 13.68258195 -8.62713615 13.0376257 -15.4375 9.1875 C-19.75738441 5.87194422 -23.6159599 2.05572558 -27.4375 -1.8125 C-27.1075 -2.4725 -26.7775 -3.1325 -26.4375 -3.8125 C-16.93090458 -6.0759751 -8.5331234 -4.49928325 0 0 Z " fill="#FCDC60" transform="translate(247.4375,40.8125)"/>
<path d="M0 0 C-0.9049689 21.65684196 -0.9049689 21.65684196 -8.4375 29.66015625 C-10.45922088 31.39378191 -12.43300971 32.32050257 -15 33 C-17.66221089 30.25459502 -18.91196126 28.57225183 -19.5 24.75 C-18.33107669 15.98307517 -13.90019881 9.04087376 -7.12890625 3.45703125 C-2.47111345 0 -2.47111345 0 0 0 Z " fill="#FCDC62" transform="translate(49,109)"/>
<path d="M0 0 C-0.50410956 5.24008618 -1.72079325 9.0174451 -4.25 13.625 C-4.83265625 14.71039063 -5.4153125 15.79578125 -6.015625 16.9140625 C-9.77223167 22.75602957 -13.53197399 25.84399133 -20 28 C-20.99 27.67 -21.98 27.34 -23 27 C-24.55944339 23.88111322 -24.28316275 21.4545855 -24 18 C-20.10599176 9.1216612 -10.18437834 0 0 0 Z " fill="#FCDD63" transform="translate(54,82)"/>
<path d="M0 0 C9.23814822 1.06349816 18.44053845 2.79896109 25.0625 9.875 C27.24441019 13.39420999 27.84164813 15.88285136 28 20 C27.67 20.66 27.34 21.32 27 22 C18.84821084 22.42164427 13.91333105 20.31139431 7.81640625 14.8828125 C4.39240534 11.33363306 1.28938878 7.37544369 -1 3 C-0.67 2.01 -0.34 1.02 0 0 Z " fill="#FCDC5F" transform="translate(239,59)"/>
<path d="M0 0 C0 3 0 3 -1.90625 5.12109375 C-9.46008089 11.8672108 -15.65547135 16.66630553 -26 17 C-29.5 16.0625 -29.5 16.0625 -32 15 C-31.54451813 10.10356985 -30.59042714 7.41090579 -27 4 C-17.91220041 -1.14860129 -10.17339297 -1.07001706 0 0 Z " fill="#FBDC62" transform="translate(83,35)"/>
<path d="M0 0 C-4.02687468 8.44281938 -9.19147433 16.1578321 -18 20 C-21.34823275 20.74826135 -24.56764841 21.15663509 -28 21 C-28.33 20.67 -28.66 20.34 -29 20 C-28.70550744 14.20831306 -28.03027091 10.42346807 -24 6 C-17.20523202 1.58828913 -8.14703227 -2.62807493 0 0 Z " fill="#FCDC62" transform="translate(66,58)"/>
<path d="M0 0 C2.64107354 2.46741391 3.79641403 4.57440916 5 8 C7.64 8.33 10.28 8.66 13 9 C13 12 13 12 10.4375 14.625 C8.58839024 16.6818749 8.01880655 17.58894261 7.890625 20.390625 C8.15812602 22.62918613 8.5064134 24.80085179 9 27 C8.443125 26.66484375 7.88625 26.3296875 7.3125 25.984375 C2.69775346 23.40091203 2.69775346 23.40091203 -2.37890625 23.625 C-4.35512837 24.64316095 -6.18690164 25.71551615 -8 27 C-9.27247753 24.45504494 -8.78127582 23.38213828 -8.25 20.625 C-7.86378583 18.23548405 -7.86378583 18.23548405 -8 16 C-10.32069965 13.57583999 -10.32069965 13.57583999 -13 12 C-13 11.01 -13 10.02 -13 9 C-11.783125 9 -10.56625 9 -9.3125 9 C-6.3981594 8.67388373 -5.3315326 8.372482 -3.35546875 6.15234375 C-2.12392032 4.13998651 -1.00990684 2.13148608 0 0 Z " fill="#FBDD65" transform="translate(151,176)"/>
<path d="M0 0 C2.0386441 3.05796615 2.36026009 4.30741685 2.77783203 7.83862305 C2.89780548 8.8194133 3.01777893 9.80020355 3.14138794 10.81071472 C3.26230804 11.86704605 3.38322815 12.92337738 3.5078125 14.01171875 C3.70333206 15.63676079 3.70333206 15.63676079 3.90280151 17.29463196 C4.31775068 20.75807036 4.72149831 24.22271111 5.125 27.6875 C5.40421169 30.03459291 5.68415054 32.38159943 5.96484375 34.72851562 C6.65167297 40.48470099 7.32930794 46.24191333 8 52 C4.30904245 52 3.46135377 51.07413045 0.5625 48.875 C-12.35931192 39.57506821 -24.071788 35.56843549 -40 37 C-43.11758256 37.87044653 -45.97053716 38.9106869 -48.92578125 40.22265625 C-49.61027344 40.47917969 -50.29476562 40.73570312 -51 41 C-51.66 40.67 -52.32 40.34 -53 40 C-51.82009775 39.19705353 -50.63054311 38.40828826 -49.4375 37.625 C-48.77621094 37.18414062 -48.11492187 36.74328125 -47.43359375 36.2890625 C-37.27721655 30.90928003 -25.3408669 31.85793347 -14.6875 35.125 C-8.19076084 37.20232726 -2.75622358 40.36287006 3 44 C2.94465088 43.23558594 2.88930176 42.47117188 2.83227539 41.68359375 C0.80256257 13.60132352 0.80256257 13.60132352 0 0 Z " fill="#8DA0B3" transform="translate(208,114)"/>
<path d="M0 0 C0.33 0 0.66 0 1 0 C1.13571148 7.30630419 0.73281537 14.47636518 0.0625 21.75 C-0.02451172 22.75160156 -0.11152344 23.75320312 -0.20117188 24.78515625 C-0.62835315 29.56325793 -1.10916712 34.28099337 -2 39 C-0.97261719 38.45730469 0.05476563 37.91460937 1.11328125 37.35546875 C15.10803176 30.07508025 28.48839242 24.86787582 44.5 29.25 C48.4860078 30.62471226 51.65564481 32.44772893 55 35 C54.01 35.495 54.01 35.495 53 36 C51.41681456 35.40667815 49.85777774 34.74852016 48.3125 34.0625 C36.96105234 29.80385232 24.95221292 31.1748992 14 36 C7.61615639 39.31353387 1.05124531 42.83320333 -4 48 C-4.66 48 -5.32 48 -6 48 C-4.5912981 31.91114149 -2.37812221 15.97184262 0 0 Z " fill="#91A0AF" transform="translate(94,119)"/>
<path d="M0 0 C0.66 0.66 1.32 1.32 2 2 C2.66 1.67 3.32 1.34 4 1 C7.66666667 8.33333333 11.33333333 15.66666667 15 23 C16.32 23 17.64 23 19 23 C19 23.66 19 24.32 19 25 C18.34 25 17.68 25 17 25 C17 26.65 17 28.3 17 30 C17.54785156 30.05671875 18.09570312 30.1134375 18.66015625 30.171875 C22.01830544 31.36040193 24.03930552 33.72315409 26.4375 36.25 C27.13456055 36.96736328 27.13456055 36.96736328 27.84570312 37.69921875 C29.2346079 39.12880275 30.61733414 40.56438098 32 42 C33.65929178 43.67426034 35.32864688 45.33774681 37 47 C34.828125 47.765625 34.828125 47.765625 32 48 C16.55165871 37.79473212 6.59901534 19.8503159 0 3 C0 2.01 0 1.02 0 0 Z " fill="#F9E172" transform="translate(35,171)"/>
<path d="M0 0 C-1.26085569 7.94670891 -2.81056839 16.37484706 -9 22 C-9.66 21.67 -10.32 21.34 -11 21 C-10.95875 20.2575 -10.9175 19.515 -10.875 18.75 C-11.00615101 15.86467775 -11.38861907 14.37466663 -13 12 C-13.99 11.67 -14.98 11.34 -16 11 C-16.33 11.99 -16.66 12.98 -17 14 C-19.0625 14.6875 -19.0625 14.6875 -21 15 C-17.51103723 8.78054462 -7.55875016 -2.51958339 0 0 Z " fill="#FCDB62" transform="translate(212,211)"/>
<path d="M0 0 C0 0.99 0 1.98 0 3 C-0.55945313 2.855625 -1.11890625 2.71125 -1.6953125 2.5625 C-12.0440162 0.16665863 -23.19174322 -0.72008825 -33 4 C-36.03705746 5.60873204 -36.03705746 5.60873204 -36.66015625 7.70703125 C-37.27385619 11.84774234 -37.40272815 16.02239593 -37.62109375 20.19921875 C-37.74613281 21.12347656 -37.87117187 22.04773438 -38 23 C-38.66 23.33 -39.32 23.66 -40 24 C-41.11165232 19.5621439 -41.11527763 15.23043614 -41.0625 10.6875 C-41.05798828 9.94693359 -41.05347656 9.20636719 -41.04882812 8.44335938 C-41.03712175 6.62887101 -41.01918898 4.81442466 -41 3 C-39.41925436 2.18247697 -37.83528777 1.37118003 -36.25 0.5625 C-35.36828125 0.11003906 -34.4865625 -0.34242187 -33.578125 -0.80859375 C-23.76921771 -5.34149788 -9.64156439 -4.28513973 0 0 Z " fill="#9DABBE" transform="translate(195,90)"/>
<path d="M0 0 C1.76312148 2.25253615 3.19627585 4.65024566 4.625 7.125 C7.13184315 11.85622147 7.13184315 11.85622147 11.2109375 15.0546875 C11.80132812 15.36664063 12.39171875 15.67859375 13 16 C13.38121621 17.99142796 13.70720932 19.99366385 14 22 C15.63492109 25.18094984 15.63492109 25.18094984 17.625 28.25 C18.80877279 30.13093543 19.95019112 32.04113874 21 34 C20.505 34.99 20.505 34.99 20 36 C19.505 35.505 19.505 35.505 19 35 C18.34 35.66 17.68 36.32 17 37 C16.45472656 35.93523437 15.90945313 34.87046875 15.34765625 33.7734375 C5.87502372 12.73694105 5.87502372 12.73694105 -9.875 -1.9375 C-10.57625 -1.958125 -11.2775 -1.97875 -12 -2 C-12 -2.33 -12 -2.66 -12 -3 C-6.47841475 -4.57759579 -4.41188947 -3.52727204 0 0 Z " fill="#F9E068" transform="translate(247,31)"/>
<path d="M0 0 C2.0386441 3.05796615 2.36026009 4.30741685 2.77783203 7.83862305 C2.89780548 8.8194133 3.01777893 9.80020355 3.14138794 10.81071472 C3.26230804 11.86704605 3.38322815 12.92337738 3.5078125 14.01171875 C3.63815887 15.09508011 3.76850525 16.17844147 3.90280151 17.29463196 C4.31775068 20.75807036 4.72149831 24.22271111 5.125 27.6875 C5.40421169 30.03459291 5.68415054 32.38159943 5.96484375 34.72851562 C6.65167297 40.48470099 7.32930794 46.24191333 8 52 C3.28569249 52 0.47834663 48.98843865 -3 46 C-5.5 43.125 -5.5 43.125 -7 41 C-5.51988629 41.30798326 -4.04092675 41.621518 -2.5625 41.9375 C-1.73878906 42.11152344 -0.91507813 42.28554687 -0.06640625 42.46484375 C2 43 2 43 3 44 C2.94465088 43.23558594 2.88930176 42.47117188 2.83227539 41.68359375 C0.80256257 13.60132352 0.80256257 13.60132352 0 0 Z " fill="#97A4B4" transform="translate(208,114)"/>
<path d="M0 0 C1.41047229 2.69935214 2.54338419 5.35935656 3.5 8.25 C3.7371875 8.95640625 3.974375 9.6628125 4.21875 10.390625 C4.4765625 11.25171875 4.734375 12.1128125 5 13 C5.35835938 14.09828125 5.71671875 15.1965625 6.0859375 16.328125 C7.70253495 22.90228796 7.20869309 29.77612864 7.125 36.5 C7.11495069 37.90884781 7.10582829 39.31770255 7.09765625 40.7265625 C7.07419969 44.1512205 7.04137384 47.57551939 7 51 C6.67 51 6.34 51 6 51 C5.67 44.4 5.34 37.8 5 31 C4.01 32.485 4.01 32.485 3 34 C2.35280447 30.1460608 1.70748861 26.29180911 1.0625 22.4375 C0.88009766 21.35146484 0.69769531 20.26542969 0.50976562 19.14648438 C-0.38879021 13.77148675 -1.26401763 8.39978647 -2 3 C-1.34 3 -0.68 3 0 3 C0 2.01 0 1.02 0 0 Z " fill="#FAE270" transform="translate(273,81)"/>
<path d="M0 0 C6.55756023 2.14124416 12.94345904 4.65054507 19.328125 7.25390625 C24.18354205 9.22547699 29.1064887 11.00391752 34.046875 12.75 C34.046875 13.08 34.046875 13.41 34.046875 13.75 C31.736875 13.75 29.426875 13.75 27.046875 13.75 C27.046875 13.09 27.046875 12.43 27.046875 11.75 C25.726875 11.75 24.406875 11.75 23.046875 11.75 C22.716875 12.74 22.386875 13.73 22.046875 14.75 C21.01949219 14.23050781 19.99210937 13.71101562 18.93359375 13.17578125 C11.04228704 9.1996006 3.13541583 5.31444172 -4.953125 1.75 C-1.953125 -0.25 -1.953125 -0.25 0 0 Z " fill="#F7DF79" transform="translate(118.953125,241.25)"/>
<path d="M0 0 C2.12608997 9.81418318 2.76258501 19.08545931 1 29 C0.67 29 0.34 29 0 29 C-0.33 22.4 -0.66 15.8 -1 9 C-8.78066372 13.98923416 -8.78066372 13.98923416 -11 21 C-11.4204758 24.66269885 -11.75129358 28.32176295 -12 32 C-12.33 32 -12.66 32 -13 32 C-13.96195136 19.94354301 -10.67451255 10.85978938 -3.33203125 1.328125 C-2 0 -2 0 0 0 Z " fill="#F8DE74" transform="translate(49,9)"/>
<path d="M0 0 C0.33 0 0.66 0 1 0 C1.33 1.98 1.66 3.96 2 6 C2.66 6 3.32 6 4 6 C4.05437607 7.58294782 4.09296271 9.16644256 4.125 10.75 C4.14820313 11.63171875 4.17140625 12.5134375 4.1953125 13.421875 C3.98655801 16.17743421 3.33768299 17.61605781 2 20 C0.19651971 24.62452057 -1.48753887 28.96209838 -1 34 C-2.32 34 -3.64 34 -5 34 C-5 31 -5 31 -4 30 C-4.17144531 29.41863281 -4.34289062 28.83726562 -4.51953125 28.23828125 C-5.12228594 25.43032648 -4.56957638 23.90897735 -3.6875 21.1875 C-1.62679659 14.21135726 -0.827175 7.21101975 0 0 Z " fill="#FBE16E" transform="translate(276,130)"/>
<path d="M0 0 C1.32 0.33 2.64 0.66 4 1 C4 1.99 4 2.98 4 4 C4.66 4 5.32 4 6 4 C6 5.65 6 7.3 6 9 C6.99 9 7.98 9 9 9 C9 10.65 9 12.3 9 14 C8.01 14 7.02 14 6 14 C5.67 14.99 5.34 15.98 5 17 C2.0625 16.25 2.0625 16.25 -1 15 C-2.18263903 12.04017118 -2.01138558 9.49741317 -1.625 6.375 C-1.53476562 5.59898437 -1.44453125 4.82296875 -1.3515625 4.0234375 C-1 2 -1 2 0 0 Z " fill="#FDDC59" transform="translate(265,124)"/>
<path d="M0 0 C2 2 2 2 2.23046875 5.265625 C2.20919922 7.23789063 2.20919922 7.23789063 2.1875 9.25 C2.18105469 10.55453125 2.17460937 11.8590625 2.16796875 13.203125 C2.01934003 16.56282529 1.63984932 19.7034963 1 23 C0.071875 22.4740625 0.071875 22.4740625 -0.875 21.9375 C-1.57625 21.628125 -2.2775 21.31875 -3 21 C-3.66 21.33 -4.32 21.66 -5 22 C-6.32286246 17.03926578 -6.08893197 12.08888488 -6 7 C-5.36578125 6.89816406 -4.7315625 6.79632813 -4.078125 6.69140625 C-3.39234375 6.46324219 -2.7065625 6.23507813 -2 6 C-0.6954344 3.00384054 -0.6954344 3.00384054 0 0 Z " fill="#A8AFC5" transform="translate(154,109)"/>
<path d="M0 0 C0.99 0.33 1.98 0.66 3 1 C3 1.99 3 2.98 3 4 C4.65 4 6.3 4 8 4 C7.505 4.8353125 7.505 4.8353125 7 5.6875 C5.66924071 8.34497161 5.66924071 8.34497161 6 13 C2.7 13 -0.6 13 -4 13 C-4 11.35 -4 9.7 -4 8 C-4.91568906 5.74867483 -4.91568906 5.74867483 -6 4 C-5.38125 3.896875 -4.7625 3.79375 -4.125 3.6875 C-1.63473516 3.12474627 -1.63473516 3.12474627 0 0 Z " fill="#FCDC53" transform="translate(116,176)"/>
<path d="M0 0 C1.39265039 0.91008084 2.73216903 1.90086584 4.0546875 2.91015625 C3.3946875 3.24015625 2.7346875 3.57015625 2.0546875 3.91015625 C0.47150206 3.3168344 -1.08753476 2.65867641 -2.6328125 1.97265625 C-12.71352402 -1.85060573 -23.67108259 -0.79740551 -33.9453125 1.91015625 C-34.2753125 0.92015625 -34.6053125 -0.06984375 -34.9453125 -1.08984375 C-23.7848795 -5.70795396 -10.76029362 -6.02835727 0 0 Z " fill="#8E9EB1" transform="translate(144.9453125,151.08984375)"/>
<path d="M0 0 C0.99 0.33 1.98 0.66 3 1 C3 1.99 3 2.98 3 4 C4.65 4.33 6.3 4.66 8 5 C7.67 5.99 7.34 6.98 7 8 C6.34 8 5.68 8 5 8 C5.33 9.98 5.66 11.96 6 14 C2.53058454 13.54177532 -0.67395049 13.10868317 -4 12 C-3.67 10.68 -3.34 9.36 -3 8 C-3.99 7.67 -4.98 7.34 -6 7 C-5.67 6.01 -5.34 5.02 -5 4 C-3.68 4 -2.36 4 -1 4 C-0.67 2.68 -0.34 1.36 0 0 Z " fill="#F9DD70" transform="translate(185,176)"/>
<path d="M0 0 C0.02505615 0.56920166 0.0501123 1.13840332 0.07592773 1.72485352 C0.19293894 4.33757313 0.3151828 6.95002362 0.4375 9.5625 C0.47681641 10.45775391 0.51613281 11.35300781 0.55664062 12.27539062 C0.6704484 20.88062604 0.6704484 20.88062604 3 29 C0.64828869 28.40138258 -1.6859378 27.73075648 -4 27 C-5.27582128 24.44835745 -4.72354241 23.70001151 -4 21 C-3.8578299 19.41432161 -3.75495959 17.82481368 -3.68359375 16.234375 C-3.64169922 15.34492187 -3.59980469 14.45546875 -3.55664062 13.5390625 C-3.51732422 12.61867188 -3.47800781 11.69828125 -3.4375 10.75 C-3.39431641 9.81414062 -3.35113281 8.87828125 -3.30664062 7.9140625 C-3.2008195 5.60951359 -3.09873443 3.30486161 -3 1 C-1 0 -1 0 0 0 Z " fill="#4A658D" transform="translate(200,67)"/>
<path d="M0 0 C-0.33 0.66 -0.66 1.32 -1 2 C-3.97 1.67 -6.94 1.34 -10 1 C-10 1.33 -10 1.66 -10 2 C-11.08796875 2.08636719 -12.1759375 2.17273438 -13.296875 2.26171875 C-21.8260128 3.04293212 -28.97296658 4.26327804 -36.77734375 8.07421875 C-37.51082031 8.37972656 -38.24429688 8.68523437 -39 9 C-39.66 8.67 -40.32 8.34 -41 8 C-29.75120015 -1.20356351 -14.04340266 -3.87990004 0 0 Z " fill="#9AA8BD" transform="translate(140,88)"/>
<path d="M0 0 C1.32 0 2.64 0 4 0 C3.72285156 1.19496094 3.44570313 2.38992187 3.16015625 3.62109375 C2.79401026 5.22650309 2.4281396 6.83197525 2.0625 8.4375 C1.88009766 9.22060547 1.69769531 10.00371094 1.50976562 10.81054688 C0.28979762 16.20058734 -0.47675456 21.49766112 -1 27 C-1.33 26.01 -1.66 25.02 -2 24 C-2.66 24 -3.32 24 -4 24 C-5.79983385 18.79449253 -4.01286274 14.265663 -2.5625 9.1875 C-2.19801758 7.86202148 -2.19801758 7.86202148 -1.82617188 6.50976562 C-1.22717517 4.33693444 -0.61821989 2.16742491 0 0 Z " fill="#F9E07C" transform="translate(29,82)"/>
<path d="M0 0 C3.9492568 0.55105909 7.34920174 1.38935371 11 3 C10.01 3.33 9.02 3.66 8 4 C7.53818558 9.77268023 8.44715762 12.46025696 12 17 C13.11375 18.423125 13.11375 18.423125 14.25 19.875 C14.8275 20.57625 15.405 21.2775 16 22 C8.35373947 18.67044673 3.19360703 10.46156113 0 3 C0 2.01 0 1.02 0 0 Z " fill="#F8E076" transform="translate(15,183)"/>
<path d="M0 0 C3.59905908 0.55550695 4.99909799 1.74887248 7.25 4.5625 C8.03117188 5.52349609 8.03117188 5.52349609 8.828125 6.50390625 C9.21484375 6.99761719 9.6015625 7.49132812 10 8 C9.37609375 8.07089844 8.7521875 8.14179687 8.109375 8.21484375 C5.80770679 8.80004532 5.80770679 8.80004532 4.953125 11.06640625 C4.60507813 12.30197266 4.60507813 12.30197266 4.25 13.5625 C4.00765625 14.38878906 3.7653125 15.21507813 3.515625 16.06640625 C3.34546875 16.70449219 3.1753125 17.34257813 3 18 C0.57474186 13.47285147 -0.12997219 9.87788671 -0.0625 4.75 C-0.05347656 3.85796875 -0.04445312 2.9659375 -0.03515625 2.046875 C-0.02355469 1.37140625 -0.01195313 0.6959375 0 0 Z " fill="#F9DF6F" transform="translate(2,110)"/>
<path d="M0 0 C1.65 0 3.3 0 5 0 C5.33 2.64 5.66 5.28 6 8 C6.66 8 7.32 8 8 8 C8 9.32 8 10.64 8 12 C6.68 11.67 5.36 11.34 4 11 C3.67 11.66 3.34 12.32 3 13 C1.35 12.67 -0.3 12.34 -2 12 C-0.68 11.67 0.64 11.34 2 11 C1.01 10.67 0.02 10.34 -1 10 C-1.125 2.25 -1.125 2.25 0 0 Z " fill="#FCDF5B" transform="translate(19,98)"/>
<path d="M0 0 C1.58633824 4.8246563 0.19801139 8.56458634 -2 13 C-3.88900507 15.28018869 -5.4339398 16.39621237 -8 18 C-8.99 17.67 -9.98 17.34 -11 17 C-10.34 14.69 -9.68 12.38 -9 10 C-8.34 10 -7.68 10 -7 10 C-7 9.34 -7 8.68 -7 8 C-6.21625 7.566875 -5.4325 7.13375 -4.625 6.6875 C-1.58313785 4.73201719 -1.01018099 3.39788151 0 0 Z " fill="#F9DC6C" transform="translate(285,62)"/>
<path d="M0 0 C8.58 0 17.16 0 26 0 C24.12803847 3.74392306 23.59931881 4.60045413 20.375 6.75 C19.74335938 7.17796875 19.11171875 7.6059375 18.4609375 8.046875 C17.73777344 8.51867187 17.73777344 8.51867187 17 9 C17.33 6.69 17.66 4.38 18 2 C16.86820312 2.02320313 15.73640625 2.04640625 14.5703125 2.0703125 C13.08854825 2.08906901 11.60677688 2.10726934 10.125 2.125 C9.37863281 2.14175781 8.63226563 2.15851563 7.86328125 2.17578125 C5.90805539 2.1933959 3.95257979 2.10320189 2 2 C1.34 1.34 0.68 0.68 0 0 Z " fill="#F6DF7F" transform="translate(242,221)"/>
<path d="M0 0 C0.66 0 1.32 0 2 0 C5.67737296 9.73518823 8.49629483 20.48959571 5.09375 30.7265625 C4 32.9375 4 32.9375 2 36 C0.68 35.34 -0.64 34.68 -2 34 C-0.71034824 32.62437146 0.62689293 31.29233607 2 30 C2.66 30 3.32 30 4 30 C4 23.4 4 16.8 4 10 C3.34 10 2.68 10 2 10 C1.67 7.69 1.34 5.38 1 3 C0.34 3 -0.32 3 -1 3 C-0.67 2.01 -0.34 1.02 0 0 Z " fill="#F7DF82" transform="translate(57,166)"/>
<path d="M0 0 C-3.3 0.33 -6.6 0.66 -10 1 C-9.67 1.99 -9.34 2.98 -9 4 C-9.33 4.66 -9.66 5.32 -10 6 C-9.01 6.33 -8.02 6.66 -7 7 C-7.33 7.99 -7.66 8.98 -8 10 C-9.29549899 8.90033225 -10.58626071 7.79508199 -11.875 6.6875 C-12.59429687 6.07261719 -13.31359375 5.45773438 -14.0546875 4.82421875 C-16 3 -16 3 -18 0 C-11.47818904 -2.12957093 -6.40943602 -3.20471801 0 0 Z " fill="#F6DD74" transform="translate(238,38)"/>
<path d="M0 0 C4.82360189 -0.19294408 8.49646738 0.24252386 13 2 C12.01 3.98 11.02 5.96 10 8 C5.97007218 7.44687265 1.97977076 6.8441938 -2 6 C-1.67 5.01 -1.34 4.02 -1 3 C-0.01 3 0.98 3 2 3 C2 2.34 2 1.68 2 1 C1.34 0.67 0.68 0.34 0 0 Z " fill="#FDDB5B" transform="translate(174,263)"/>
<path d="M0 0 C-0.33 0.99 -0.66 1.98 -1 3 C-1.95519531 3.02578125 -2.91039062 3.0515625 -3.89453125 3.078125 C-11.55154057 3.41402571 -17.79487607 4.16668768 -24.92578125 7.2578125 C-25.61027344 7.50273437 -26.29476562 7.74765625 -27 8 C-27.66 7.67 -28.32 7.34 -29 7 C-19.3654427 0.44349607 -11.55941167 -0.28858448 0 0 Z " fill="#8696AA" transform="translate(184,147)"/>
<path d="M0 0 C-0.33 1.32 -0.66 2.64 -1 4 C3.455 3.505 3.455 3.505 8 3 C5.86106416 5.13893584 4.52090732 5.70116923 1.71875 6.7265625 C0.45611328 7.190625 0.45611328 7.190625 -0.83203125 7.6640625 C-1.71246094 7.98117187 -2.59289062 8.29828125 -3.5 8.625 C-4.38042969 8.94984375 -5.26085937 9.2746875 -6.16796875 9.609375 C-12.72712054 12 -12.72712054 12 -15 12 C-14.67 11.01 -14.34 10.02 -14 9 C-13.01 9.33 -12.02 9.66 -11 10 C-11.33 9.01 -11.66 8.02 -12 7 C-10.8553125 7.1546875 -10.8553125 7.1546875 -9.6875 7.3125 C-8.800625 7.209375 -7.91375 7.10625 -7 7 C-5.1375562 4.59141286 -5.1375562 4.59141286 -4 2 C-5.65 2 -7.3 2 -9 2 C-3.42857143 -1.71428571 -3.42857143 -1.71428571 0 0 Z " fill="#F8DE7A" transform="translate(145,259)"/>
<path d="M0 0 C3.80875147 3.80875147 3.18076117 9.67151667 3.25 14.8125 C3.20827352 21.38442003 2.85889634 28.14110366 -2 33 C-2.33 31.02 -2.66 29.04 -3 27 C-1.68 26.34 -0.36 25.68 1 25 C1 17.74 1 10.48 1 3 C-2.03268602 5.83656989 -2.03268602 5.83656989 -4 9 C-4.66 8.67 -5.32 8.34 -6 8 C-4.02 5.36 -2.04 2.72 0 0 Z " fill="#F7DF7C" transform="translate(294,74)"/>
<path d="M0 0 C-1.79036458 0.9765625 -3.58072917 1.953125 -5.37109375 2.9296875 C-7.16618315 3.91410024 -7.16618315 3.91410024 -8 6 C-6.8553125 6.185625 -6.8553125 6.185625 -5.6875 6.375 C-3 7 -3 7 0 9 C-6.04801071 8.45018084 -11.30601106 7.09570426 -17 5 C-16.67 4.01 -16.34 3.02 -16 2 C-13.41796875 1.015625 -13.41796875 1.015625 -10.1875 0.25 C-9.12917969 -0.01296875 -8.07085937 -0.2759375 -6.98046875 -0.546875 C-4.18266064 -0.97222984 -2.62468156 -0.94056385 0 0 Z " fill="#436296" transform="translate(104,56)"/>
<path d="M0 0 C0.66 0.66 1.32 1.32 2 2 C3.9931567 2.02375926 3.9931567 2.02375926 6.125 1.625 C8.043125 1.315625 8.043125 1.315625 10 1 C7 3 7 3 5.109375 3.21484375 C1.66055467 4.49857132 0.17385836 7.58897951 -1.75 10.5625 C-2.16121094 11.17802734 -2.57242188 11.79355469 -2.99609375 12.42773438 C-4.00763511 13.94504641 -5.00519789 15.47166086 -6 17 C-6.33 16.01 -6.66 15.02 -7 14 C-7.66 13.67 -8.32 13.34 -9 13 C-8.15115234 11.96939453 -8.15115234 11.96939453 -7.28515625 10.91796875 C-6.55167969 10.01691406 -5.81820312 9.11585937 -5.0625 8.1875 C-3.96615234 6.84751953 -3.96615234 6.84751953 -2.84765625 5.48046875 C-0.84817309 3.06637081 -0.84817309 3.06637081 0 0 Z " fill="#F7E183" transform="translate(60,24)"/>
<path d="M0 0 C3.48247874 1.16082625 3.88819244 1.90932476 5.75 4.9375 C6.19859375 5.64777344 6.6471875 6.35804687 7.109375 7.08984375 C7.40328125 7.72019531 7.6971875 8.35054687 8 9 C7.67 9.66 7.34 10.32 7 11 C5.0625 10.375 5.0625 10.375 3 9 C2.25 5.875 2.25 5.875 2 3 C1.34 3 0.68 3 0 3 C0 9.93 0 16.86 0 24 C-0.66 24 -1.32 24 -2 24 C-2.09909001 16.25996896 -2.1692368 8.66499677 -1 1 C-0.67 0.67 -0.34 0.34 0 0 Z " fill="#F6DE80" transform="translate(255,11)"/>
<path d="M0 0 C6.89835786 1.85913191 12.24385683 4.79515783 18 9 C14.45937709 9 12.73666469 7.75650879 9.81640625 5.875 C7.73541729 4.71067309 7.73541729 4.71067309 4 5 C4.33 7.97 4.66 10.94 5 14 C1.57068046 10.2440786 0.43570917 5.76533255 -1 1 C-0.67 0.67 -0.34 0.34 0 0 Z " fill="#F6E184" transform="translate(250,84)"/>
<path d="M0 0 C0.99 0.33 1.98 0.66 3 1 C2.01 3.64 1.02 6.28 0 9 C-0.33 8.01 -0.66 7.02 -1 6 C-1.62648438 6.15597656 -2.25296875 6.31195313 -2.8984375 6.47265625 C-3.71570313 6.66730469 -4.53296875 6.86195313 -5.375 7.0625 C-6.59316406 7.35833984 -6.59316406 7.35833984 -7.8359375 7.66015625 C-10 8 -10 8 -12 7 C-10.37554381 6.01993141 -8.75041739 5.04097364 -7.125 4.0625 C-6.22007812 3.51722656 -5.31515625 2.97195312 -4.3828125 2.41015625 C-2.94798364 1.56101983 -1.49124552 0.74562276 0 0 Z " fill="#F9E072" transform="translate(297,150)"/>
<path d="M0 0 C0 0.66 0 1.32 0 2 C0.66 2.33 1.32 2.66 2 3 C-3.94 6.465 -3.94 6.465 -10 10 C-10.99 8.68 -11.98 7.36 -13 6 C-11.21118264 4.99491199 -9.41885304 3.99607264 -7.625 3 C-6.62726563 2.443125 -5.62953125 1.88625 -4.6015625 1.3125 C-2 0 -2 0 0 0 Z " fill="#FBDE7B" transform="translate(222,226)"/>
<path d="M0 0 C0 3.88091967 -1.65317733 6.39673296 -3.5 9.6875 C-3.83386719 10.29400391 -4.16773438 10.90050781 -4.51171875 11.52539062 C-5.335537 13.02003231 -6.16703451 14.51043671 -7 16 C-8.32 15.34 -9.64 14.68 -11 14 C-9.73958167 11.84740907 -8.46754172 9.70337538 -7.1875 7.5625 C-6.83107422 6.95083984 -6.47464844 6.33917969 -6.10742188 5.70898438 C-3.33984375 1.11328125 -3.33984375 1.11328125 0 0 Z " fill="#F9DD79" transform="translate(49,45)"/>
<path d="M0 0 C0.33 0.99 0.66 1.98 1 3 C0.67 3.33 0.34 3.66 0 4 C0.33 4.66 0.66 5.32 1 6 C1.66 6 2.32 6 3 6 C1.7508258 9.45925163 0.32472205 12.14693203 -2 15 C-2.99 14.67 -3.98 14.34 -5 14 C-4.14285714 5.42857143 -4.14285714 5.42857143 -2 2 C-1.34 2 -0.68 2 0 2 C0 1.34 0 0.68 0 0 Z " fill="#FCE64B" transform="translate(272,158)"/>
<path d="M0 0 C-0.969375 0.391875 -1.93875 0.78375 -2.9375 1.1875 C-6.22176391 2.67594887 -6.22176391 2.67594887 -6.875 5.6875 C-6.91625 6.450625 -6.9575 7.21375 -7 8 C-4.03 8.33 -1.06 8.66 2 9 C-1.91737523 10.95868762 -4.69003188 11.59339923 -9 12 C-10 11 -10 11 -10.09765625 8.93359375 C-10.08605469 8.10988281 -10.07445313 7.28617188 -10.0625 6.4375 C-10.05347656 5.61121094 -10.04445313 4.78492187 -10.03515625 3.93359375 C-10.02355469 3.29550781 -10.01195313 2.65742187 -10 2 C-3.375 -1.125 -3.375 -1.125 0 0 Z " fill="#4B628C" transform="translate(127,70)"/>
<path d="M0 0 C1.17949219 0.26103516 1.17949219 0.26103516 2.3828125 0.52734375 C4.26560176 0.97672028 6.13494323 1.48192868 8 2 C8 2.33 8 2.66 8 3 C1.84765625 3.09765625 1.84765625 3.09765625 0 3 C-0.33 2.67 -0.66 2.34 -1 2 C-8.28766605 1.36628991 -14.61931214 2.18818883 -21.57421875 4.33203125 C-24.4432319 5.12204936 -27.03886336 5.24009216 -30 5 C-21.32110176 0.08195767 -9.72066811 -2.19666343 0 0 Z " fill="#405B83" transform="translate(158,44)"/>
<path d="M0 0 C0 4.27840261 -2.28404432 5.82034457 -5 9 C-5.33 9.99 -5.66 10.98 -6 12 C-7.125 7.25 -7.125 7.25 -6 5 C-6.66 5 -7.32 5 -8 5 C-8.33 3.68 -8.66 2.36 -9 1 C-6.04335481 -0.4783226 -3.25770263 -0.06032783 0 0 Z " fill="#F9DC70" transform="translate(164,185)"/>
<path d="M0 0 C0.99 0.33 1.98 0.66 3 1 C3 6.28 3 11.56 3 17 C2.34 17 1.68 17 1 17 C0.67 17.99 0.34 18.98 0 20 C0 13.4 0 6.8 0 0 Z " fill="#F6DC7A" transform="translate(24,109)"/>
<path d="M0 0 C0.66 0.33 1.32 0.66 2 1 C2 7.6 2 14.2 2 21 C1.34 21.33 0.68 21.66 0 22 C-1.92868325 6.81161941 -1.92868325 6.81161941 0 0 Z " fill="#FDE147" transform="translate(277,111)"/>
<path d="M0 0 C2.31 0 4.62 0 7 0 C6.67 0.99 6.34 1.98 6 3 C12.27 3.33 18.54 3.66 25 4 C19.15501342 6.92249329 12.75104528 7.22909057 6.47265625 5.171875 C1.34292959 2.68585919 1.34292959 2.68585919 0 0 Z " fill="#F5DE79" transform="translate(196,249)"/>
<path d="M0 0 C0.33 0 0.66 0 1 0 C0.59307763 8.40972891 -1.74686514 15.09623817 -7.1875 21.625 C-9 23 -9 23 -11 23 C-10.34 21.35 -9.68 19.7 -9 18 C-8.34 18 -7.68 18 -7 18 C-7.33 17.01 -7.66 16.02 -8 15 C-7.34 15 -6.68 15 -6 15 C-3.36634013 10.0778687 -1.35524176 5.42096702 0 0 Z " fill="#F6DF75" transform="translate(300,121)"/>
<path d="M0 0 C0.66 0.33 1.32 0.66 2 1 C1.34 1.66 0.68 2.32 0 3 C-0.40047444 5.32275177 -0.7397104 7.65739357 -1 10 C-1.33 9.34 -1.66 8.68 -2 8 C-4.64 8.66 -7.28 9.32 -10 10 C-9.07134386 5.93712938 -7.38267431 4.31270784 -4 2.125 C-1.875 0.8203125 -1.875 0.8203125 0 0 Z " fill="#FAE073" transform="translate(49,60)"/>
<path d="M0 0 C0.99 0 1.98 0 3 0 C4.10228696 4.40914783 4.07654536 8.48382401 4 13 C4.66 13 5.32 13 6 13 C6 13.66 6 14.32 6 15 C4.33333333 15 2.66666667 15 1 15 C-0.32286246 10.03926578 -0.08893197 5.08888488 0 0 Z " fill="#B9C1E0" transform="translate(148,116)"/>
<path d="M0 0 C4.29 0 8.58 0 13 0 C12.01 0.495 12.01 0.495 11 1 C10.27840576 2.64363134 9.60648579 4.31050386 9 6 C7.02 6 5.04 6 3 6 C2.01 4.02 1.02 2.04 0 0 Z " fill="#44699D" transform="translate(146,162)"/>
<path d="M0 0 C0.33 0 0.66 0 1 0 C0.98839844 0.66386719 0.97679687 1.32773438 0.96484375 2.01171875 C0.86445296 7.35324693 0.86445296 7.35324693 1.5625 12.625 C2.22311744 16.21120899 1.54842198 19.40478927 1 23 C-2.10439124 19.89560876 -1.96995816 16.19984902 -2 12 C-1.52081342 7.95837582 -0.81614076 3.9862743 0 0 Z " fill="#FBE072" transform="translate(242,176)"/>
<path d="M0 0 C7.25852128 0.35121877 12.83201295 2.07157968 19 6 C19.33 6.66 19.66 7.32 20 8 C18.783125 7.54625 17.56625 7.0925 16.3125 6.625 C10.34247292 4.61273848 4.22742511 3.81813158 -2 3 C-1.34 2.01 -0.68 1.02 0 0 Z " fill="#8392A2" transform="translate(129,147)"/>
<path d="M0 0 C1.46726798 3.81489674 0.43336419 6.29011622 -1 10 C0.093125 9.79375 1.18625 9.5875 2.3125 9.375 C6 9 6 9 9 11 C2.375 14.125 2.375 14.125 -1 13 C-2.5121867 9.97562661 -2.17263369 7.33758466 -2 4 C-1 1.5625 -1 1.5625 0 0 Z " fill="#F9DE77" transform="translate(32,96)"/>
<path d="M0 0 C1.6065676 0.25620684 3.2102483 0.53055871 4.8125 0.8125 C6.15248047 1.03873047 6.15248047 1.03873047 7.51953125 1.26953125 C10.18321256 2.05395393 11.25690322 2.88627799 13 5 C10.47052926 6.26473537 9.69297144 5.82709612 7 5.125 C2.02742887 3.92834874 -2.908833 3.40389216 -8 3 C-8 2.67 -8 2.34 -8 2 C-5.36 1.67 -2.72 1.34 0 1 C0 0.67 0 0.34 0 0 Z " fill="#8A96AC" transform="translate(183,87)"/>
<path d="M0 0 C3.34373475 0.55728913 6.03312999 1.35173889 9 3 C9 3.66 9 4.32 9 5 C4.545 6.485 4.545 6.485 0 8 C0 5.36 0 2.72 0 0 Z " fill="#F8DD72" transform="translate(226,244)"/>
<path d="M0 0 C1.65 0 3.3 0 5 0 C5.33 1.32 5.66 2.64 6 4 C2.71195019 6.91227269 0.40114397 8.49701212 -4 9 C-4.33 8.34 -4.66 7.68 -5 7 C-3.68 7 -2.36 7 -1 7 C-0.67 4.69 -0.34 2.38 0 0 Z " fill="#FBDB64" transform="translate(286,104)"/>
<path d="M0 0 C0.66 0.66 1.32 1.32 2 2 C1.34 2 0.68 2 0 2 C0 2.66 0 3.32 0 4 C-1.29233607 5.37310707 -2.62437146 6.71034824 -4 8 C-3.67 8.99 -3.34 9.98 -3 11 C-4.32 11 -5.64 11 -7 11 C-7 12.65 -7 14.3 -7 16 C-8.65 16.33 -10.3 16.66 -12 17 C-10.60827683 12.9625531 -8.70711315 10.10184153 -6 6.8125 C-5.29875 5.95269531 -4.5975 5.09289062 -3.875 4.20703125 C-2 2 -2 2 0 0 Z " fill="#F6DE7F" transform="translate(233,191)"/>
<path d="M0 0 C0.66 0.33 1.32 0.66 2 1 C2 4.3 2 7.6 2 11 C1.34 10.67 0.68 10.34 0 10 C0 9.01 0 8.02 0 7 C-0.66 8.65 -1.32 10.3 -2 12 C-3.32 12 -4.64 12 -6 12 C-6 10.68 -6 9.36 -6 8 C-2.78571429 5 -2.78571429 5 0 5 C0 3.35 0 1.7 0 0 Z " fill="#FEE654" transform="translate(24,131)"/>
<path d="M0 0 C3.57410797 2.68058098 6.31941902 5.42589203 9 9 C8.67 9.66 8.34 10.32 8 11 C1.25 7.25 1.25 7.25 -1 5 C-0.625 2.375 -0.625 2.375 0 0 Z " fill="#F5DE70" transform="translate(70,189)"/>
<path d="M0 0 C4.71403788 0.47939368 8.66579301 0.96834048 13 3 C12.67 3.99 12.34 4.98 12 6 C9.69 6.33 7.38 6.66 5 7 C5.66 5.68 6.32 4.36 7 3 C5.824375 2.814375 5.824375 2.814375 4.625 2.625 C2 2 2 2 0 0 Z " fill="#41608A" transform="translate(202,56)"/>
<path d="M0 0 C-4.95 2.31 -9.9 4.62 -15 7 C-15.66 6.01 -16.32 5.02 -17 4 C-4.21590909 -2.10795455 -4.21590909 -2.10795455 0 0 Z " fill="#F9E07C" transform="translate(73,35)"/>
<path d="M0 0 C1.65 0.66 3.3 1.32 5 2 C-0.10492953 5.40328636 -5.9780768 5.6355876 -12 5 C-13.32 4.34 -14.64 3.68 -16 3 C-11.05 3 -6.1 3 -1 3 C-0.67 2.01 -0.34 1.02 0 0 Z " fill="#F9E89D" transform="translate(99,248)"/>
<path d="M0 0 C-1.09068668 3.77545388 -1.9083091 6.47043472 -5 9 C-5 8.01 -5 7.02 -5 6 C-5.66 6 -6.32 6 -7 6 C-6.67 5.01 -6.34 4.02 -6 3 C-6.66 2.34 -7.32 1.68 -8 1 C-5.07175348 0.02391783 -3.04386724 -0.08226668 0 0 Z " fill="#F9E07B" transform="translate(289,186)"/>
<path d="M0 0 C1 1 2 2 3 3 C5.16299211 2.77242269 5.16299211 2.77242269 7 2 C5.515 4.475 5.515 4.475 4 7 C1.21788056 6.62403791 -0.5879284 6.32681541 -2.8125 4.5625 C-4 3 -4 3 -4 1 C-2.1875 0.3125 -2.1875 0.3125 0 0 Z " fill="#FAE176" transform="translate(259,168)"/>
<path d="M0 0 C0.66 0.33 1.32 0.66 2 1 C0.85077718 4.44766845 -0.14983367 4.95144295 -3 7 C-3.33 7.66 -3.66 8.32 -4 9 C-5.65 8.67 -7.3 8.34 -9 8 C-9 7.34 -9 6.68 -9 6 C-7.68 6 -6.36 6 -5 6 C-5.33 5.01 -5.66 4.02 -6 3 C-5.01 3 -4.02 3 -3 3 C-3 2.34 -3 1.68 -3 1 C-2.01 0.67 -1.02 0.34 0 0 Z " fill="#FCE04D" transform="translate(197,237)"/>
<path d="M0 0 C0.53625 0.226875 1.0725 0.45375 1.625 0.6875 C0.625 3.6875 0.625 3.6875 -1.6875 4.9375 C-4.47373015 5.7150526 -5.70938378 5.67476527 -8.375 4.6875 C-8.375 4.0275 -8.375 3.3675 -8.375 2.6875 C-2.95961538 -0.38942308 -2.95961538 -0.38942308 0 0 Z " fill="#F9E255" transform="translate(209.375,233.3125)"/>
<path d="M0 0 C0.99 0.33 1.98 0.66 3 1 C3 1.99 3 2.98 3 4 C4.65 4 6.3 4 8 4 C7.505 4.8353125 7.505 4.8353125 7 5.6875 C5.8690399 8.30284522 5.84337026 10.1806646 6 13 C4.68 12.67 3.36 12.34 2 12 C2.66 11.67 3.32 11.34 4 11 C4 9.02 4 7.04 4 5 C3.34 5 2.68 5 2 5 C2 4.01 2 3.02 2 2 C1.34 2 0.68 2 0 2 C0 2.66 0 3.32 0 4 C-0.66 3.67 -1.32 3.34 -2 3 C-1.34 2.01 -0.68 1.02 0 0 Z " fill="#F4DC7C" transform="translate(116,176)"/>
<path d="M0 0 C0.66 0.33 1.32 0.66 2 1 C2 1.99 2 2.98 2 4 C1.01 4 0.02 4 -1 4 C-1.99 7.96 -2.98 11.92 -4 16 C-4.66 15.67 -5.32 15.34 -6 15 C-3.4 3.4 -3.4 3.4 0 0 Z " fill="#F5E080" transform="translate(25,38)"/>
<path d="M0 0 C0.99 0.33 1.98 0.66 3 1 C2.34 4.3 1.68 7.6 1 11 C0.67 11 0.34 11 0 11 C0.33 8.36 0.66 5.72 1 3 C0.45730469 3.28875 -0.08539063 3.5775 -0.64453125 3.875 C-1.71767578 4.431875 -1.71767578 4.431875 -2.8125 5 C-3.52019531 5.37125 -4.22789062 5.7425 -4.95703125 6.125 C-7 7 -7 7 -10 7 C-6.81516089 4.36113331 -3.7101179 1.85505895 0 0 Z " fill="#F6E185" transform="translate(209,210)"/>
<path d="M0 0 C4.4785979 -0.17563129 8.02584132 -0.22085338 12 2 C12.33 2.99 12.66 3.98 13 5 C12.01 5.495 12.01 5.495 11 6 C8.90625 5.29296875 8.90625 5.29296875 6.5 4.1875 C5.7059375 3.83042969 4.911875 3.47335938 4.09375 3.10546875 C2 2 2 2 0 0 Z " fill="#476899" transform="translate(132,156)"/>
<path d="M0 0 C1.73662334 3.22515763 2.8905928 6.51329166 4 10 C3.01 10 2.02 10 1 10 C0.67 10.99 0.34 11.98 0 13 C-1.29243536 8.8803623 -2.26252625 5.33168317 -2 1 C-1.34 0.67 -0.68 0.34 0 0 Z " fill="#FAE084" transform="translate(32,154)"/>
<path d="M0 0 C7.97488789 0.98834081 7.97488789 0.98834081 10.48828125 3.46875 C11.5625 5.125 11.5625 5.125 13 8 C9.52709591 7.36276989 7.15645247 5.97562783 4.25 4 C3.45078125 3.46375 2.6515625 2.9275 1.828125 2.375 C1.22484375 1.92125 0.6215625 1.4675 0 1 C0 0.67 0 0.34 0 0 Z " fill="#98AAC4" transform="translate(201,155)"/>
<path d="M0 0 C1.65 0 3.3 0 5 0 C5.33 0.66 5.66 1.32 6 2 C6.99 2.66 7.98 3.32 9 4 C9.99 4.66 10.98 5.32 12 6 C14.32387947 6.39387788 16.65793749 6.73486085 19 7 C19 7.33 19 7.66 19 8 C13.37280524 8.2910618 9.87876655 8.144094 5 5 C2.125 2.3125 2.125 2.3125 0 0 Z " fill="#F7DF85" transform="translate(247,73)"/>
<path d="M0 0 C3.09592835 3.5087188 4.74194623 6.49197399 6 11 C5.34 10.67 4.68 10.34 4 10 C3.34 10.66 2.68 11.32 2 12 C-0.05257931 8.55166676 -1.0632763 6.68338409 -0.6875 2.625 C-0.460625 1.75875 -0.23375 0.8925 0 0 Z " fill="#F9E381" transform="translate(262,56)"/>
<path d="M0 0 C4.60209225 -0.17700355 6.78370866 -0.10814567 11 2 C7.7 2.33 4.4 2.66 1 3 C1.33 3.99 1.66 4.98 2 6 C1.01 6.495 1.01 6.495 0 7 C-0.66 6.67 -1.32 6.34 -2 6 C-1.34 4.02 -0.68 2.04 0 0 Z " fill="#FCE58A" transform="translate(227,36)"/>
<path d="M0 0 C0.66 0 1.32 0 2 0 C2 0.66 2 1.32 2 2 C3.32 1.34 4.64 0.68 6 0 C6.33 1.98 6.66 3.96 7 6 C7.99 6 8.98 6 10 6 C9.67 7.32 9.34 8.64 9 10 C7.68113228 8.90344712 6.37009943 7.79746577 5.0625 6.6875 C4.33160156 6.07261719 3.60070312 5.45773438 2.84765625 4.82421875 C1 3 1 3 0 0 Z " fill="#FAE17D" transform="translate(12,166)"/>
<path d="M0 0 C1.98 0.66 3.96 1.32 6 2 C6 2.66 6 3.32 6 4 C6.94875 3.814375 7.8975 3.62875 8.875 3.4375 C12 3 12 3 14 4 C13.67 4.99 13.34 5.98 13 7 C7.53228436 6.59992325 4.04064621 4.53855408 0 1 C0 0.67 0 0.34 0 0 Z " fill="#F8DD7B" transform="translate(259,105)"/>
<path d="M0 0 C0.2475 0.53625 0.495 1.0725 0.75 1.625 C2.29696975 4.56424252 4.13014369 7.25754408 6 10 C5.01 10.495 5.01 10.495 4 11 C1.96855359 10.06553465 -0.03533587 9.06775224 -2 8 C-1.34 5.36 -0.68 2.72 0 0 Z " fill="#587198" transform="translate(197,85)"/>
<path d="M0 0 C-0.75 6.75 -0.75 6.75 -3 9 C-3.0825 8.21625 -3.165 7.4325 -3.25 6.625 C-3.72806339 3.85250896 -3.72806339 3.85250896 -6.0625 2.6875 C-6.701875 2.460625 -7.34125 2.23375 -8 2 C-5.09399739 0.74335022 -3.20395416 0 0 0 Z " fill="#F9E186" transform="translate(54,82)"/>
<path d="M0 0 C0.66 0 1.32 0 2 0 C2 0.99 2 1.98 2 3 C2.9590625 3.1546875 2.9590625 3.1546875 3.9375 3.3125 C4.618125 3.539375 5.29875 3.76625 6 4 C6.33 4.99 6.66 5.98 7 7 C5.35 7.66 3.7 8.32 2 9 C-1.07692308 4.56923077 -1.07692308 4.56923077 -0.6875 1.6875 C-0.460625 1.130625 -0.23375 0.57375 0 0 Z " fill="#FCDD5F" transform="translate(93,208)"/>
<path d="M0 0 C2.51954654 2.25890379 3.87332733 4.417897 5.25 7.5 C5.60578125 8.2734375 5.9615625 9.046875 6.328125 9.84375 C7 12 7 12 6 15 C5.01 14.34 4.02 13.68 3 13 C2.8125 9.375 2.8125 9.375 3 6 C2.34 6 1.68 6 1 6 C0.67 5.01 0.34 4.02 0 3 C-0.66 2.67 -1.32 2.34 -2 2 C-1.34 1.34 -0.68 0.68 0 0 Z " fill="#F3DE7E" transform="translate(246,168)"/>
<path d="M0 0 C0.33 0 0.66 0 1 0 C1.8125 3.1875 1.8125 3.1875 2 7 C-0.3125 9.9375 -0.3125 9.9375 -3 12 C-3.66 12 -4.32 12 -5 12 C-4.54738642 10.56068883 -4.08767021 9.12361001 -3.625 7.6875 C-3.24214844 6.48673828 -3.24214844 6.48673828 -2.8515625 5.26171875 C-2 3 -2 3 0 0 Z " fill="#FBDE7B" transform="translate(286,86)"/>
<path d="M0 0 C0.99 0.33 1.98 0.66 3 1 C3.6875 3.0625 3.6875 3.0625 4 5 C5.32 5.33 6.64 5.66 8 6 C7.67 6.66 7.34 7.32 7 8 C7.99 8.33 8.98 8.66 10 9 C9.01 9.33 8.02 9.66 7 10 C2.6477456 7.34618634 1.2228945 4.89157798 0 0 Z " fill="#F9DC73" transform="translate(19,68)"/>
<path d="M0 0 C-0.33 1.65 -0.66 3.3 -1 5 C-1.70125 4.21625 -2.4025 3.4325 -3.125 2.625 C-6.09157086 -0.08360818 -8.1582516 -1.01722715 -12 -2 C-12 -2.33 -12 -2.66 -12 -3 C-6.55937344 -4.55446473 -4.37598087 -3.43827068 0 0 Z " fill="#F7E284" transform="translate(247,31)"/>
<path d="M0 0 C0.66 0 1.32 0 2 0 C0.50867052 4.72254335 0.50867052 4.72254335 -2.0625 6.125 C-2.701875 6.41375 -3.34125 6.7025 -4 7 C-4.33 7.99 -4.66 8.98 -5 10 C-5.99 9.67 -6.98 9.34 -8 9 C-6.71520959 7.49410612 -5.42195918 5.99542625 -4.125 4.5 C-3.04605469 3.24703125 -3.04605469 3.24703125 -1.9453125 1.96875 C-1.30335938 1.3190625 -0.66140625 0.669375 0 0 Z " fill="#F9E479" transform="translate(294,117)"/>
<path d="M0 0 C0.33 0 0.66 0 1 0 C1 2.97 1 5.94 1 9 C-0.65 9.33 -2.3 9.66 -4 10 C-3.4359146 6.05140217 -2.2568294 3.29120954 0 0 Z " fill="#FDDB5A" transform="translate(46,111)"/>
<path d="M0 0 C-1.51599265 3.0319853 -3.8596433 3.41024437 -6.9375 4.6875 C-8.01902344 5.14511719 -9.10054688 5.60273437 -10.21484375 6.07421875 C-13 7 -13 7 -15 6 C-4.8 -1.6 -4.8 -1.6 0 0 Z " fill="#909BA5" transform="translate(114,90)"/>
<path d="M0 0 C0.66 0 1.32 0 2 0 C0.4169423 4.2742558 -2.50568404 6.26531794 -6 9 C-6.66 7.68 -7.32 6.36 -8 5 C-7.05125 4.54625 -6.1025 4.0925 -5.125 3.625 C-1.99686321 2.19761746 -1.99686321 2.19761746 0 0 Z " fill="#FCDF69" transform="translate(243,211)"/>
<path d="M0 0 C3.43752007 1.5277867 6.18953688 3.50181056 9 6 C9 6.66 9 7.32 9 8 C4.89041233 6.54955729 1.56741255 4.48889248 -2 2 C-1.34 1.34 -0.68 0.68 0 0 Z " fill="#4B6587" transform="translate(203,163)"/>
<path d="M0 0 C0.8353125 0.556875 0.8353125 0.556875 1.6875 1.125 C1.3575 1.785 1.0275 2.445 0.6875 3.125 C-1.59765625 3.7578125 -1.59765625 3.7578125 -4.375 4.25 C-5.29410156 4.41757813 -6.21320313 4.58515625 -7.16015625 4.7578125 C-8.22556641 4.93957031 -8.22556641 4.93957031 -9.3125 5.125 C-7.609375 1.296875 -7.609375 1.296875 -4.9375 -0.25 C-2.3125 -0.875 -2.3125 -0.875 0 0 Z " fill="#97A9BE" transform="translate(110.3125,150.875)"/>
<path d="M0 0 C0 0.66 0 1.32 0 2 C-1.32 2 -2.64 2 -4 2 C-4 2.66 -4 3.32 -4 4 C-2.68 4.33 -1.36 4.66 0 5 C-1.8125 6.0625 -1.8125 6.0625 -4 7 C-4.99 6.67 -5.98 6.34 -7 6 C-6.67 5.67 -6.34 5.34 -6 5 C-6.99 4.34 -7.98 3.68 -9 3 C-2.25 0 -2.25 0 0 0 Z " fill="#F9E280" transform="translate(192,241)"/>
<path d="M0 0 C2.36270192 3.54405288 2.71333497 5.77169086 3 10 C2.0625 13.4375 2.0625 13.4375 1 16 C0.34 15.67 -0.32 15.34 -1 15 C-0.67 14.01 -0.34 13.02 0 12 C-0.33 11.01 -0.66 10.02 -1 9 C-0.87890625 6.73828125 -0.87890625 6.73828125 -0.5625 4.3125 C-0.46066406 3.50425781 -0.35882813 2.69601563 -0.25390625 1.86328125 C-0.17011719 1.24839844 -0.08632812 0.63351563 0 0 Z " fill="#F6DD7C" transform="translate(83,206)"/>
<path d="M0 0 C-1.46301048 2.92602095 -3.41022764 3.09705209 -6.4375 4.1875 C-7.42621094 4.55230469 -8.41492188 4.91710937 -9.43359375 5.29296875 C-12 6 -12 6 -14 5 C-12.73168307 4.18357746 -11.46024069 3.37200895 -10.1875 2.5625 C-9.47980469 2.11003906 -8.77210938 1.65757812 -8.04296875 1.19140625 C-4.84443632 -0.67389469 -3.59047601 -1.19682534 0 0 Z " fill="#808C9E" transform="translate(169,149)"/>
<path d="M0 0 C0.625 1.875 0.625 1.875 1 4 C0.34 4.66 -0.32 5.32 -1 6 C-1.99 6 -2.98 6 -4 6 C-5.6875 3.5 -5.6875 3.5 -7 1 C-3.535 0.505 -3.535 0.505 0 0 Z " fill="#FDDD57" transform="translate(247,60)"/>
<path d="M0 0 C0.66 0.33 1.32 0.66 2 1 C2 1.66 2 2.32 2 3 C2.67546875 3.03738281 3.3509375 3.07476562 4.046875 3.11328125 C4.93890625 3.17902344 5.8309375 3.24476562 6.75 3.3125 C8.07257813 3.39951172 8.07257813 3.39951172 9.421875 3.48828125 C12.32303774 4.0641181 13.79225607 5.07596148 16 7 C9.95198929 6.45018084 4.69398894 5.09570426 -1 3 C-0.67 2.01 -0.34 1.02 0 0 Z " fill="#3F5A87" transform="translate(88,58)"/>
<path d="M0 0 C0.33 0 0.66 0 1 0 C1.33 1.98 1.66 3.96 2 6 C2.66 6 3.32 6 4 6 C4 9.3 4 12.6 4 16 C3.67 16 3.34 16 3 16 C2.34 13.69 1.68 11.38 1 9 C0.34 9.66 -0.32 10.32 -1 11 C-0.67 7.37 -0.34 3.74 0 0 Z " fill="#FCE380" transform="translate(276,130)"/>
<path d="M0 0 C4.29 0.66 8.58 1.32 13 2 C13 2.33 13 2.66 13 3 C11.39773045 3.22245393 9.79303233 3.42746669 8.1875 3.625 C7.29417969 3.74101562 6.40085937 3.85703125 5.48046875 3.9765625 C3 4 3 4 0 2 C0 1.34 0 0.68 0 0 Z " fill="#FAE07D" transform="translate(54,218)"/>
<path d="M0 0 C2.475 0.495 2.475 0.495 5 1 C5.33 3.31 5.66 5.62 6 8 C4.68 8.33 3.36 8.66 2 9 C2.04125 8.2575 2.0825 7.515 2.125 6.75 C1.99601866 3.91241048 1.42948778 2.41226062 0 0 Z " fill="#F6DB74" transform="translate(110,180)"/>
<path d="M0 0 C2.50037734 2.17424117 3.43628586 3.73045798 4 7 C2.824375 6.9690625 2.824375 6.9690625 1.625 6.9375 C-0.98114961 6.81315937 -0.98114961 6.81315937 -3 8 C-1.125 1.125 -1.125 1.125 0 0 Z " fill="#F5DF80" transform="translate(278,40)"/>
<path d="M0 0 C0.66 0.33 1.32 0.66 2 1 C-0.28261555 3.72158008 -1.56093858 4.89247475 -5.0625 5.75 C-8 6 -8 6 -11 6 C-9.73168307 5.18357746 -8.46024069 4.37200895 -7.1875 3.5625 C-6.47980469 3.11003906 -5.77210937 2.65757812 -5.04296875 2.19140625 C-3 1 -3 1 0 0 Z " fill="#F7DD78" transform="translate(79,3)"/>
<path d="M0 0 C1.65 0 3.3 0 5 0 C5.625 3.375 5.625 3.375 6 7 C5.34 7.66 4.68 8.32 4 9 C2.68 6.03 1.36 3.06 0 0 Z " fill="#F9E68A" transform="translate(42,188)"/>
<path d="M0 0 C0.66 0.33 1.32 0.66 2 1 C0.75 3.5 0.75 3.5 -1 6 C-2.32 6 -3.64 6 -5 6 C-5.33 6.99 -5.66 7.98 -6 9 C-6.33 8.34 -6.66 7.68 -7 7 C-4.66666667 4.66666667 -2.33333333 2.33333333 0 0 Z " fill="#FAE17D" transform="translate(44,111)"/>
<path d="M0 0 C-0.33 1.32 -0.66 2.64 -1 4 C-2.32 4 -3.64 4 -5 4 C-5.33 5.98 -5.66 7.96 -6 10 C-6.66 9.34 -7.32 8.68 -8 8 C-7.625 5.375 -7.625 5.375 -7 3 C-6.01 3 -5.02 3 -4 3 C-4 2.34 -4 1.68 -4 1 C-2 0 -2 0 0 0 Z " fill="#A7B4C8" transform="translate(162,91)"/>
<path d="M0 0 C2.631724 2.45627573 4.81527263 4.55352037 6 8 C5.625 10.25 5.625 10.25 5 12 C4.67 10.35 4.34 8.7 4 7 C3.01 7 2.02 7 1 7 C0.67 4.69 0.34 2.38 0 0 Z " fill="#F9DE89" transform="translate(109,219)"/>
<path d="M0 0 C0.66 0 1.32 0 2 0 C2 1.32 2 2.64 2 4 C1.01 4 0.02 4 -1 4 C-1.33 4.99 -1.66 5.98 -2 7 C-4.0625 7.6875 -4.0625 7.6875 -6 8 C-2.25 2.25 -2.25 2.25 0 0 Z " fill="#FAE27E" transform="translate(197,218)"/>
<path d="M0 0 C0.66 0.66 1.32 1.32 2 2 C2.66 1.67 3.32 1.34 4 1 C4.66 2.98 5.32 4.96 6 7 C5.34 7 4.68 7 4 7 C3.67 7.99 3.34 8.98 3 10 C0 3.375 0 3.375 0 0 Z " fill="#F7E082" transform="translate(35,171)"/>
<path d="M0 0 C3.465 1.485 3.465 1.485 7 3 C7 3.33 7 3.66 7 4 C5.35 4 3.7 4 2 4 C2.33 4.99 2.66 5.98 3 7 C2.01 7.495 2.01 7.495 1 8 C0.34 5.69 -0.32 3.38 -1 1 C-0.67 0.67 -0.34 0.34 0 0 Z " fill="#F7E598" transform="translate(5,147)"/>
<path d="M0 0 C1.45922693 0.11409593 2.91740598 0.24165544 4.375 0.375 C5.59316406 0.47941406 5.59316406 0.47941406 6.8359375 0.5859375 C9 1 9 1 11 3 C4.25 3.125 4.25 3.125 2 2 C1.67 2.99 1.34 3.98 1 5 C0.67 3.35 0.34 1.7 0 0 Z " fill="#F6E48A" transform="translate(216,4)"/>
<path d="M0 0 C1.65 0 3.3 0 5 0 C5 1.65 5 3.3 5 5 C3.35 4.67 1.7 4.34 0 4 C0 2.68 0 1.36 0 0 Z " fill="#FDDD58" transform="translate(43,202)"/>
<path d="M0 0 C-5.625 4.875 -5.625 4.875 -9 6 C-9.33 5.34 -9.66 4.68 -10 4 C-9.34 4 -8.68 4 -8 4 C-8 3.01 -8 2.02 -8 1 C-2.25 -1.125 -2.25 -1.125 0 0 Z " fill="#F7DA73" transform="translate(43,136)"/>
<path d="M0 0 C1.5 1.125 1.5 1.125 3 3 C3.1875 6.1875 3.1875 6.1875 3 9 C2.34 9 1.68 9 1 9 C0.01 6.69 -0.98 4.38 -2 2 C-1.34 2 -0.68 2 0 2 C0 1.34 0 0.68 0 0 Z " fill="#F7DD75" transform="translate(259,51)"/>
<path d="M0 0 C-1.27057182 0.47985967 -2.54146848 0.9588593 -3.8125 1.4375 C-4.87404297 1.83775391 -4.87404297 1.83775391 -5.95703125 2.24609375 C-9.88098997 3.69413205 -11.93062713 3.98984746 -16 3 C-11.08294543 0.13171817 -5.53605896 -1.7423757 0 0 Z " fill="#425D85" transform="translate(128,50)"/>
<path d="M0 0 C0.66 1.32 1.32 2.64 2 4 C0.68 5.65 -0.64 7.3 -2 9 C-2 8.01 -2 7.02 -2 6 C-2.66 5.67 -3.32 5.34 -4 5 C-2.68 3.35 -1.36 1.7 0 0 Z " fill="#FBDB7C" transform="translate(55,32)"/>
<path d="M0 0 C-1.65 0.33 -3.3 0.66 -5 1 C-5 1.66 -5 2.32 -5 3 C-5.66 3 -6.32 3 -7 3 C-7.33 3.66 -7.66 4.32 -8 5 C-8.66 3.68 -9.32 2.36 -10 1 C-3.71428571 -1.42857143 -3.71428571 -1.42857143 0 0 Z " fill="#F5E07D" transform="translate(119,266)"/>
<path d="M0 0 C1.65 0.33 3.3 0.66 5 1 C5.33 2.98 5.66 4.96 6 7 C5.34 7 4.68 7 4 7 C4 6.34 4 5.68 4 5 C1.525 4.01 1.525 4.01 -1 3 C-0.67 2.01 -0.34 1.02 0 0 Z " fill="#FBE24C" transform="translate(69,217)"/>
<path d="M0 0 C1 3 1 3 0.22265625 4.82421875 C-0.8515625 6.54947917 -1.92578125 8.27473958 -3 10 C-3.66 9.01 -4.32 8.02 -5 7 C-4.67 6.01 -4.34 5.02 -4 4 C-3.34 4 -2.68 4 -2 4 C-2 3.34 -2 2.68 -2 2 C-1.34 2 -0.68 2 0 2 C0 1.34 0 0.68 0 0 Z " fill="#F9DE77" transform="translate(295,159)"/>
<path d="M0 0 C0.66 0 1.32 0 2 0 C1.67 1.65 1.34 3.3 1 5 C-0.75 5.6875 -0.75 5.6875 -3 6 C-5.25 4.5625 -5.25 4.5625 -7 3 C-4.69 3 -2.38 3 0 3 C0 2.01 0 1.02 0 0 Z " fill="#F7E180" transform="translate(271,138)"/>
<path d="M0 0 C1 3 1 3 -0.1875 5.625 C-2 8 -2 8 -4.1875 8.8125 C-4.785625 8.874375 -5.38375 8.93625 -6 9 C-4.97407374 5.92222122 -4.24530756 5.15549526 -2 3 C-1.34 2.01 -0.68 1.02 0 0 Z " fill="#FADC6A" transform="translate(293,77)"/>
<path d="M0 0 C2.64 0.33 5.28 0.66 8 1 C8 1.33 8 1.66 8 2 C6.02 2.33 4.04 2.66 2 3 C2.33 4.65 2.66 6.3 3 8 C0.9375 5.6875 0.9375 5.6875 -1 3 C-0.67 2.01 -0.34 1.02 0 0 Z " fill="#F6E38D" transform="translate(239,59)"/>
<path d="M0 0 C0.66 0.99 1.32 1.98 2 3 C1.67 4.32 1.34 5.64 1 7 C-3.455 7.495 -3.455 7.495 -8 8 C-7.01 7.67 -6.02 7.34 -5 7 C-5 6.34 -5 5.68 -5 5 C-3.35 5.33 -1.7 5.66 0 6 C0 4.02 0 2.04 0 0 Z " fill="#F8DC76" transform="translate(251,46)"/>
<path d="M0 0 C0.66 0 1.32 0 2 0 C0.66511872 3.59391114 -0.96022723 6.75490696 -3 10 C-4.09658936 6.71023192 -3.79953138 5.28696233 -3 2 C-2.34 2 -1.68 2 -1 2 C-0.67 1.34 -0.34 0.68 0 0 Z " fill="#F7DF78" transform="translate(85,4)"/>
<path d="M0 0 C2.97 0 5.94 0 9 0 C9 0.66 9 1.32 9 2 C9.66 2.33 10.32 2.66 11 3 C10.443125 2.814375 9.88625 2.62875 9.3125 2.4375 C6.600867 1.92448835 4.65628961 2.3359276 2 3 C2 2.34 2 1.68 2 1 C1.34 0.67 0.68 0.34 0 0 Z " fill="#4D699A" transform="translate(172,154)"/>
<path d="M0 0 C3.86107457 2.57404971 3.94319692 4.61020259 5 9 C3.68 8.67 2.36 8.34 1 8 C0.67 5.36 0.34 2.72 0 0 Z " fill="#F8DE74" transform="translate(16,83)"/>
<path d="M0 0 C0.66 0 1.32 0 2 0 C2 0.66 2 1.32 2 2 C2.66 2.33 3.32 2.66 4 3 C1 5 1 5 -3 5 C-1.125 1.125 -1.125 1.125 0 0 Z " fill="#FBDA6D" transform="translate(220,226)"/>
<path d="M0 0 C1.98 0 3.96 0 6 0 C5.01 0.495 5.01 0.495 4 1 C4 1.99 4 2.98 4 4 C4.99 4.33 5.98 4.66 7 5 C6.67 5.66 6.34 6.32 6 7 C3.95880212 5.38405168 1.95927063 3.7143618 0 2 C0 1.34 0 0.68 0 0 Z " fill="#F6E175" transform="translate(36,219)"/>
<path d="M0 0 C0 0.33 0 0.66 0 1 C-4.95 1.66 -9.9 2.32 -15 3 C-14.67 2.01 -14.34 1.02 -14 0 C-9.02936879 -0.91297308 -4.97063121 -0.91297308 0 0 Z " fill="#415F86" transform="translate(125,158)"/>
<path d="M0 0 C0.66 0 1.32 0 2 0 C2 2.97 2 5.94 2 9 C1.01 9.495 1.01 9.495 0 10 C0.020625 9.2575 0.04125 8.515 0.0625 7.75 C0.10240811 5.05832211 0.10240811 5.05832211 -0.5625 2.75 C-0.706875 2.1725 -0.85125 1.595 -1 1 C-0.67 0.67 -0.34 0.34 0 0 Z " fill="#FAE059" transform="translate(274,148)"/>
<path d="M0 0 C0.33 0 0.66 0 1 0 C1 1.65 1 3.3 1 5 C0.34 5 -0.32 5 -1 5 C-1.28875 5.639375 -1.5775 6.27875 -1.875 6.9375 C-3 9 -3 9 -5 10 C-3.66654496 6.40992874 -2.1056769 3.20429093 0 0 Z " fill="#F7E280" transform="translate(44,143)"/>
<path d="M0 0 C0.93423645 3.01031744 1.04449911 3.86650268 0 7 C-3 8 -3 8 -5.1875 7.0625 C-5.785625 6.711875 -6.38375 6.36125 -7 6 C-5.35 6 -3.7 6 -2 6 C-1.855625 5.195625 -1.71125 4.39125 -1.5625 3.5625 C-1 1 -1 1 0 0 Z " fill="#FBDC73" transform="translate(24,137)"/>
<path d="M0 0 C0.66 0 1.32 0 2 0 C1.67 4.62 1.34 9.24 1 14 C0.67 14 0.34 14 0 14 C-0.19393875 11.85473901 -0.37998676 9.70876323 -0.5625 7.5625 C-0.71912109 5.77005859 -0.71912109 5.77005859 -0.87890625 3.94140625 C-0.91886719 2.97074219 -0.95882812 2.00007813 -1 1 C-0.67 0.67 -0.34 0.34 0 0 Z " fill="#F4DE8B" transform="translate(47,109)"/>
<path d="M0 0 C1.32 0.66 2.64 1.32 4 2 C3.67 3.98 3.34 5.96 3 8 C0.9375 6.25 0.9375 6.25 -1 4 C-0.75 1.75 -0.75 1.75 0 0 Z " fill="#FBDC78" transform="translate(10,98)"/>
<path d="M0 0 C-0.99 1.485 -0.99 1.485 -2 3 C-5.625 3.1875 -5.625 3.1875 -9 3 C-8.34 2.67 -7.68 2.34 -7 2 C-7 1.34 -7 0.68 -7 0 C-3.98968256 -0.93423645 -3.13349732 -1.04449911 0 0 Z " fill="#95A0B3" transform="translate(121,88)"/>
<path d="M0 0 C0.33 0 0.66 0 1 0 C1 1.98 1 3.96 1 6 C2.65 6.33 4.3 6.66 6 7 C6 7.33 6 7.66 6 8 C4.00045254 8.04254356 1.99958364 8.04080783 0 8 C-0.33 7.67 -0.66 7.34 -1 7 C-0.71269945 4.66055264 -0.38063221 2.3260857 0 0 Z " fill="#F4DF7D" transform="translate(38,71)"/>
<path d="M0 0 C0.99 0.66 1.98 1.32 3 2 C2.67 3.32 2.34 4.64 2 6 C0.68 6.33 -0.64 6.66 -2 7 C-2 5.02 -2 3.04 -2 1 C-1.34 0.67 -0.68 0.34 0 0 Z " fill="#FEE83C" transform="translate(34,67)"/>
<path d="M0 0 C3.875 1.75 3.875 1.75 5 4 C3.625 5.5 3.625 5.5 2 7 C1.34 7 0.68 7 0 7 C-0.93423645 3.98968256 -1.04449911 3.13349732 0 0 Z " fill="#FBDE71" transform="translate(258,65)"/>
<path d="M0 0 C0.66 0.33 1.32 0.66 2 1 C0.35 2.98 -1.3 4.96 -3 7 C-3.99 5.68 -4.98 4.36 -6 3 C-5.01 3 -4.02 3 -3 3 C-3 2.34 -3 1.68 -3 1 C-2.01 0.67 -1.02 0.34 0 0 Z " fill="#F8DB76" transform="translate(79,15)"/>
<path d="M0 0 C1.98 0.99 1.98 0.99 4 2 C3.34 2 2.68 2 2 2 C2 2.99 2 3.98 2 5 C2.66 5 3.32 5 4 5 C4 6.65 4 8.3 4 10 C1.16625119 6.79663178 0.4794463 4.21912747 0 0 Z " fill="#F8DD72" transform="translate(218,6)"/>
<path d="M0 0 C0.66 0.33 1.32 0.66 2 1 C2 1.66 2 2.32 2 3 C1.34 3 0.68 3 0 3 C-0.66 4.98 -1.32 6.96 -2 9 C-2.66 9 -3.32 9 -4 9 C-2.94124926 5.59687262 -1.99097846 2.98646769 0 0 Z " fill="#F2DD83" transform="translate(151,176)"/>
<path d="M0 0 C0.66 0 1.32 0 2 0 C2 2.97 2 5.94 2 9 C1.67 9 1.34 9 1 9 C0.67 7.35 0.34 5.7 0 4 C-1.32 4.33 -2.64 4.66 -4 5 C-2.71937515 3.2925002 -1.38232443 1.62626404 0 0 Z " fill="#F6DC7F" transform="translate(300,112)"/>
<path d="M0 0 C1.32 0.33 2.64 0.66 4 1 C1.60490662 3.89932357 -0.31245243 4.50168276 -4 5 C-4.33 4.34 -4.66 3.68 -5 3 C-3.68 3 -2.36 3 -1 3 C-0.67 2.01 -0.34 1.02 0 0 Z " fill="#F5DF77" transform="translate(286,108)"/>
<path d="M0 0 C2.875 -0.1875 2.875 -0.1875 6 0 C6.66 0.99 7.32 1.98 8 3 C6.35 3.33 4.7 3.66 3 4 C2.01 2.68 1.02 1.36 0 0 Z " fill="#F9DE6E" transform="translate(64,215)"/>
<path d="M0 0 C3 -0.3125 3 -0.3125 6 0 C6.66 0.66 7.32 1.32 8 2 C4.7 2.33 1.4 2.66 -2 3 C-1.34 2.01 -0.68 1.02 0 0 Z " fill="#8F9DAF" transform="translate(170,147)"/>
<path d="M0 0 C0 3.11468205 -0.47827708 5.93487783 -1 9 C-1 9.66 -1 10.32 -1 11 C-1.99 10.67 -2.98 10.34 -4 10 C-3.5205537 5.78087253 -2.83374881 3.20336822 0 0 Z " fill="#F4DF89" transform="translate(55,40)"/>
<path d="M0 0 C5.75 3.625 5.75 3.625 8 7 C6.68 7 5.36 7 4 7 C3.896875 6.360625 3.79375 5.72125 3.6875 5.0625 C3.460625 4.381875 3.23375 3.70125 3 3 C2.01 2.67 1.02 2.34 0 2 C0 1.34 0 0.68 0 0 Z " fill="#F6DE85" transform="translate(231,8)"/>
<path d="M0 0 C2.97 0 5.94 0 9 0 C7.02 0.99 7.02 0.99 5 2 C4.67 2.66 4.34 3.32 4 4 C3.01 4 2.02 4 1 4 C0.67 2.68 0.34 1.36 0 0 Z " fill="#FBDD56" transform="translate(164,261)"/>
<path d="M0 0 C3.63 0.66 7.26 1.32 11 2 C7 4 7 4 3.8125 3.25 C1 2 1 2 0 0 Z " fill="#F8DE7E" transform="translate(215,241)"/>
<path d="M0 0 C0.99 0 1.98 0 3 0 C3 1.32 3 2.64 3 4 C2.34 4 1.68 4 1 4 C1 4.66 1 5.32 1 6 C0.34 6 -0.32 6 -1 6 C-1.042721 4.33388095 -1.04063832 2.66617115 -1 1 C-0.67 0.67 -0.34 0.34 0 0 Z " fill="#FCDD51" transform="translate(79,218)"/>
<path d="M0 0 C2.49361571 1.20381448 4.68143083 2.45428722 7 4 C5.35 4.33 3.7 4.66 2 5 C1.34 3.35 0.68 1.7 0 0 Z " fill="#F9E27C" transform="translate(39,168)"/>
<path d="M0 0 C-4.625 4 -4.625 4 -8 4 C-7.25 2.0625 -7.25 2.0625 -6 0 C-3.40292416 -1.05506206 -2.5386068 -1.2693034 0 0 Z " fill="#A2B4CB" transform="translate(99,158)"/>
<path d="M0 0 C1.485 0.99 1.485 0.99 3 2 C3.1875 4.625 3.1875 4.625 3 7 C2.01 7 1.02 7 0 7 C-0.93423645 3.98968256 -1.04449911 3.13349732 0 0 Z " fill="#F7DB5B" transform="translate(29,149)"/>
<path d="M0 0 C0.33 0 0.66 0 1 0 C1 2.31 1 4.62 1 7 C0.01 7.495 0.01 7.495 -1 8 C-1 7.01 -1 6.02 -1 5 C-1.66 5 -2.32 5 -3 5 C-2 2 -2 2 0 0 Z " fill="#FAE382" transform="translate(277,143)"/>
<path d="M0 0 C0.66 0 1.32 0 2 0 C2.33 0.66 2.66 1.32 3 2 C5.52733235 2.65555119 5.52733235 2.65555119 8 3 C7.01 4.485 7.01 4.485 6 6 C3.37812506 4.95125002 2.20628639 4.35068687 0.75 1.875 C0.5025 1.25625 0.255 0.6375 0 0 Z " fill="#F3D972" transform="translate(37,42)"/>
<path d="M0 0 C2.475 0.99 2.475 0.99 5 2 C5 3.32 5 4.64 5 6 C1.83884224 4.63016497 1.0072908 4.0109362 -1 1 C-0.67 0.67 -0.34 0.34 0 0 Z " fill="#FADF6F" transform="translate(229,22)"/>
<path d="M0 0 C-0.99 0.33 -1.98 0.66 -3 1 C-3 1.66 -3 2.32 -3 3 C-4.65 3 -6.3 3 -8 3 C-7.67 2.01 -7.34 1.02 -7 0 C-4.3333581 -1.33332095 -2.83319697 -0.67102033 0 0 Z " fill="#FBDD58" transform="translate(172,252)"/>
<path d="M0 0 C6.75 0.75 6.75 0.75 9 3 C7.02 3.33 5.04 3.66 3 4 C2.01 2.68 1.02 1.36 0 0 Z " fill="#FCE68A" transform="translate(60,212)"/>
<path d="M0 0 C1.231394 2.46278801 1.07159196 4.2795055 1 7 C-0.65 7.33 -2.3 7.66 -4 8 C-2.87548273 5.0280615 -1.77706209 2.66559313 0 0 Z " fill="#F8E28A" transform="translate(225,200)"/>
<path d="M0 0 C0.33 0 0.66 0 1 0 C0.67 2.64 0.34 5.28 0 8 C-0.99 8.33 -1.98 8.66 -3 9 C-2.01 6.03 -1.02 3.06 0 0 Z " fill="#F8DC71" transform="translate(54,171)"/>
<path d="M0 0 C1.32 0.66 2.64 1.32 4 2 C2 4 2 4 -0.625 4.125 C-1.40875 4.08375 -2.1925 4.0425 -3 4 C-2.01 2.68 -1.02 1.36 0 0 Z " fill="#476485" transform="translate(94,167)"/>
<path d="M0 0 C0.99 0.33 1.98 0.66 3 1 C2.67 1.66 2.34 2.32 2 3 C1.34 3 0.68 3 0 3 C-0.33 4.32 -0.66 5.64 -1 7 C-1.33 5.02 -1.66 3.04 -2 1 C-1.34 0.67 -0.68 0.34 0 0 Z " fill="#F9DE73" transform="translate(255,162)"/>
<path d="M0 0 C2 2 2 2 2.375 4.4375 C2 7 2 7 0 8.8125 C-0.66 9.204375 -1.32 9.59625 -2 10 C-1.33333333 6.66666667 -0.66666667 3.33333333 0 0 Z " fill="#C7D1DE" transform="translate(154,109)"/>
<path d="M0 0 C3.3 0.33 6.6 0.66 10 1 C5.8204355 3.78637633 3.85331323 2.79562512 -1 2 C-0.67 1.34 -0.34 0.68 0 0 Z " fill="#425F87" transform="translate(113,66)"/>
<path d="M0 0 C8.03571429 0.80357143 8.03571429 0.80357143 12 3 C10.56344146 3.08131463 9.1255517 3.13933559 7.6875 3.1875 C6.48673828 3.23970703 6.48673828 3.23970703 5.26171875 3.29296875 C2.52148416 2.93801608 1.70828921 2.10633718 0 0 Z " fill="#435F8E" transform="translate(170,48)"/>
<path d="M0 0 C0.66 0 1.32 0 2 0 C1.625 2.9375 1.625 2.9375 1 6 C0.01 6.495 0.01 6.495 -1 7 C-1.625 4.625 -1.625 4.625 -2 2 C-1.34 1.34 -0.68 0.68 0 0 Z " fill="#F8DF69" transform="translate(51,38)"/>
<path d="" fill="#FFFF00" transform="translate(0,0)"/>
<path d="" fill="#868686" transform="translate(0,0)"/>
</svg>
