<?xml version="1.0" encoding="UTF-8"?>
<svg version="1.1" xmlns="http://www.w3.org/2000/svg" width="302" height="276">
<path d="M0 0 C-1.35431709 4.79442734 -3.46061479 8.58993596 -6.3125 12.625 C-6.69083984 13.18445312 -7.06917969 13.74390625 -7.45898438 14.3203125 C-11.09773577 19.54139742 -14.31622179 22.60908675 -20.44921875 24.29296875 C-25.74278774 25.93413936 -27.88724068 28.75657089 -30.8125 33.3125 C-31.31040039 34.05814209 -31.80830078 34.80378418 -32.32128906 35.57202148 C-33.92470998 38.0231444 -35.4701955 40.50232106 -37 43 C-37.52062012 43.84626953 -38.04124023 44.69253906 -38.57763672 45.56445312 C-57.23368347 76.45539565 -65.16231992 110.81548622 -56.46386719 146.1796875 C-52.66191968 160.73083718 -47.73440042 175.05447873 -40 188 C-39.85304687 187.27296875 -39.70609375 186.5459375 -39.5546875 185.796875 C-37.78304836 177.85504438 -34.90275531 171.12347571 -31 164 C-30.34 164 -29.68 164 -29 164 C-25.2679544 173.8799243 -22.19532883 185.16952274 -26.390625 195.38671875 C-28 198 -28 198 -30.1875 198.875 C-30.785625 198.91625 -31.38375 198.9575 -32 199 C-27.70219737 204.73040351 -22.69098157 211.08763079 -16 214 C-16.474375 213.0925 -16.94875 212.185 -17.4375 211.25 C-19.63939722 206.67005379 -20.15546229 203.14368147 -20.1875 198.0625 C-20.20167969 197.04285156 -20.21585937 196.02320313 -20.23046875 194.97265625 C-19.99444914 191.92840333 -19.28252995 189.75262357 -18 187 C-10.7828508 192.28831818 -4.35339559 200.58914345 -2.3125 209.4375 C-1.8039201 213.39026025 -2.14909319 216.39073172 -4 220 C-4.66 220.33 -5.32 220.66 -6 221 C0.27 224.3 6.54 227.6 13 231 C12.34 230.01 11.68 229.02 11 228 C7.02239484 221.16667831 4.9981343 214.83609912 4 207 C9.65281165 207 12.53521719 209.77766124 17 213 C18.36125 213.928125 18.36125 213.928125 19.75 214.875 C25.10423787 219.93178021 27.49878654 224.98058472 27.95703125 232.3125 C27.97121094 232.869375 27.98539062 233.42625 28 234 C26.02 234.99 26.02 234.99 24 236 C30.67434977 238.77170611 37.35838675 241.51229032 44.0703125 244.19140625 C47.91341235 245.7271069 51.70248231 247.29172646 55.4296875 249.08984375 C63.15624946 252.47129013 68.10034873 252.03000405 75.8125 249.25 C78.37153625 248.2435099 80.90179461 247.18933424 83.42626953 246.09912109 C86.8530536 244.63570031 90.32901848 243.3177585 93.8112793 241.99316406 C97.21974984 240.69242428 100.60963471 239.3471379 104 238 C102.68 237.34 101.36 236.68 100 236 C99.53978741 228.32979011 102.01058094 223.4932647 106.984375 217.87890625 C111.44167593 213.72394162 117.72477367 208 124 208 C123.13045636 217.56498007 120.42999225 225.83545566 114 233 C115.66289062 232.16855469 115.66289062 232.16855469 117.359375 231.3203125 C122.90625 228.546875 128.453125 225.7734375 134 223 C133.01 222.67 132.02 222.34 131 222 C129.50070363 214.34055117 130.04687422 208.79283887 134 202 C137.51948862 197.1234473 140.96393684 192.35737544 146 189 C149.40058449 194.10087674 148.54408126 200.04673872 148 206 C146.99228877 209.52698932 145.68088193 212.74329127 144 216 C149.91712679 211.84542161 155.01139933 207.22741666 160 202 C159.38769531 201.92265625 158.77539062 201.8453125 158.14453125 201.765625 C156 201 156 201 154.69921875 199.171875 C150.56275281 189.2699102 152.08942795 179.98549187 155.0859375 169.92578125 C156 168 156 168 159 166 C163.68517404 174.57475248 167 182.13820412 167 192 C169.3676836 187.31635404 171.71981943 182.62560742 174.04736328 177.921875 C174.77429048 176.45535246 175.50855126 174.99246271 176.24609375 173.53125 C190.24969751 144.2457052 191.18811442 109.52317276 181 79 C180.68204468 77.97543701 180.68204468 77.97543701 180.35766602 76.93017578 C178.53097378 71.14553881 176.16412191 65.78832645 173.4375 60.375 C172.78648315 59.07719604 172.78648315 59.07719604 172.12231445 57.75317383 C168.33047781 50.35305354 164.01674338 43.41181889 159.17382812 36.65722656 C158.33769732 35.47676568 157.52635283 34.27858209 156.73242188 33.06933594 C153.81623031 28.67521182 153.81623031 28.67521182 149.125 26.875 C148.09439453 26.68357422 148.09439453 26.68357422 147.04296875 26.48828125 C140.83028485 25.00341416 137.57280321 20.67577104 134.25 15.5 C133.1528796 13.67488382 132.06903657 11.84170656 131 10 C130.43796875 9.1440625 129.8759375 8.288125 129.296875 7.40625 C128 5 128 5 128 1 C137.80838751 2.74019778 146.25045159 5.8410582 152.69140625 13.76953125 C154.52353376 16.89235157 154.79990995 19.8446745 155.2734375 23.390625 C156.6788213 28.43791736 160.41122918 32.29291805 164 36 C164.33 36 164.66 36 165 36 C164.97679687 34.80503906 164.95359375 33.61007813 164.9296875 32.37890625 C164.7189054 16.69869427 164.7189054 16.69869427 167 9 C167.66 9 168.32 9 169 9 C175.81416256 17.97925362 180.79891455 26.81789262 180.390625 38.25 C179.820158 42.26608765 178.82520914 44.09631283 176 47 C174.68 47.33 173.36 47.66 172 48 C174.97 54.27 177.94 60.54 181 67 C182.46786904 62.59639289 183.51493326 58.69526158 184.375 54.1875 C185.57827375 48.36859156 187.25681511 43.26357304 190 38 C195.59837165 42.87858101 197.11126937 51.03394374 197.9375 58.125 C198.25491789 64.24322978 197.69052711 69.87693584 193.56640625 74.6640625 C190.96939692 76.98258953 189.53247137 78 186 78 C187.65 84.27 189.3 90.54 191 97 C192.70307878 94.44538182 194.03757083 91.92275128 195.36108398 89.16259766 C198.35216316 82.93727549 201.5062217 77.30035389 206 72 C209.80875147 75.80875147 209.18076117 81.67151667 209.25 86.8125 C209.17933446 94.26378848 208.18445802 100.33463204 203.75 106.4375 C200.42515566 109.53565041 198.38846565 110.13951654 194 111 C193.67 110.67 193.34 110.34 193 110 C193 116.6 193 123.2 193 130 C194.27875 128.370625 195.5575 126.74125 196.875 125.0625 C201.41970064 119.50226403 206.27649923 114.38188622 212 110 C212.66 110 213.32 110 214 110 C214.5733823 121.46764605 212.20404922 131.79131781 204.625 140.59765625 C201.79222888 143.36114764 199.53605763 144.30627576 195.6875 144.375 C192 144 192 144 191 143 C189.831183 146.19476648 188.98230063 149.12389561 188.5 152.5 C188.01769937 155.87610439 187.168817 158.80523352 186 162 C186.33 162.33 186.66 162.66 187 163 C187.53367187 162.49210938 188.06734375 161.98421875 188.6171875 161.4609375 C202.6548913 148.49184783 202.6548913 148.49184783 212 148 C208.72652244 159.01804643 204.59289207 170.16785405 194.0625 175.9375 C190.78777726 177.46017287 189.17156077 178.00306359 185.5 177.9375 C183 177 183 177 181 175 C180.68772461 175.59949463 180.37544922 176.19898926 180.05371094 176.81665039 C178.62055541 179.56600705 177.18529391 182.31425911 175.75 185.0625 C175.25886719 186.00544922 174.76773437 186.94839844 174.26171875 187.91992188 C172.85118813 190.61873712 171.42962567 193.31125684 170 196 C169.62963623 196.70189453 169.25927246 197.40378906 168.87768555 198.12695312 C167.05239721 201.47383157 165.30287525 204.00526867 162.3125 206.375 C157.57354409 210.29443722 153.30280628 214.61245574 149 219 C148.67 219.33 148.34 219.66 148 220 C148.86061035 219.83701416 149.7212207 219.67402832 150.60791016 219.50610352 C153.89542393 219.01560286 156.95318852 218.88590687 160.2734375 218.90234375 C161.42714844 218.90556641 162.58085937 218.90878906 163.76953125 218.91210938 C164.95933594 218.92048828 166.14914063 218.92886719 167.375 218.9375 C169.19451172 218.94426758 169.19451172 218.94426758 171.05078125 218.95117188 C174.03390507 218.96291646 177.01692679 218.9793416 180 219 C176.12044165 227.1862144 167.16965259 230.99328035 159 234 C152.92610927 235.78708337 147.58812872 234.77706194 142 232 C139.875 230 139.875 230 139 228 C139.33 227.01 139.66 226.02 140 225 C138.91460937 225.61488281 137.82921875 226.22976562 136.7109375 226.86328125 C135.26566845 227.67976442 133.82035351 228.49616636 132.375 229.3125 C131.66214844 229.71662109 130.94929687 230.12074219 130.21484375 230.53710938 C126.19392107 232.80579511 122.15205492 234.9763644 118 237 C119.08796875 237.15855469 120.1759375 237.31710938 121.296875 237.48046875 C130.53752785 238.9167796 138.53918744 240.87555766 147 245 C147 245.66 147 246.32 147 247 C144.96123051 247.81974263 142.91883925 248.6304807 140.875 249.4375 C139.73804688 249.88996094 138.60109375 250.34242188 137.4296875 250.80859375 C129.05469801 253.71790103 120.28684386 254.19407528 111.88671875 251.2421875 C108.9739035 249.32443336 107.15216096 246.73372597 105 244 C104.40050537 244.26216309 103.80101074 244.52432617 103.18334961 244.79443359 C100.43669122 245.99250336 97.68714137 247.18379324 94.9375 248.375 C93.52307617 248.99375 93.52307617 248.99375 92.08007812 249.625 C87.10317149 251.77530112 82.25901474 253.67248172 77 255 C77 255.66 77 256.32 77 257 C78.051875 257.10183594 79.10375 257.20367187 80.1875 257.30859375 C86.23174852 258.06412482 92.09412771 259.60463576 98 261.0625 C99.15628906 261.34416016 100.31257812 261.62582031 101.50390625 261.91601562 C104.33693276 262.60671217 107.16889673 263.3014699 110 264 C110.36219017 268.46701209 110.36219017 268.46701209 108.78491211 270.78808594 C105.24457467 273.19189322 101.09376755 272.45639731 97 272 C93.53537689 271.17790859 90.26249124 270.01592518 86.9375 268.75 C86.10412109 268.44964844 85.27074219 268.14929688 84.41210938 267.83984375 C79.49230008 266.04038043 74.78012354 264.01704688 70.10766602 261.64550781 C65.67397392 260.28761578 61.36473026 262.49668934 57.18359375 264.03125 C56.08982422 264.42957031 54.99605469 264.82789063 53.86914062 265.23828125 C52.17047852 265.86283203 52.17047852 265.86283203 50.4375 266.5 C48.18684571 267.32468671 45.93556853 268.14767601 43.68359375 268.96875 C42.68900146 269.33419922 41.69440918 269.69964844 40.66967773 270.07617188 C35.86849867 271.73759497 31.09849239 272.94902631 26 272 C23 269.5 23 269.5 21 267 C21.33 266.01 21.66 265.02 22 264 C24.38916016 263.14038086 24.38916016 263.14038086 27.5390625 262.46484375 C29.24642578 262.08682617 29.24642578 262.08682617 30.98828125 261.70117188 C32.78845703 261.3231543 32.78845703 261.3231543 34.625 260.9375 C36.97168389 260.42729545 39.31804788 259.91561692 41.6640625 259.40234375 C43.31583496 259.04438721 43.31583496 259.04438721 45.00097656 258.67919922 C48.38339766 257.9131706 51.68521836 257.01582018 55 256 C51.48949538 253.12370869 47.60670826 251.13172691 43.5625 249.125 C42.86253906 248.77566406 42.16257813 248.42632812 41.44140625 248.06640625 C35.10670679 244.95643605 28.64990081 242.36845782 22 240 C21.87753906 240.77988281 21.75507812 241.55976563 21.62890625 242.36328125 C20.73778693 246.09934049 19.2379434 247.00212003 16 249 C5.85689428 252.8361746 -4.76933545 251.09410339 -14.546875 246.91015625 C-16.391019 245.99135401 -18.20055997 245.00353386 -20 244 C-18.21334557 240.42669113 -13.99364313 240.04007352 -10.37084961 238.83129883 C-3.35013692 236.60808694 3.68233326 235.69543783 11 235 C10.030625 234.53851563 9.06125 234.07703125 8.0625 233.6015625 C-22.87271355 218.65214003 -40.62815832 200.69167371 -54 169 C-54.495 171.97 -54.495 171.97 -55 175 C-59.03847341 176.61538936 -62.03350651 175.43614419 -66 174 C-74.85627796 169.30075047 -79.86736501 160.27315401 -83 151 C-83.1328125 148.16796875 -83.1328125 148.16796875 -83 146 C-72.58978361 147.49518368 -64.30495687 156.011961 -57 163 C-57.15146484 162.37432129 -57.30292969 161.74864258 -57.45898438 161.10400391 C-58.1416655 158.2782292 -58.82087432 155.4516312 -59.5 152.625 C-59.73847656 151.64015625 -59.97695313 150.6553125 -60.22265625 149.640625 C-60.56103516 148.22910156 -60.56103516 148.22910156 -60.90625 146.7890625 C-61.11572266 145.91975098 -61.32519531 145.05043945 -61.54101562 144.15478516 C-62 142 -62 142 -62 140 C-62.66 140 -63.32 140 -64 140 C-64.33 140.99 -64.66 141.98 -65 143 C-70.64566674 142.46231745 -74.45737744 140.70063865 -78.3828125 136.53125 C-84.93294803 128.21610789 -85.53527276 118.22399936 -86 108 C-81.68831601 108.48582355 -79.58919758 111.01089319 -76.625 114 C-75.70976563 114.9075 -74.79453125 115.815 -73.8515625 116.75 C-71 120 -71 120 -65 129 C-65 121.74 -65 114.48 -65 107 C-65.33 107.66 -65.66 108.32 -66 109 C-70.53325401 108.72525733 -73.18421115 106.75926717 -76.421875 103.7890625 C-81.38357009 98.16417054 -82.03812816 90.23481758 -82 83 C-81.53105121 78.95297195 -80.8415612 74.98524438 -80 71 C-78.515 70.505 -78.515 70.505 -77 70 C-75.41373859 72.83170323 -73.83154407 75.66565978 -72.25 78.5 C-71.8065625 79.29148437 -71.363125 80.08296875 -70.90625 80.8984375 C-70.24882813 82.07792969 -70.24882813 82.07792969 -69.578125 83.28125 C-68.98112793 84.34956055 -68.98112793 84.34956055 -68.37207031 85.43945312 C-66.50668111 88.92062786 -64.76625335 92.46749331 -63 96 C-60.03 84.615 -60.03 84.615 -57 73 C-57.99 73.99 -58.98 74.98 -60 76 C-64.88765533 74.64231796 -66.52591098 72.32965579 -69 68 C-72.04165921 58.87502237 -69.85585873 48.56857495 -66 40 C-63.859375 37.625 -63.859375 37.625 -62 36 C-57.33659718 45.42602699 -55.85660984 55.74685723 -54 66 C-52.68253667 63.41909233 -51.37090383 60.83549542 -50.0625 58.25 C-49.68931641 57.52039062 -49.31613281 56.79078125 -48.93164062 56.0390625 C-48.57392578 55.33007812 -48.21621094 54.62109375 -47.84765625 53.890625 C-47.51773682 53.24125977 -47.18781738 52.59189453 -46.84790039 51.92285156 C-45.98547884 49.96706921 -45.45625821 48.08459306 -45 46 C-45.598125 45.7525 -46.19625 45.505 -46.8125 45.25 C-49.46807354 43.7325294 -50.51460751 42.68785308 -52 40 C-54.35020239 31.38259122 -51.29036803 23.45349339 -47.3125 15.71875 C-44.01680837 10.20698986 -44.01680837 10.20698986 -42 8 C-40.68 8 -39.36 8 -38 8 C-36.6699897 16.97756951 -36.91211961 25.94831966 -37 35 C-31.77732481 29.29149456 -28.61602672 25.07033019 -27.51953125 17.3828125 C-26.32692581 11.91296801 -22.96013656 8.34665871 -18.44140625 5.2421875 C-4.97756617 -2.48878309 -4.97756617 -2.48878309 0 0 Z M-39 37 C-38 39 -38 39 -38 39 Z M166 39 C167 41 167 41 167 41 Z M182 69 C182 69.99 182 70.98 182 72 C182.66 71.67 183.32 71.34 184 71 C183.34 70.34 182.68 69.68 182 69 Z M184 74 C184.33 75.32 184.66 76.64 185 78 C185.33 77.34 185.66 76.68 186 76 C185.34 75.34 184.68 74.68 184 74 Z " fill="#FBDC61" transform="translate(86,4)"/>
<path d="M0 0 C1.20521805 0.30932968 2.4104361 0.61865936 3.6521759 0.93736267 C7.46424056 1.91770334 11.2731237 2.90981574 15.08203125 3.90234375 C17.68119149 4.57401226 20.28101507 5.24309429 22.88085938 5.91210938 C29.22109251 7.54572876 35.5587628 9.18899851 41.89453125 10.83984375 C42.38953125 12.81984375 42.38953125 12.81984375 42.89453125 14.83984375 C38.27453125 16.15984375 33.65453125 17.47984375 28.89453125 18.83984375 C28.86735688 22.17323289 28.84760811 25.50639654 28.83203125 28.83984375 C28.81946289 30.24169922 28.81946289 30.24169922 28.80664062 31.671875 C28.78744233 37.16258776 29.08111195 42.40850856 29.89453125 47.83984375 C26.21475044 47.35566206 22.93734296 46.50910683 19.45703125 45.27734375 C9.97558143 42.3698901 -1.09763645 42.41707924 -10.10546875 46.83984375 C-11.09546875 47.49984375 -12.08546875 48.15984375 -13.10546875 48.83984375 C-13.55984901 51.41915901 -13.82750494 53.80194929 -13.984375 56.40234375 C-14.07077492 57.52298218 -14.07077492 57.52298218 -14.15892029 58.66625977 C-14.34193156 61.05668753 -14.50640779 63.44787734 -14.66796875 65.83984375 C-14.83479617 68.23159691 -15.00573062 70.62277922 -15.18772888 73.01342773 C-15.30057829 74.50184807 -15.40441244 75.99098436 -15.49842834 77.48071289 C-15.88102116 82.61539616 -15.88102116 82.61539616 -18.10546875 84.83984375 C-20.10546875 82.83984375 -20.10546875 82.83984375 -20.31396484 80.47436523 C-20.29414551 79.50055908 -20.27432617 78.52675293 -20.25390625 77.5234375 C-20.23424805 76.44433105 -20.21458984 75.36522461 -20.19433594 74.25341797 C-20.16500977 73.12693848 -20.13568359 72.00045898 -20.10546875 70.83984375 C-20.0885498 69.23326904 -20.0885498 69.23326904 -20.07128906 67.59423828 C-20.01926519 64.35845145 -19.88244889 61.13484437 -19.73046875 57.90234375 C-19.71886719 56.80599609 -19.70726562 55.70964844 -19.6953125 54.58007812 C-19.5192415 51.36971682 -19.27793861 48.83736304 -18.10546875 45.83984375 C-15.03384447 43.31831088 -11.86990194 42.03182577 -8.10546875 40.83984375 C-7.11546875 40.50984375 -6.12546875 40.17984375 -5.10546875 39.83984375 C-2.08928333 39.58750728 0.93137182 39.60850626 3.95703125 39.58984375 C4.76591797 39.56921875 5.57480469 39.54859375 6.40820312 39.52734375 C13.14776302 39.48451891 16.99705021 40.77059944 23.89453125 42.83984375 C23.89453125 35.24984375 23.89453125 27.65984375 23.89453125 19.83984375 C20.92453125 20.49984375 17.95453125 21.15984375 14.89453125 21.83984375 C13.95128867 26.15180984 13.4141141 30.46050256 12.89453125 34.83984375 C8.67261679 34.37927126 4.59151587 33.81523273 0.45703125 32.83984375 C-16.90580662 28.87626577 -34.94384294 30.95811787 -52.19921875 34.5703125 C-53.1428125 34.70373047 -53.1428125 34.70373047 -54.10546875 34.83984375 C-55.10546875 33.83984375 -55.10546875 33.83984375 -55.203125 31.7734375 C-55.19152344 30.94972656 -55.17992188 30.12601563 -55.16796875 29.27734375 C-55.15894531 28.45105469 -55.14992188 27.62476562 -55.140625 26.7734375 C-55.12902344 26.13535156 -55.11742188 25.49726562 -55.10546875 24.83984375 C-50.47780956 22.2946312 -46.21578315 20.98525905 -41.10546875 19.83984375 C-42.74750439 20.21122003 -44.39445276 20.56088159 -46.04296875 20.90234375 C-47.41775391 21.19818359 -47.41775391 21.19818359 -48.8203125 21.5 C-57.20778199 22.36766926 -65.13423998 19.96190974 -73.16796875 17.77734375 C-74.22435547 17.49568359 -75.28074219 17.21402344 -76.36914062 16.92382812 C-78.9495279 16.23494646 -81.52817289 15.54018546 -84.10546875 14.83984375 C-84.10546875 13.51984375 -84.10546875 12.19984375 -84.10546875 10.83984375 C-76.47777832 8.84558208 -68.84535109 6.87106737 -61.20631695 4.92076015 C-57.65837335 4.01430135 -54.11235622 3.10143217 -50.57006836 2.1730957 C-47.14398133 1.2754774 -43.71372617 0.39576844 -40.28003883 -0.47230339 C-38.35013288 -0.9649614 -36.42482087 -1.47550571 -34.49967957 -1.98646545 C-21.98725403 -5.11752418 -12.30156765 -3.23100895 0 0 Z " fill="#D8D8D8" transform="translate(170.10546875,49.16015625)"/>
<path d="M0 0 C8.71041884 -0.37937364 16.10228932 2.02233384 23.04296875 7.26171875 C25.73715808 8.53350999 27.11143106 8.03617565 29.9296875 7.15234375 C32.97689707 5.70871284 35.92394987 4.12187518 38.89453125 2.52734375 C48.5347743 -1.83992208 59.20035234 0.00817442 68.9296875 3.15234375 C75.35515888 6.07879606 81.71311863 9.3289354 86.9296875 14.15234375 C86.9296875 15.14234375 86.9296875 16.13234375 86.9296875 17.15234375 C82.19296464 15.36490116 77.75144712 13.06888342 73.27734375 10.71875 C63.53355382 5.72907296 53.42356763 4.56328001 42.6875 6.83984375 C38.23129962 8.28901461 34.99527251 9.56951513 32.1796875 13.40234375 C29.9296875 16.15234375 29.9296875 16.15234375 26.3671875 16.90234375 C25.2328125 16.65484375 24.0984375 16.40734375 22.9296875 16.15234375 C22.0634375 14.79109375 22.0634375 14.79109375 21.1796875 13.40234375 C17.76658751 8.47231043 13.67196759 7.37791432 7.9296875 6.15234375 C-5.56357107 4.73047349 -16.28721693 7.33108793 -26.9140625 15.76171875 C-29.0703125 17.15234375 -29.0703125 17.15234375 -33.0703125 17.15234375 C-32.74678375 14.2532724 -32.26152102 13.31270061 -29.98828125 11.40625 C-20.43963551 5.49128061 -11.31296704 0.83246361 0 0 Z " fill="#CFD0D2" transform="translate(123.0703125,155.84765625)"/>
<path d="M0 0 C-4.8775198 10.06108006 -11.21147016 20.64673357 -22 25 C-27.20980923 26.07593886 -31.28455272 26.79674804 -36 24 C-35.62096061 18.69344847 -33.89744465 15.49636533 -30 12 C-24.00484529 7.33710189 -17.55118922 4.19526989 -10.5 1.5 C-9.80543701 1.23251953 -9.11087402 0.96503906 -8.39526367 0.68945312 C-3.38161097 -1.12720366 -3.38161097 -1.12720366 0 0 Z " fill="#FCDC63" transform="translate(288,188)"/>
<path d="M0 0 C11.62151891 1.66021699 25.32037204 7.88857699 33 17 C34.54878728 19.4049492 35.10039827 20.39761038 34.625 23.25 C34.41875 23.8275 34.2125 24.405 34 25 C28.51400048 26.89516347 24.82177444 27.44967474 19.359375 25.29296875 C10.78986529 20.59676392 4.17034311 12.7687678 0 4 C0 2.68 0 1.36 0 0 Z " fill="#FCDC5F" transform="translate(13,185)"/>
<path d="M0 0 C23.11092242 0.02408528 23.11092242 0.02408528 30.7644043 5.19018555 C33.1394043 7.87768555 33.1394043 7.87768555 34.7644043 10.19018555 C30.37185905 14.69832409 28.54707289 16.34885732 22.2644043 16.50268555 C11.16745544 16.35719516 3.10177632 11.23931779 -5.2355957 4.19018555 C-5.8955957 3.20018555 -6.5555957 2.21018555 -7.2355957 1.19018555 C-5.32764602 -0.71776413 -2.53860688 0.02346503 0 0 Z " fill="#FCDC60" transform="translate(40.235595703125,219.809814453125)"/>
<path d="M0 0 C0.99 0 1.98 0 3 0 C9.79326801 7.673305 14.28203111 16.63120922 14 27 C13.37293917 29.86582346 12.57901353 31.44090911 11 34 C9.125 35.1875 9.125 35.1875 7 35 C2.47508811 32.35127109 0.34122832 28.96716973 -1 24 C-2.59577311 15.75737028 -1.57304028 8.17720938 0 0 Z " fill="#FCDD67" transform="translate(251,142)"/>
<path d="M0 0 C0.66 0.33 1.32 0.66 2 1 C4.23831711 10.45545499 4.66792796 23.26259638 0 32 C-1.875 34.625 -1.875 34.625 -4 36 C-6.5625 36.125 -6.5625 36.125 -9 35 C-12.14122828 30.55895312 -12.68113843 26.29341864 -12 21 C-10.49607399 12.97906127 -5.73690171 5.73690171 0 0 Z " fill="#FCDC62" transform="translate(47,139)"/>
<path d="M0 0 C0.66 0.33 1.32 0.66 2 1 C2.5559082 3.32617188 2.5559082 3.32617188 2.98828125 6.46875 C3.15279785 7.64824219 3.31731445 8.82773438 3.48681641 10.04296875 C3.65616699 11.34878906 3.82551758 12.65460938 4 14 C4.0895697 14.68078613 4.1791394 15.36157227 4.27142334 16.06298828 C4.84637031 20.44966765 5.39047769 24.83941636 5.91479492 29.23242188 C6.09837335 30.75890031 6.28561773 32.28494184 6.47631836 33.81054688 C6.75623998 36.04991982 7.02579387 38.29032483 7.29296875 40.53125 C7.42254219 41.54693054 7.42254219 41.54693054 7.55473328 42.58312988 C7.98260201 46.28904549 7.96663565 49.38845144 7 53 C4.62732611 51.62231838 2.30174863 50.21043792 0.05078125 48.640625 C-11.0192694 40.92935094 -23.22962913 35.7481481 -37 37 C-39.81205041 37.66934146 -42.58031735 38.42424884 -45.3515625 39.24609375 C-47.88797736 39.96811155 -50.4084332 40.5181744 -53 41 C-47.87768881 35.39489626 -41.96311919 33.4831991 -34.5078125 32.57421875 C-20.01058388 32.03785194 -8.39081203 36.96530786 4 44 C3.87882812 43.12899658 3.75765625 42.25799316 3.6328125 41.3605957 C3.17856191 38.06443986 2.73228777 34.76739136 2.29101562 31.46948242 C2.1000888 30.05434943 1.90617864 28.63961506 1.70898438 27.2253418 C0.44158725 18.11754155 -0.28544849 9.21661629 0 0 Z " fill="#CECFD1" transform="translate(206,116)"/>
<path d="M0 0 C6.80661711 1.21006526 11.56496892 7.05328209 15.4375 12.4375 C18.14237797 16.79043203 19.08291224 19.85944111 19 25 C18.22591165 27.54481544 17.23803556 29.62297173 16 32 C11.11929436 31.5816538 9.11889244 29.67869365 6 26 C0.47164299 17.78644101 -0.36632803 9.74839599 0 0 Z " fill="#FCDC5E" transform="translate(253,114)"/>
<path d="M0 0 C8.67476767 2.33788065 16.99950976 6.19923523 22 14 C24.12712905 18.04154519 24.34250483 21.46181097 24 26 C23.34 26.66 22.68 27.32 22 28 C16.56132198 27.87351912 12.79363572 25.72512763 9 22 C4.19842357 15.63991667 1.43352296 8.52960634 -1 1 C-0.67 0.67 -0.34 0.34 0 0 Z " fill="#FCDC61" transform="translate(248,86)"/>
<path d="M0 0 C-0.49611792 11.87261505 -1.01550619 21.42216236 -9.18359375 30.50390625 C-11.16757155 32.1380213 -12.45442051 32.72537317 -15 33 C-16.9581636 31.47698387 -17.89113011 30.21773977 -19 28 C-19.7869893 20.2875049 -16.97619459 14.15562872 -12.1875 8.25 C-4.62980769 0 -4.62980769 0 0 0 Z " fill="#FDDC59" transform="translate(47,111)"/>
<path d="M0 0 C0 3 0 3 -1.90625 5.12109375 C-9.88183415 12.24386695 -16.83751465 17.56951456 -28 17 C-30.296875 16.0078125 -30.296875 16.0078125 -32 15 C-31.54451813 10.10356985 -30.59042714 7.41090579 -27 4 C-17.91220041 -1.14860129 -10.17339297 -1.07001706 0 0 Z " fill="#FBDD5E" transform="translate(81,37)"/>
<path d="M0 0 C9.69740026 1.00421301 18.09142655 2.53464071 25 9.875 C27.25501451 13.39846018 27.84013331 15.843466 28 20 C27.67 20.66 27.34 21.32 27 22 C19.28866334 22.39886224 15.02954031 20.79684067 9 15.875 C4.93607785 12.19476221 1.31961383 8.00803654 -1 3 C-0.67 2.01 -0.34 1.02 0 0 Z " fill="#FBDC66" transform="translate(237,61)"/>
<path d="M0 0 C6.56634237 0.12044154 11.90588464 1.04319723 17.08349609 5.38500977 C19.5619256 8.23934503 21.12378437 10.8540552 21.02099609 14.76000977 C20.08349609 16.38500977 20.08349609 16.38500977 17.08349609 17.38500977 C9.48291709 18.16057905 3.25635173 15.84341819 -2.70947266 11.22094727 C-6.20358537 8.12515332 -9.32015197 5.27953767 -11.91650391 1.38500977 C-9.55333276 -0.97816138 -3.29906096 0.01332101 0 0 Z " fill="#FCDC63" transform="translate(229.91650390625,38.614990234375)"/>
<path d="M0 0 C-0.93053756 8.84010681 -4.65089258 17.69437961 -11 24 C-14.21695839 26.25435501 -17.16287135 28.2403412 -21.1796875 27.71484375 C-23 27 -23 27 -24 25 C-24.55687348 19.31989053 -23.46895514 15.47040946 -20 11 C-15.33987892 5.82068065 -7.17976037 0 0 0 Z " fill="#FBDD64" transform="translate(52,84)"/>
<path d="M0 0 C-4.01388562 8.45917015 -10.50386288 16.47177693 -19.125 20.4375 C-22.17738664 21.03470608 -24.8979349 21.21642315 -28 21 C-28.33 20.67 -28.66 20.34 -29 20 C-28.70552258 14.2086107 -28.08659541 10.37170671 -24 6 C-16.38521817 1.27396534 -9.00765699 -2.45663372 0 0 Z " fill="#FCDC61" transform="translate(64,60)"/>
<path d="M0 0 C2.64107354 2.46741391 3.79641403 4.57440916 5 8 C7.64 8.33 10.28 8.66 13 9 C13 10.32 13 11.64 13 13 C12.154375 13.721875 11.30875 14.44375 10.4375 15.1875 C7.7756519 17.67295685 7.7756519 17.67295685 7.890625 20.3203125 C8.15988083 22.58064434 8.51094029 24.77744153 9 27 C8.443125 26.66484375 7.88625 26.3296875 7.3125 25.984375 C2.69775346 23.40091203 2.69775346 23.40091203 -2.37890625 23.625 C-4.35512837 24.64316095 -6.18690164 25.71551615 -8 27 C-9.04115446 23.87653662 -8.92895544 23.11194642 -8.25 20.0625 C-7.86319294 17.97868052 -7.86319294 17.97868052 -8 16 C-10.28075185 13.43965247 -10.28075185 13.43965247 -13 12 C-12.67 11.01 -12.34 10.02 -12 9 C-10.7625 9 -9.525 9 -8.25 9 C-6.032274 8.84124543 -6.032274 8.84124543 -4 8 C-2.10111729 5.53249582 -1.01456487 2.93022354 0 0 Z " fill="#FBDC61" transform="translate(149,178)"/>
<path d="M0 0 C0.33 0 0.66 0 1 0 C1.21836956 9.54659128 0.56486422 18.82945238 -0.5 28.3125 C-0.64516481 29.65032203 -0.7896991 30.98821263 -0.93359375 32.32617188 C-1.28290797 35.55150651 -1.63846766 38.77601609 -2 42 C-0.97261719 41.45730469 0.05476563 40.91460937 1.11328125 40.35546875 C14.70492381 33.28392988 27.59792621 28.10370732 43.26171875 31.76171875 C48.23289515 33.44090117 51.4246648 35.08767918 55 39 C54.45214844 38.79503906 53.90429688 38.59007812 53.33984375 38.37890625 C39.9013457 33.81200204 26.00513224 33.59752349 13.1015625 39.80859375 C6.73891385 43.04089709 0.63412601 46.60263336 -5 51 C-5.33 50.67 -5.66 50.34 -6 50 C-5.94558053 48.3873761 -5.81485337 46.77721233 -5.65234375 45.171875 C-5.50128174 43.67430664 -5.50128174 43.67430664 -5.34716797 42.14648438 C-4.79861036 37.17474708 -4.19598799 32.21158427 -3.5625 27.25 C-3.43125732 26.21101563 -3.30001465 25.17203125 -3.16479492 24.1015625 C-2.1456229 16.06288215 -1.09367826 8.02888514 0 0 Z " fill="#CECFD1" transform="translate(92,118)"/>
<path d="M0 0 C2.80689132 2.36037969 2.98878305 2.9366534 3.67578125 6.81640625 C4.18741379 13.17894993 4.18408313 19.55819903 4.1875 25.9375 C4.19974609 27.16791016 4.21199219 28.39832031 4.22460938 29.66601562 C4.22654297 30.83712891 4.22847656 32.00824219 4.23046875 33.21484375 C4.23457764 34.27823975 4.23868652 35.34163574 4.24291992 36.43725586 C4 39 4 39 2 41 C0.13565806 39.13565806 0.64816149 36.01915729 0.5 33.515625 C0.45939453 32.86301697 0.41878906 32.21040894 0.37695312 31.5380249 C0.24690166 29.44225807 0.12291031 27.34619695 0 25.25 C-0.1233137 23.16811799 -0.24803815 21.08636482 -0.37695312 19.00482178 C-0.4944517 17.10531978 -0.60673037 15.20549704 -0.71875 13.30566406 C-0.96260531 10.43951746 -1.23832381 7.77271599 -2 5 C-3.91311893 3.57025884 -3.91311893 3.57025884 -6.3125 2.75 C-7.09238281 2.43546875 -7.87226563 2.1209375 -8.67578125 1.796875 C-21.43699062 -2.57839678 -35.10433643 0.3225242 -47 6 C-47 5.34 -47 4.68 -47 4 C-44.75243216 2.84917315 -42.50218252 1.70423142 -40.25 0.5625 C-39.29867187 0.07426758 -39.29867187 0.07426758 -38.328125 -0.42382812 C-27.0640509 -6.11453223 -11.15153856 -6.30304354 0 0 Z " fill="#D4D6D7" transform="translate(145,93)"/>
<path d="M0 0 C0.556875 0.226875 1.11375 0.45375 1.6875 0.6875 C1.0275 0.6875 0.3675 0.6875 -0.3125 0.6875 C-2.31146485 4.90964624 -2.7769404 8.94425091 -3.09375 13.54296875 C-3.21483002 15.06705838 -3.33592419 16.59114689 -3.45703125 18.11523438 C-3.63704305 20.50495263 -3.8139621 22.89487933 -3.98974609 25.28491211 C-4.16279922 27.60074219 -4.34662884 29.91553681 -4.53125 32.23046875 C-4.58027466 32.9481694 -4.62929932 33.66587006 -4.67980957 34.40531921 C-5.08661555 39.46161555 -5.08661555 39.46161555 -7.3125 41.6875 C-9.3125 39.6875 -9.3125 39.6875 -9.53198242 37.32641602 C-9.51498291 36.35373779 -9.4979834 35.38105957 -9.48046875 34.37890625 C-9.46161621 33.30012207 -9.44276367 32.22133789 -9.42333984 31.10986328 C-9.24508917 25.60607913 -8.9961035 20.11930222 -8.625 14.625 C-8.57150391 13.51189453 -8.51800781 12.39878906 -8.46289062 11.25195312 C-8.38876953 10.18783203 -8.31464844 9.12371094 -8.23828125 8.02734375 C-8.18067627 7.07206787 -8.12307129 6.11679199 -8.0637207 5.13256836 C-7.3125 2.6875 -7.3125 2.6875 -4.89916992 0.83422852 C-2.3125 -0.3125 -2.3125 -0.3125 0 0 Z " fill="#D4D4D7" transform="translate(159.3125,92.3125)"/>
<path d="M0 0 C-0.77904328 14.78132118 -0.77904328 14.78132118 -3 21 C-3.33 19.68 -3.66 18.36 -4 17 C-4.99 17.66 -5.98 18.32 -7 19 C-8.32 19 -9.64 19 -11 19 C-10.6875 17.0625 -10.6875 17.0625 -10 15 C-9.01 14.67 -8.02 14.34 -7 14 C-7.33 12.02 -7.66 10.04 -8 8 C-8.66 8 -9.32 8 -10 8 C-10.28875 8.763125 -10.5775 9.52625 -10.875 10.3125 C-12 13 -12 13 -14 16 C-14.66 16 -15.32 16 -16 16 C-16 17.98 -16 19.96 -16 22 C-16.66 22 -17.32 22 -18 22 C-18 23.98 -18 25.96 -18 28 C-18.33 28 -18.66 28 -19 28 C-19.65703997 20.27978035 -17.03982463 14.23410008 -12.1875 8.25 C-4.62980769 0 -4.62980769 0 0 0 Z " fill="#FBDC60" transform="translate(47,111)"/>
<path d="M0 0 C7.26236302 1.30960645 13.3830748 3.75956186 20 7 C20 7.33 20 7.66 20 8 C18.35 8.33 16.7 8.66 15 9 C15 9.66 15 10.32 15 11 C14.34 11 13.68 11 13 11 C12.566875 11.928125 12.566875 11.928125 12.125 12.875 C11 15 11 15 9 17 C7.8745809 15.39612733 6.74968028 13.79189084 5.625 12.1875 C4.99851562 11.29417969 4.37203125 10.40085938 3.7265625 9.48046875 C0 4.12669683 0 4.12669683 0 0 Z " fill="#FCDD72" transform="translate(13,185)"/>
<path d="M0 0 C0.495 0.99 0.495 0.99 1 2 C-0.37453198 2.05498128 -1.74973578 2.09322822 -3.125 2.125 C-4.27355469 2.15980469 -4.27355469 2.15980469 -5.4453125 2.1953125 C-8 2 -8 2 -10.82421875 1.04296875 C-20.98373003 -2.29354971 -31.07950974 -1.3566818 -41 2 C-42.66177476 2.35692233 -44.32755292 2.69699893 -46 3 C-34.17506659 -9.93946736 -14.42469479 -6.05616957 0 0 Z " fill="#CBCCCE" transform="translate(199,154)"/>
<path d="M0 0 C0 0.99 0 1.98 0 3 C-1.32 2.34 -2.64 1.68 -4 1 C-4.66 1.66 -5.32 2.32 -6 3 C-7.216875 2.505 -8.43375 2.01 -9.6875 1.5 C-22.14797688 -2.60141088 -35.463175 0.49378807 -47 6 C-47 5.34 -47 4.68 -47 4 C-44.75243216 2.84917315 -42.50218252 1.70423142 -40.25 0.5625 C-39.29867187 0.07426758 -39.29867187 0.07426758 -38.328125 -0.42382812 C-26.57925025 -6.35945755 -11.73616009 -5.79052833 0 0 Z " fill="#D2D2D2" transform="translate(145,93)"/>
<path d="M0 0 C0.93457031 0.35191406 1.86914062 0.70382813 2.83203125 1.06640625 C13.53726383 5.09190479 24.2645422 9.05588615 35 13 C35 13.33 35 13.66 35 14 C33.35 14 31.7 14 30 14 C30 14.99 30 15.98 30 17 C25.10305707 15.52483396 20.76833622 13.46639837 16.25 11.125 C10.28078033 8.0798169 4.30200187 5.30265453 -2 3 C-1.34 2.67 -0.68 2.34 0 2 C0 1.34 0 0.68 0 0 Z " fill="#F9DE76" transform="translate(111,241)"/>
<path d="M0 0 C0.99 0.33 1.98 0.66 3 1 C3.59716797 2.74609375 3.59716797 2.74609375 4 5 C4.47664398 6.68895527 4.95889449 8.37633367 5.4453125 10.0625 C5.71730469 11.02414063 5.98929687 11.98578125 6.26953125 12.9765625 C6.84042651 14.99424713 7.41857376 17.00989373 8.00390625 19.0234375 C8.27332031 19.98507813 8.54273438 20.94671875 8.8203125 21.9375 C9.07055176 22.81277344 9.32079102 23.68804687 9.57861328 24.58984375 C10.01904501 27.1089295 9.81697957 28.60259953 9 31 C8.34 30.34 7.68 29.68 7 29 C6.34 30.32 5.68 31.64 5 33 C4.81824219 31.90042969 4.63648438 30.80085938 4.44921875 29.66796875 C3.16423259 22.06484689 1.84182125 14.65031246 -0.546875 7.296875 C-1.08103823 4.58922 -0.69510575 2.64891651 0 0 Z " fill="#FBE15E" transform="translate(268,77)"/>
<path d="M0 0 C1.48828125 1.14453125 1.48828125 1.14453125 3 3 C3.29296875 5.69921875 3.29296875 5.69921875 3.1875 8.6875 C3.16042969 9.68136719 3.13335937 10.67523438 3.10546875 11.69921875 C3.07066406 12.45847656 3.03585938 13.21773437 3 14 C2.34 13.01 1.68 12.02 1 11 C-1.2477975 13.05233685 -2.0022242 14.00667261 -3 17 C-3.66 17 -4.32 17 -5 17 C-5 15.02 -5 13.04 -5 11 C-5.66 11 -6.32 11 -7 11 C-8.98 14.63 -10.96 18.26 -13 22 C-14 19 -14 19 -13.06640625 16.8359375 C-9.27405392 10.63027004 -5.01237918 5.26681467 0 0 Z M-4 7 C-3 10 -3 10 -3 10 Z " fill="#F9DD67" transform="translate(231,193)"/>
<path d="M0 0 C3 1 3 1 4 3 C6.02463255 3.65213292 6.02463255 3.65213292 8 4 C7.505 4.8353125 7.505 4.8353125 7 5.6875 C5.66924071 8.34497161 5.66924071 8.34497161 6 13 C2.7 13 -0.6 13 -4 13 C-4 11.35 -4 9.7 -4 8 C-4.66 7.67 -5.32 7.34 -6 7 C-6 6.01 -6 5.02 -6 4 C-5.38125 3.896875 -4.7625 3.79375 -4.125 3.6875 C-1.63473516 3.12474627 -1.63473516 3.12474627 0 0 Z " fill="#FADB64" transform="translate(114,178)"/>
<path d="M0 0 C0.99 0.33 1.98 0.66 3 1 C3 1.99 3 2.98 3 4 C4.65 4.33 6.3 4.66 8 5 C7 8 6 11 5 14 C1.87709365 13.51421457 -0.99580359 13.0013988 -4 12 C-3.67 10.68 -3.34 9.36 -3 8 C-3.99 7.67 -4.98 7.34 -6 7 C-5.67 6.01 -5.34 5.02 -5 4 C-3.68 4 -2.36 4 -1 4 C-0.67 2.68 -0.34 1.36 0 0 Z " fill="#F8DE71" transform="translate(183,178)"/>
<path d="M0 0 C8.19600608 1.45413011 16.58111157 3.68802315 22.125 10.3125 C22.74375 11.199375 23.3625 12.08625 24 13 C19.30985915 11.35211268 19.30985915 11.35211268 17.625 9.4375 C14.72368791 6.87095469 10.75085569 7 7 7 C7 8.65 7 10.3 7 12 C7.66 12.33 8.32 12.66 9 13 C8.67 14.32 8.34 15.64 8 17 C6.65546882 14.92317952 5.32444163 12.83957514 4 10.75 C3.6184375 10.16347656 3.236875 9.57695312 2.84375 8.97265625 C0.72252389 5.6014219 0 4.09419282 0 0 Z " fill="#F8DD70" transform="translate(214,5)"/>
<path d="M0 0 C2.1484375 -0.33203125 2.1484375 -0.33203125 5 0 C7.0896873 1.72384569 8.81182108 3.33743011 10.625 5.3125 C11.34042969 6.06176758 11.34042969 6.06176758 12.0703125 6.82617188 C13.38907769 8.2090437 14.69501809 9.60411378 16 11 C16.99469507 12.00527693 17.99157585 13.00849572 19 14 C17.02 14.99 17.02 14.99 15 16 C13.05529254 14.27840626 11.11942691 12.54833744 9.1875 10.8125 C8.64029297 10.32974609 8.09308594 9.84699219 7.52929688 9.34960938 C4.35712035 6.48503784 2.00250792 3.84340994 0 0 Z " fill="#F9E56E" transform="translate(50,205)"/>
<path d="M0 0 C1.74023438 0.00966797 1.74023438 0.00966797 3.515625 0.01953125 C4.7221875 0.03628906 5.92875 0.05304688 7.171875 0.0703125 C9.00492188 0.08384766 9.00492188 0.08384766 10.875 0.09765625 C13.89082282 0.12121737 16.90624992 0.15411544 19.921875 0.1953125 C18.40240001 3.56279762 17.40086658 4.80371587 13.921875 6.1953125 C13.921875 4.8753125 13.921875 3.5553125 13.921875 2.1953125 C6.001875 2.1953125 -1.918125 2.1953125 -10.078125 2.1953125 C-6.00557351 0.15903675 -4.40396025 -0.04317608 0 0 Z " fill="#F5DB7A" transform="translate(246.078125,222.8046875)"/>
<path d="M0 0 C-3 2 -3 2 -5.02636719 2.42749023 C-7.51782848 3.15021125 -8.1283975 4.04279109 -9.578125 6.16015625 C-10.01640625 6.78857422 -10.4546875 7.41699219 -10.90625 8.06445312 C-11.3496875 8.72380859 -11.793125 9.38316406 -12.25 10.0625 C-12.70890625 10.72572266 -13.1678125 11.38894531 -13.640625 12.07226562 C-14.77035676 13.70802307 -15.88651173 15.35314234 -17 17 C-17.66 16.01 -18.32 15.02 -19 14 C-16.54857021 8.8183048 -13.49790882 3.49874529 -8.5 0.5 C-5.60955437 -0.07808913 -2.94007565 -0.1367477 0 0 Z " fill="#F8DD79" transform="translate(68,27)"/>
<path d="M0 0 C1.65 0.33 3.3 0.66 5 1 C4.67421616 3.00124361 4.33944795 5.00102872 4 7 C3.814375 8.3303125 3.814375 8.3303125 3.625 9.6875 C2.9109431 12.32951055 2.19906135 13.39299363 0 15 C-0.99 15 -1.98 15 -3 15 C-2.44854729 9.76119922 -1.57077907 5.02649303 0 0 Z " fill="#FCE259" transform="translate(266,166)"/>
<path d="M0 0 C0.99 0.495 0.99 0.495 2 1 C2.59765625 3.58984375 2.59765625 3.58984375 3.0625 6.9375 C3.22621094 8.10539062 3.38992187 9.27328125 3.55859375 10.4765625 C4.12251454 14.97794793 4.61228584 19.48006912 5 24 C4.01 24.33 3.02 24.66 2 25 C0.30117812 16.58173087 -0.24911914 8.58077055 0 0 Z " fill="#D4D7DD" transform="translate(206,116)"/>
<path d="M0 0 C0.99 0 1.98 0 3 0 C4.12186156 3.49211043 3.98682242 6.48845597 3.6875 10.125 C3.56955078 11.70667969 3.56955078 11.70667969 3.44921875 13.3203125 C3 16 3 16 1 18 C-1 16 -1 16 -1.23046875 13.3203125 C-1.21628906 12.26585937 -1.20210937 11.21140625 -1.1875 10.125 C-1.18105469 9.07570313 -1.17460937 8.02640625 -1.16796875 6.9453125 C-1.02619538 4.45933296 -0.7160399 2.37152414 0 0 Z " fill="#D8DBDE" transform="translate(151,116)"/>
<path d="M0 0 C1.49839213 4.49517638 0.63941897 7.68750842 -1.41015625 11.89453125 C-1.95542969 12.85746094 -2.50070313 13.82039063 -3.0625 14.8125 C-3.61035156 15.78832031 -4.15820312 16.76414062 -4.72265625 17.76953125 C-5.14417969 18.50558594 -5.56570312 19.24164063 -6 20 C-6.99 19.67 -7.98 19.34 -9 19 C-7.65722223 14.67327162 -5.98484346 10.72685331 -3.9375 6.6875 C-3.41027344 5.63949219 -2.88304687 4.59148438 -2.33984375 3.51171875 C-1 1 -1 1 0 0 Z " fill="#F9DB68" transform="translate(43,49)"/>
<path d="M0 0 C0 0.99 0 1.98 0 3 C-0.99 3.495 -0.99 3.495 -2 4 C-1.34 5.32 -0.68 6.64 0 8 C-0.99 9.485 -0.99 9.485 -2 11 C-3.32 11 -4.64 11 -6 11 C-6 10.01 -6 9.02 -6 8 C-6.66 8 -7.32 8 -8 8 C-8.625 6.125 -8.625 6.125 -9 4 C-6.43425105 1.43425105 -3.68548192 0 0 0 Z " fill="#FDDB5B" transform="translate(204,224)"/>
<path d="M0 0 C2.11044382 3.16566573 2.75552077 5.51197415 3.625 9.1875 C3.88539062 10.27417969 4.14578125 11.36085937 4.4140625 12.48046875 C4.60742188 13.31191406 4.80078125 14.14335937 5 15 C3.02 15.99 3.02 15.99 1 17 C-0.32 11.72 -1.64 6.44 -3 1 C-2.01 0.67 -1.02 0.34 0 0 Z " fill="#F8E078" transform="translate(28,149)"/>
<path d="M0 0 C1.72357119 2.58535679 2.44735018 4.03811614 3.1875 6.9375 C3.36667969 7.60652344 3.54585938 8.27554688 3.73046875 8.96484375 C4.03268678 11.24680888 3.68756692 12.82026659 3 15 C2.34 14.34 1.68 13.68 1 13 C0.34 14.32 -0.32 15.64 -1 17 C-1.66 11.72 -2.32 6.44 -3 1 C-2.01 1.495 -2.01 1.495 -1 2 C-0.67 1.34 -0.34 0.68 0 0 Z " fill="#FDE96B" transform="translate(274,93)"/>
<path d="M0 0 C4.49797113 1.68673918 8.72886302 3.81673892 13 6 C12.67 6.66 12.34 7.32 12 8 C6.03435204 7.49228528 1.36190101 5.61407872 -4 3 C-2.68 2.67 -1.36 2.34 0 2 C0 1.34 0 0.68 0 0 Z " fill="#F8DD74" transform="translate(86,229)"/>
<path d="M0 0 C3 1 3 1 4 3 C6.02463255 3.65213292 6.02463255 3.65213292 8 4 C7.67 4.66 7.34 5.32 7 6 C6.071875 5.79375 5.14375 5.5875 4.1875 5.375 C0.84826598 4.63307034 0.84826598 4.63307034 -2 7 C-1.34 7.66 -0.68 8.32 0 9 C-0.375 11.125 -0.375 11.125 -1 13 C-1.99 13 -2.98 13 -4 13 C-4 11.35 -4 9.7 -4 8 C-4.66 7.67 -5.32 7.34 -6 7 C-6 6.01 -6 5.02 -6 4 C-5.38125 3.896875 -4.7625 3.79375 -4.125 3.6875 C-1.63473516 3.12474627 -1.63473516 3.12474627 0 0 Z " fill="#F3DD6D" transform="translate(114,178)"/>
<path d="M0 0 C2.97 0.495 2.97 0.495 6 1 C6 1.66 6 2.32 6 3 C6.66 3.33 7.32 3.66 8 4 C7.01 4.33 6.02 4.66 5 5 C4.67 5.99 4.34 6.98 4 8 C4.66 8 5.32 8 6 8 C6 8.66 6 9.32 6 10 C6.99 10.33 7.98 10.66 9 11 C9.33 12.98 9.66 14.96 10 17 C5.86465045 13.21910898 2.39019887 9.11604268 0 4 C0 2.68 0 1.36 0 0 Z " fill="#F8E37C" transform="translate(13,185)"/>
<path d="M0 0 C0.66 0 1.32 0 2 0 C1.40158509 3.26604763 0.3410922 5.17406707 -1.8125 7.6875 C-2.31394531 8.28949219 -2.81539062 8.89148438 -3.33203125 9.51171875 C-5.23651968 11.21103981 -6.47552679 11.72122382 -9 12 C-10.75 10.6875 -10.75 10.6875 -12 9 C-12 8.34 -12 7.68 -12 7 C-11.01 6.67 -10.02 6.34 -9 6 C-6.8125 7.4375 -6.8125 7.4375 -5 9 C-4.855625 8.401875 -4.71125 7.80375 -4.5625 7.1875 C-4.1127561 5.43849596 -3.57107659 3.71322977 -3 2 C-2.01 2 -1.02 2 0 2 C0 1.34 0 0.68 0 0 Z " fill="#F6DD6F" transform="translate(41,132)"/>
<path d="M0 0 C0.99 0 1.98 0 3 0 C3 0.66 3 1.32 3 2 C5.64 2.33 8.28 2.66 11 3 C11 3.66 11 4.32 11 5 C9.35 5 7.7 5 6 5 C6 5.66 6 6.32 6 7 C3.36 7 0.72 7 -2 7 C-2.125 4.625 -2.125 4.625 -2 2 C-1.34 1.34 -0.68 0.68 0 0 Z " fill="#FDDB59" transform="translate(39,72)"/>
<path d="M0 0 C3 2 3 2 3.38818359 3.83178711 C3.39156738 4.5563208 3.39495117 5.28085449 3.3984375 6.02734375 C3.40230469 6.81947266 3.40617187 7.61160156 3.41015625 8.42773438 C3.39855469 9.25595703 3.38695312 10.08417969 3.375 10.9375 C3.38660156 11.76185547 3.39820313 12.58621094 3.41015625 13.43554688 C3.40628906 14.22896484 3.40242188 15.02238281 3.3984375 15.83984375 C3.39505371 16.56550537 3.39166992 17.29116699 3.38818359 18.03881836 C3 20 3 20 0 23 C0 15.41 0 7.82 0 0 Z " fill="#F7DC78" transform="translate(22,110)"/>
<path d="M0 0 C0.66 0 1.32 0 2 0 C2.92092281 4.65537356 3.12205997 9.14685433 3.0625 13.875 C3.05798828 14.56335938 3.05347656 15.25171875 3.04882812 15.9609375 C3.03716336 17.64066335 3.01923271 19.32034375 3 21 C0.12891775 18.12891775 0.25124819 14.92960614 -0.1875 11.0625 C-0.28224609 10.33353516 -0.37699219 9.60457031 -0.47460938 8.85351562 C-0.87562045 5.51379744 -1.07641425 3.22924275 0 0 Z " fill="#CACED0" transform="translate(209,140)"/>
<path d="M0 0 C0.66 0 1.32 0 2 0 C1.53574151 5.68716647 0.22534691 9.25684278 -3 14 C-3.99 14.33 -4.98 14.66 -6 15 C-6.66 13.35 -7.32 11.7 -8 10 C-6.68 10.33 -5.36 10.66 -4 11 C-3.71125 9.741875 -3.4225 8.48375 -3.125 7.1875 C-2.42696461 4.1460601 -1.79553415 2.69330122 0 0 Z " fill="#FBE351" transform="translate(255,193)"/>
<path d="M0 0 C1.26422764 3.79268293 0.23577236 5.29268293 -1 9 C-3.31 8.34 -5.62 7.68 -8 7 C-7.8125 4.625 -7.8125 4.625 -7 2 C-4.54236535 0.67665827 -2.79402354 0 0 0 Z " fill="#FBE167" transform="translate(189,183)"/>
<path d="M0 0 C0.33 1.32 0.66 2.64 1 4 C1.66 4 2.32 4 3 4 C3.33 3.01 3.66 2.02 4 1 C4.05383848 3.45862401 4.09359038 5.9160755 4.125 8.375 C4.14175781 9.07367188 4.15851563 9.77234375 4.17578125 10.4921875 C4.19344267 12.32897486 4.10303261 14.16601963 4 16 C3.34 16.66 2.68 17.32 2 18 C-0.11925604 15.88074396 0.58168983 11.3803907 0.4375 8.4375 C0.39431641 7.63119141 0.35113281 6.82488281 0.30664062 5.99414062 C0.20024738 3.99631195 0.09959112 1.9981793 0 0 Z " fill="#DFE2E5" transform="translate(145,116)"/>
<path d="M0 0 C4.10447392 0.51776621 5.95699523 2.64627444 8.75 5.5625 C9.94882812 6.80193359 9.94882812 6.80193359 11.171875 8.06640625 C11.77515625 8.70449219 12.3784375 9.34257813 13 10 C10.32115341 10 8.49664253 9.88590541 6 9 C4 6 4 6 4 3 C3.34 3 2.68 3 2 3 C2.33 3.99 2.66 4.98 3 6 C2.01 6.33 1.02 6.66 0 7 C0 4.69 0 2.38 0 0 Z " fill="#F9E072" transform="translate(0,112)"/>
<path d="M0 0 C0.99 0.495 0.99 0.495 2 1 C2 2.65 2 4.3 2 6 C3.32 5.67 4.64 5.34 6 5 C5.67 6.32 5.34 7.64 5 9 C5 8.34 5 7.68 5 7 C4.34 7 3.68 7 3 7 C3 9.97 3 12.94 3 16 C2.01 16.33 1.02 16.66 0 17 C0 11.39 0 5.78 0 0 Z " fill="#FBDF58" transform="translate(274,105)"/>
<path d="M0 0 C0 0.99 0 1.98 0 3 C-1.17755859 3.27263672 -1.17755859 3.27263672 -2.37890625 3.55078125 C-8.19425571 4.94218388 -13.60004859 6.42275046 -19 9 C-19 8.34 -19 7.68 -19 7 C-16.77675074 5.8206851 -14.54753361 4.65659082 -12.3125 3.5 C-11.68666016 3.16613281 -11.06082031 2.83226563 -10.41601562 2.48828125 C-6.79518683 0.6304738 -4.08595745 -0.43750214 0 0 Z " fill="#CDCECE" transform="translate(117,90)"/>
<path d="M0 0 C1.46726798 3.81489674 0.43336419 6.29011622 -1 10 C1.3431213 9.74438677 3.67843403 9.40729228 6 9 C6.33 8.34 6.66 7.68 7 7 C8.32 7.33 9.64 7.66 11 8 C9.25586336 10.14840673 8.29612041 10.93377499 5.5546875 11.546875 C4.67039062 11.61390625 3.78609375 11.6809375 2.875 11.75 C1.98554687 11.82734375 1.09609375 11.9046875 0.1796875 11.984375 C-0.53960937 11.98953125 -1.25890625 11.9946875 -2 12 C-2.33 11.67 -2.66 11.34 -3 11 C-2.40366972 3.60550459 -2.40366972 3.60550459 0 0 Z " fill="#F5DB73" transform="translate(38,69)"/>
<path d="M0 0 C-0.33 0.99 -0.66 1.98 -1 3 C-6.49245937 4.83081979 -11.24091942 5.20568145 -17 5 C-14.09707174 2.60222167 -11.54266359 1.31577989 -7.9375 0.25 C-7.08027344 -0.01296875 -6.22304687 -0.2759375 -5.33984375 -0.546875 C-3 -1 -3 -1 0 0 Z " fill="#CACBCD" transform="translate(116,151)"/>
<path d="M0 0 C0.66 0 1.32 0 2 0 C4.29013653 3.4352048 4.17842973 4.985331 4 9 C3.34 8.67 2.68 8.34 2 8 C0.68 9.32 -0.64 10.64 -2 12 C-2.17835515 7.45194365 -1.99785435 4.1205746 0 0 Z " fill="#F8DD79" transform="translate(7,74)"/>
<path d="M0 0 C2.14929348 3.9071257 2.29908463 6.89426567 2.3125 11.375 C2.32925781 12.66148437 2.34601562 13.94796875 2.36328125 15.2734375 C1.98133229 19.19149454 0.97712676 21.63001614 -1 25 C-2.125 21.25 -2.125 21.25 -1 19 C-0.84932786 17.5534758 -0.75138964 16.1012066 -0.68359375 14.6484375 C-0.64169922 13.79765625 -0.59980469 12.946875 -0.55664062 12.0703125 C-0.51732422 11.18085938 -0.47800781 10.29140625 -0.4375 9.375 C-0.39431641 8.4778125 -0.35113281 7.580625 -0.30664062 6.65625 C-0.20043139 4.43765717 -0.09838806 2.2189512 0 0 Z " fill="#F6DC80" transform="translate(59,177)"/>
<path d="M0 0 C5.98566585 -0.32649086 11.64812345 0.02426781 17 3 C17.66 4.32 18.32 5.64 19 7 C14.05 5.68 9.1 4.36 4 3 C4 2.34 4 1.68 4 1 C2.68 0.67 1.36 0.34 0 0 Z " fill="#CBCBCE" transform="translate(176,89)"/>
<path d="M0 0 C2 1 2 1 2.8515625 3.28515625 C3.10679688 4.20167969 3.36203125 5.11820313 3.625 6.0625 C3.88539062 6.98160156 4.14578125 7.90070312 4.4140625 8.84765625 C4.60742188 9.55792969 4.80078125 10.26820312 5 11 C4.34 11 3.68 11 3 11 C3 10.34 3 9.68 3 9 C2.01 9.33 1.02 9.66 0 10 C-0.33 9.01 -0.66 8.02 -1 7 C-1.33 7.66 -1.66 8.32 -2 9 C-2.66 9 -3.32 9 -4 9 C-2.25 2.25 -2.25 2.25 0 0 Z " fill="#F8DF75" transform="translate(23,40)"/>
<path d="M0 0 C0.33 0 0.66 0 1 0 C1.20674944 5.78898419 0.59162079 10.42932723 -1 16 C-1.99 16 -2.98 16 -4 16 C-4 12.7 -4 9.4 -4 6 C-3.34 6 -2.68 6 -2 6 C-1.34 4.02 -0.68 2.04 0 0 Z " fill="#FCE55B" transform="translate(277,135)"/>
<path d="M0 0 C2.64 0 5.28 0 8 0 C7.34 1.65 6.68 3.3 6 5 C7.32 6.65 8.64 8.3 10 10 C7 10 7 10 4.95703125 8.25 C4.24933594 7.5075 3.54164063 6.765 2.8125 6 C2.09707031 5.2575 1.38164062 4.515 0.64453125 3.75 C0.10183594 3.1725 -0.44085938 2.595 -1 2 C-0.67 1.34 -0.34 0.68 0 0 Z " fill="#F8DE73" transform="translate(219,39)"/>
<path d="M0 0 C0.33 0.66 0.66 1.32 1 2 C2.65 1.67 4.3 1.34 6 1 C3.81482901 3.40575607 1.74080329 4.79535581 -1.1875 6.1875 C-1.90292969 6.53167969 -2.61835938 6.87585938 -3.35546875 7.23046875 C-3.89816406 7.48441406 -4.44085938 7.73835937 -5 8 C-5.66 6.68 -6.32 5.36 -7 4 C-4.69 2.68 -2.38 1.36 0 0 Z " fill="#F8E081" transform="translate(218,228)"/>
<path d="M0 0 C1.18613892 0.00785522 1.18613892 0.00785522 2.39624023 0.01586914 C3.67724609 0.02070313 3.67724609 0.02070313 4.98413086 0.02563477 C5.88196289 0.03401367 6.77979492 0.04239258 7.70483398 0.05102539 C8.6065332 0.05553711 9.50823242 0.06004883 10.43725586 0.06469727 C12.67234712 0.07652315 14.90730835 0.09300319 17.14233398 0.11352539 C17.14233398 0.44352539 17.14233398 0.77352539 17.14233398 1.11352539 C12.52233398 1.44352539 7.90233398 1.77352539 3.14233398 2.11352539 C3.47233398 3.10352539 3.80233398 4.09352539 4.14233398 5.11352539 C2.82233398 5.11352539 1.50233398 5.11352539 0.14233398 5.11352539 C-1.60766602 3.11352539 -1.60766602 3.11352539 -2.85766602 1.11352539 C-1.85766602 0.11352539 -1.85766602 0.11352539 0 0 Z " fill="#FBEE8B" transform="translate(35.857666015625,219.886474609375)"/>
<path d="M0 0 C0.33 0.99 0.66 1.98 1 3 C-0.45537568 3.83848804 -1.91440373 4.67063934 -3.375 5.5 C-4.59316406 6.19609375 -4.59316406 6.19609375 -5.8359375 6.90625 C-8 8 -8 8 -10 8 C-9.875 5.6875 -9.875 5.6875 -9 3 C-5.79266696 0.97798569 -3.80845564 0 0 0 Z " fill="#F9E05E" transform="translate(212,233)"/>
<path d="M0 0 C0 3.36403475 -0.61880053 4.40092917 -2.375 7.1875 C-2.81585938 7.90292969 -3.25671875 8.61835937 -3.7109375 9.35546875 C-4.13632812 9.89816406 -4.56171875 10.44085938 -5 11 C-5.66 11 -6.32 11 -7 11 C-7 12.98 -7 14.96 -7 17 C-7.66 17 -8.32 17 -9 17 C-9 18.98 -9 20.96 -9 23 C-9.33 23 -9.66 23 -10 23 C-10.59736823 15.98092331 -8.64078398 10.51031042 -4.3984375 4.87109375 C-2.97402432 3.20027734 -1.52405689 1.57993898 0 0 Z " fill="#F9E286" transform="translate(38,116)"/>
<path d="M0 0 C4.48071284 0.84743917 6.63834347 3.02034989 10 6 C7.37886292 6 5.49064888 5.68707555 3 5 C2.67 7.64 2.34 10.28 2 13 C-0.20914 9.68629 -0.22481553 8.6553979 -0.125 4.8125 C-0.10695312 3.91144531 -0.08890625 3.01039062 -0.0703125 2.08203125 C-0.04710937 1.39496094 -0.02390625 0.70789063 0 0 Z " fill="#F8E086" transform="translate(253,114)"/>
<path d="M0 0 C1.65 0.33 3.3 0.66 5 1 C5.33 3.64 5.66 6.28 6 9 C5.34 9 4.68 9 4 9 C3.67 9.66 3.34 10.32 3 11 C1.68 10.34 0.36 9.68 -1 9 C-1 7.68 -1 6.36 -1 5 C-0.34 5 0.32 5 1 5 C1.33 4.34 1.66 3.68 2 3 C1.34 3 0.68 3 0 3 C0 2.01 0 1.02 0 0 Z " fill="#FEE95F" transform="translate(19,99)"/>
<path d="M0 0 C0.99 0 1.98 0 3 0 C7.06153846 6.15384615 7.06153846 6.15384615 6.75 10.4375 C6.5025 11.283125 6.255 12.12875 6 13 C2.84297684 9.09130466 0 5.1385061 0 0 Z " fill="#F6DC6F" transform="translate(255,53)"/>
<path d="M0 0 C3.96 0.99 3.96 0.99 8 2 C6.68 3.65 5.36 5.3 4 7 C2.35 6.67 0.7 6.34 -1 6 C-1.33 4.68 -1.66 3.36 -2 2 C-1.34 2 -0.68 2 0 2 C0 1.34 0 0.68 0 0 Z " fill="#FADF7A" transform="translate(39,168)"/>
<path d="M0 0 C0.66 0.33 1.32 0.66 2 1 C0.375 4 0.375 4 -2 7 C-5.25 7.375 -5.25 7.375 -8 7 C-8.33 6.34 -8.66 5.68 -9 5 C-3.375 1.125 -3.375 1.125 0 0 Z " fill="#FBDD65" transform="translate(190,242)"/>
<path d="M0 0 C2.375 0.1875 2.375 0.1875 5 1 C6.26372348 3.33788843 6.87692019 5.49229578 7.5 8.0625 C8.05896274 10.22848064 8.94633458 12.03315788 10 14 C5.92338701 12.641129 5.39069591 10.69457052 3.3125 7 C2.37857422 5.3603125 2.37857422 5.3603125 1.42578125 3.6875 C0 1 0 1 0 0 Z " fill="#F9DD79" transform="translate(39,188)"/>
<path d="M0 0 C6.94490614 0.17683789 11.42262143 1.88155424 17 6 C15 7 15 7 11.77734375 6.07421875 C10.49453658 5.61997447 9.21466818 5.15736546 7.9375 4.6875 C7.28716797 4.46126953 6.63683594 4.23503906 5.96679688 4.00195312 C1.1272371 2.25447421 1.1272371 2.25447421 0 0 Z " fill="#C7C9CC" transform="translate(130,150)"/>
<path d="M0 0 C0.33 0 0.66 0 1 0 C1 6.27 1 12.54 1 19 C-0.32 17.68 -1.64 16.36 -3 15 C-2.75 11.25 -2.75 11.25 -2 8 C-1.67 8 -1.34 8 -1 8 C-0.67 5.36 -0.34 2.72 0 0 Z " fill="#FAE37D" transform="translate(277,112)"/>
<path d="M0 0 C1.65 0 3.3 0 5 0 C5 3 5 3 3.46875 4.60546875 C2.8190625 5.12753906 2.169375 5.64960937 1.5 6.1875 C0.8503125 6.71730469 0.200625 7.24710938 -0.46875 7.79296875 C-0.9740625 8.19128906 -1.479375 8.58960938 -2 9 C-3 6 -3 6 -1.5625 2.8125 C-1.046875 1.884375 -0.53125 0.95625 0 0 Z " fill="#F6DC77" transform="translate(76,37)"/>
<path d="M0 0 C0.33 0.66 0.66 1.32 1 2 C1.66 1.67 2.32 1.34 3 1 C5.6723621 0.86584528 8.32250488 0.95681459 11 1 C11 1.99 11 2.98 11 4 C7.04 4.66 3.08 5.32 -1 6 C-0.67 4.02 -0.34 2.04 0 0 Z " fill="#D5D7D8" transform="translate(165,157)"/>
<path d="M0 0 C2.85856441 3.22741144 4.76236269 5.60370982 5 10 C4.34 10.66 3.68 11.32 3 12 C2.34 11.67 1.68 11.34 1 11 C0.66666667 9 0.33333333 7 0 5 C-0.66 4.67 -1.32 4.34 -2 4 C-1.34 2.68 -0.68 1.36 0 0 Z " fill="#FBE154" transform="translate(24,139)"/>
<path d="M0 0 C-0.66 1.98 -1.32 3.96 -2 6 C-4.97 5.505 -4.97 5.505 -8 5 C-8 3.68 -8 2.36 -8 1 C-5.10765685 0.17361624 -3.11257569 0 0 0 Z " fill="#D2D2D2" transform="translate(94,59)"/>
<path d="M0 0 C5.84615385 4.30769231 5.84615385 4.30769231 7 8 C6.625 10.25 6.625 10.25 6 12 C4.35 12.33 2.7 12.66 1 13 C1.350625 12.2575 1.70125 11.515 2.0625 10.75 C3.35719059 6.95224093 2.60116266 5.27305033 0.9375 1.75 C0.628125 1.1725 0.31875 0.595 0 0 Z " fill="#F7DD75" transform="translate(41,198)"/>
<path d="M0 0 C4.75 0.75 4.75 0.75 7 3 C6.01 3.495 6.01 3.495 5 4 C4.27306096 5.97888961 3.60183749 7.97954558 3 10 C-0.00617269 6.99382731 0.40414684 4.17618402 0 0 Z " fill="#F8E17C" transform="translate(3,150)"/>
<path d="M0 0 C0.99 0 1.98 0 3 0 C1.34216909 3.91850942 -1.10938356 6.90291096 -4 10 C-6.3125 10.875 -6.3125 10.875 -8 11 C-7.1875 8.5625 -7.1875 8.5625 -6 6 C-5.01 5.67 -4.02 5.34 -3 5 C-2.67 4.34 -2.34 3.68 -2 3 C-1.34 3 -0.68 3 0 3 C0 2.01 0 1.02 0 0 Z " fill="#F5DE71" transform="translate(76,16)"/>
<path d="M0 0 C0.66 0 1.32 0 2 0 C2 0.99 2 1.98 2 3 C2.66 3 3.32 3 4 3 C4 3.99 4 4.98 4 6 C4.99 6 5.98 6 7 6 C7.33 8.64 7.66 11.28 8 14 C4.084859 10.64416485 1.9204226 6.71933638 0 2 C0 1.34 0 0.68 0 0 Z " fill="#F5DF7C" transform="translate(249,92)"/>
<path d="M0 0 C0.66 0 1.32 0 2 0 C2 0.99 2 1.98 2 3 C2.66 3 3.32 3 4 3 C4.33 4.65 4.66 6.3 5 8 C2.625 7.75 2.625 7.75 0 7 C-1.3125 4.9375 -1.3125 4.9375 -2 3 C-1.34 2.01 -0.68 1.02 0 0 Z " fill="#D5D6D8" transform="translate(195,89)"/>
<path d="M0 0 C-1.52708963 3.43595166 -3.59927045 6.11912454 -6 9 C-5.47731534 6.23723823 -4.89130413 3.6739124 -4 1 C-5.98 1 -7.96 1 -10 1 C-10 0.67 -10 0.34 -10 0 C-6.30458414 -0.95024979 -3.69541586 -0.95024979 0 0 Z " fill="#F7DF82" transform="translate(64,60)"/>
<path d="M0 0 C0 2.97 0 5.94 0 9 C-0.66 9 -1.32 9 -2 9 C-2 7.02 -2 5.04 -2 3 C-2.99 3 -3.98 3 -5 3 C-5 5.31 -5 7.62 -5 10 C-5.33 10 -5.66 10 -6 10 C-6 7.03 -6 4.06 -6 1 C-1.125 0 -1.125 0 0 0 Z " fill="#FBDC6C" transform="translate(22,59)"/>
<path d="M0 0 C2.65269897 2.47585238 4.68010103 4.59026101 6 8 C6 8.99 6 9.98 6 11 C5.34 11 4.68 11 4 11 C3.67 10.67 3.34 10.34 3 10 C2.01 10.495 2.01 10.495 1 11 C0.375 9.1875 0.375 9.1875 0 7 C0.66 6.01 1.32 5.02 2 4 C1.34 4 0.68 4 0 4 C0 2.68 0 1.36 0 0 Z " fill="#F9E07D" transform="translate(107,221)"/>
<path d="M0 0 C1.875 0.25 1.875 0.25 4 1 C5.25 3.0625 5.25 3.0625 6 5 C5.01 5.66 4.02 6.32 3 7 C2.34 6.67 1.68 6.34 1 6 C1 5.34 1 4.68 1 4 C0.34 4 -0.32 4 -1 4 C-0.67 2.68 -0.34 1.36 0 0 Z " fill="#FDDB58" transform="translate(18,189)"/>
<path d="M0 0 C1.32 0.33 2.64 0.66 4 1 C4 0.67 4 0.34 4 0 C5.98 0 7.96 0 10 0 C9.67 1.65 9.34 3.3 9 5 C4.68607774 4.5206753 2.83430453 3.2542015 0 0 Z " fill="#F7DA6C" transform="translate(11,108)"/>
<path d="M0 0 C0.96733056 3.86932223 1.13168095 5.3220369 0 9 C-1.5625 10.8125 -1.5625 10.8125 -3 12 C-3 11.01 -3 10.02 -3 9 C-3.66 8.67 -4.32 8.34 -5 8 C-3.35 5.36 -1.7 2.72 0 0 Z " fill="#FBDF84" transform="translate(43,49)"/>
<path d="M0 0 C0.66 0.33 1.32 0.66 2 1 C1.34 2.32 0.68 3.64 0 5 C-0.66 5 -1.32 5 -2 5 C-2.2475 5.928125 -2.495 6.85625 -2.75 7.8125 C-4.06454245 11.16458325 -4.97963384 12.1877803 -8 14 C-6.58036591 8.32146365 -3.60636039 4.46825784 0 0 Z " fill="#F6E07C" transform="translate(45,11)"/>
<path d="M0 0 C2.64 0.33 5.28 0.66 8 1 C7.01 1.33 6.02 1.66 5 2 C5 2.66 5 3.32 5 4 C4.34 4 3.68 4 3 4 C3 3.34 3 2.68 3 2 C2.01 1.67 1.02 1.34 0 1 C0 0.67 0 0.34 0 0 Z M1 3 C1.66 3.33 2.32 3.66 3 4 C3 4.99 3 5.98 3 7 C3.66 7.33 4.32 7.66 5 8 C4.01 8.33 3.02 8.66 2 9 C1.34 8.67 0.68 8.34 0 8 C0.33 6.35 0.66 4.7 1 3 Z " fill="#FADE72" transform="translate(163,261)"/>
<path d="M0 0 C0.33 0.99 0.66 1.98 1 3 C-0.8125 5.6875 -0.8125 5.6875 -3 8 C-3.66 8 -4.32 8 -5 8 C-5 6.02 -5 4.04 -5 2 C-3.35 1.34 -1.7 0.68 0 0 Z " fill="#F9DD6E" transform="translate(107,244)"/>
<path d="M0 0 C0.66 0 1.32 0 2 0 C2 2.64 2 5.28 2 8 C3.98 7.67 5.96 7.34 8 7 C5.31158141 9.25245881 3.35358125 10.88213958 0 12 C-1.03159626 8.90521121 -0.97482862 7.47368607 -0.5625 4.3125 C-0.46066406 3.50425781 -0.35882813 2.69601563 -0.25390625 1.86328125 C-0.17011719 1.24839844 -0.08632812 0.63351563 0 0 Z " fill="#F6E085" transform="translate(141,193)"/>
<path d="M0 0 C1.98 0.99 1.98 0.99 4 2 C4 5.96 4 9.92 4 14 C1.01520806 9.52281208 0 5.36175907 0 0 Z " fill="#F8DE77" transform="translate(1,121)"/>
<path d="M0 0 C0.66 0.33 1.32 0.66 2 1 C1.45276317 4.37462715 0.9451 6.08235 -1 9 C-2.32 8.34 -3.64 7.68 -5 7 C-3.35 4.69 -1.7 2.38 0 0 Z " fill="#FBDF4D" transform="translate(34,68)"/>
<path d="M0 0 C0.66 0.33 1.32 0.66 2 1 C2 1.99 2 2.98 2 4 C1.01 4 0.02 4 -1 4 C-1.061875 4.78375 -1.12375 5.5675 -1.1875 6.375 C-1.455625 7.24125 -1.72375 8.1075 -2 9 C-4.5625 10.3125 -4.5625 10.3125 -7 11 C-5.5140084 6.40693504 -3.14985318 3.56430755 0 0 Z " fill="#F7E28C" transform="translate(47,139)"/>
<path d="M0 0 C1.95803507 -0.05389087 3.91648909 -0.09274217 5.875 -0.125 C7.51082031 -0.15980469 7.51082031 -0.15980469 9.1796875 -0.1953125 C12 0 12 0 14 2 C10.73086376 3.03115279 8.13958652 2.9638984 4.75 2.5625 C3.85796875 2.46066406 2.9659375 2.35882813 2.046875 2.25390625 C1.37140625 2.17011719 0.6959375 2.08632812 0 2 C0 1.34 0 0.68 0 0 Z " fill="#D9D9D9" transform="translate(120,90)"/>
<path d="M0 0 C1.46015291 0.28241641 2.91809793 0.57626614 4.375 0.875 C5.18710938 1.03742187 5.99921875 1.19984375 6.8359375 1.3671875 C9 2 9 2 11 4 C9.906875 3.95875 8.81375 3.9175 7.6875 3.875 C3.91107771 3.67925334 3.91107771 3.67925334 1 6 C0.67 4.02 0.34 2.04 0 0 Z " fill="#F8E390" transform="translate(214,5)"/>
<path d="M0 0 C0.33 0 0.66 0 1 0 C0.67 3.63 0.34 7.26 0 11 C-0.99 11 -1.98 11 -3 11 C-2.88590407 9.54077307 -2.75834456 8.08259402 -2.625 6.625 C-2.55539063 5.81289062 -2.48578125 5.00078125 -2.4140625 4.1640625 C-2 2 -2 2 0 0 Z " fill="#C4C4C5" transform="translate(90,148)"/>
<path d="M0 0 C5.75 -0.125 5.75 -0.125 8 1 C8 1.99 8 2.98 8 4 C4.28400809 4.20086443 3.22791555 4.1519437 0 2 C0 1.34 0 0.68 0 0 Z " fill="#F7DC69" transform="translate(121,247)"/>
<path d="M0 0 C-3.01887244 3.48331435 -5.56909529 4.79157144 -10 6 C-9.67 5.34 -9.34 4.68 -9 4 C-8.34 4 -7.68 4 -7 4 C-7.33 3.01 -7.66 2.02 -8 1 C-5.07175348 0.02391783 -3.04386724 -0.08226668 0 0 Z " fill="#F7DC72" transform="translate(260,229)"/>
<path d="M0 0 C0.66 0 1.32 0 2 0 C2.66 2.97 3.32 5.94 4 9 C3.34 9 2.68 9 2 9 C1.34 8.01 0.68 7.02 0 6 C-0.66 5.67 -1.32 5.34 -2 5 C-1.34 3.35 -0.68 1.7 0 0 Z " fill="#F4DA78" transform="translate(55,168)"/>
<path d="M0 0 C2 2 2 2 2 4 C-3.41538462 4.36923077 -3.41538462 4.36923077 -6.375 2.5 C-6.91125 2.005 -7.4475 1.51 -8 1 C-5.23749964 -0.38125018 -3.05268901 -0.19079306 0 0 Z " fill="#D4D5D7" transform="translate(201,155)"/>
<path d="M0 0 C-0.59924224 4.19469571 -1.57499941 8.00999834 -3 12 C-3.66 12 -4.32 12 -5 12 C-4.01 8.7 -3.02 5.4 -2 2 C-2.99 2.33 -3.98 2.66 -5 3 C-5 2.34 -5 1.68 -5 1 C-2 0 -2 0 0 0 Z " fill="#F6E083" transform="translate(52,84)"/>
<path d="M0 0 C0.33 0.66 0.66 1.32 1 2 C1.99 2.33 2.98 2.66 4 3 C3.67 3.99 3.34 4.98 3 6 C1.35 6 -0.3 6 -2 6 C-1.125 1.125 -1.125 1.125 0 0 Z " fill="#FBDA58" transform="translate(183,184)"/>
<path d="M0 0 C0.99 0.33 1.98 0.66 3 1 C3.6875 3.0625 3.6875 3.0625 4 5 C2.68 5.99 1.36 6.98 0 8 C-1.09658936 4.71023192 -0.79953138 3.28696233 0 0 Z " fill="#FCE946" transform="translate(31,164)"/>
<path d="M0 0 C7.57142857 4 7.57142857 4 10 8 C8.35 8 6.7 8 5 8 C5 7.34 5 6.68 5 6 C4.34 5.67 3.68 5.34 3 5 C3 4.34 3 3.68 3 3 C2.01 3 1.02 3 0 3 C0 2.01 0 1.02 0 0 Z " fill="#FADE73" transform="translate(15,156)"/>
<path d="M0 0 C3.26954202 0.56371414 4.82575883 1.49962266 7 4 C5.02 4.99 5.02 4.99 3 6 C1.5 4.6875 1.5 4.6875 0 3 C0 2.01 0 1.02 0 0 Z " fill="#FAD968" transform="translate(62,215)"/>
<path d="M0 0 C1.5 1.375 1.5 1.375 3 3 C3 3.66 3 4.32 3 5 C0 6 0 6 -3 6 C-3.66 5.67 -4.32 5.34 -5 5 C-3.35 3.35 -1.7 1.7 0 0 Z " fill="#F7E288" transform="translate(231,193)"/>
<path d="M0 0 C3 1 3 1 4 3 C6.02463255 3.65213292 6.02463255 3.65213292 8 4 C7.67 4.66 7.34 5.32 7 6 C2.545 5.01 2.545 5.01 -2 4 C-1.34 2.68 -0.68 1.36 0 0 Z " fill="#F6E18C" transform="translate(114,178)"/>
<path d="M0 0 C0.33 0 0.66 0 1 0 C1.33 3.96 1.66 7.92 2 12 C0.35 11.01 -1.3 10.02 -3 9 C-3 8.01 -3 7.02 -3 6 C-2.34 6 -1.68 6 -1 6 C-0.67 4.02 -0.34 2.04 0 0 Z " fill="#F8E278" transform="translate(25,130)"/>
<path d="M0 0 C2.44897847 3.67346771 2.31537716 5.66356399 2 10 C1.34 10.66 0.68 11.32 0 12 C-2.125 11.625 -2.125 11.625 -4 11 C-3.34 10.67 -2.68 10.34 -2 10 C-2 9.34 -2 8.68 -2 8 C-1.01 8 -0.02 8 1 8 C0.67 5.36 0.34 2.72 0 0 Z " fill="#FBDE7E" transform="translate(270,102)"/>
<path d="M0 0 C0 3 0 3 -1 5 C-4.3 5 -7.6 5 -11 5 C-8.49751135 3.33167423 -6.58850813 2.37618326 -3.8125 1.375 C-3.09707031 1.11460937 -2.38164062 0.85421875 -1.64453125 0.5859375 C-1.10183594 0.39257812 -0.55914062 0.19921875 0 0 Z " fill="#F8E388" transform="translate(172,249)"/>
<path d="M0 0 C2.475 0.99 2.475 0.99 5 2 C4.01 3.485 4.01 3.485 3 5 C2.34 5 1.68 5 1 5 C0.01 5.33 -0.98 5.66 -2 6 C-1.125 1.125 -1.125 1.125 0 0 Z " fill="#FBDF54" transform="translate(38,165)"/>
<path d="M0 0 C-0.33 0.99 -0.66 1.98 -1 3 C-2.65 3.33 -4.3 3.66 -6 4 C-6 3.34 -6 2.68 -6 2 C-6.66 1.67 -7.32 1.34 -8 1 C-3.375 -1.125 -3.375 -1.125 0 0 Z " fill="#C3C5C6" transform="translate(116,151)"/>
<path d="M0 0 C0.66 0 1.32 0 2 0 C2.66 2.31 3.32 4.62 4 7 C3.34 7.66 2.68 8.32 2 9 C0 7 0 7 -0.125 3.375 C-0.08375 2.26125 -0.0425 1.1475 0 0 Z " fill="#E5EAEB" transform="translate(150,125)"/>
<path d="M0 0 C-1 3 -1 3 -4 5 C-4.33 5.99 -4.66 6.98 -5 8 C-7.0625 8.6875 -7.0625 8.6875 -9 9 C-7.45665977 5.21180126 -4.44676575 0 0 0 Z " fill="#FAE782" transform="translate(294,119)"/>
<path d="M0 0 C0.99 0.495 0.99 0.495 2 1 C2.40729228 3.32156597 2.74438677 5.6568787 3 8 C2.67 8 2.34 8 2 8 C1.67 9.65 1.34 11.3 1 13 C0.67 13 0.34 13 0 13 C0 8.71 0 4.42 0 0 Z " fill="#F2F6F9" transform="translate(206,116)"/>
<path d="M0 0 C0.66 0 1.32 0 2 0 C2 2.97 2 5.94 2 9 C1.01 9.33 0.02 9.66 -1 10 C-0.67 6.7 -0.34 3.4 0 0 Z " fill="#FAE23D" transform="translate(275,112)"/>
<path d="M0 0 C2.25 -0.3125 2.25 -0.3125 5 0 C7.3125 2.5 7.3125 2.5 9 5 C2.25 3.375 2.25 3.375 0 0 Z " fill="#F4DB77" transform="translate(50,205)"/>
<path d="M0 0 C0.99 0.33 1.98 0.66 3 1 C4.1875 4.0625 4.1875 4.0625 5 7 C2.525 6.01 2.525 6.01 0 5 C0 3.35 0 1.7 0 0 Z " fill="#F8DD5B" transform="translate(38,182)"/>
<path d="M0 0 C2.475 0.495 2.475 0.495 5 1 C4.67 2.98 4.34 4.96 4 7 C1 5 1 5 0.3125 2.375 C0.209375 1.59125 0.10625 0.8075 0 0 Z " fill="#FCE93A" transform="translate(266,166)"/>
<path d="M0 0 C0.33 0.99 0.66 1.98 1 3 C3.01508358 3.73323796 3.01508358 3.73323796 5 4 C5 5.32 5 6.64 5 8 C2 7 2 7 0.3125 3.9375 C-0.120625 2.968125 -0.55375 1.99875 -1 1 C-0.67 0.67 -0.34 0.34 0 0 Z " fill="#FADD70" transform="translate(258,135)"/>
<path d="M0 0 C0.99 0.495 0.99 0.495 2 1 C2.59355614 3.64860427 2.74209269 6.29197322 3 9 C2.34 9 1.68 9 1 9 C0.67 9.66 0.34 10.32 0 11 C0 7.37 0 3.74 0 0 Z " fill="#DFE0E4" transform="translate(207,123)"/>
<path d="M0 0 C0.66 0 1.32 0 2 0 C1.67 4.29 1.34 8.58 1 13 C0.67 13 0.34 13 0 13 C-0.19397476 11.02145742 -0.38001321 9.0421352 -0.5625 7.0625 C-0.66691406 5.96035156 -0.77132812 4.85820313 -0.87890625 3.72265625 C-0.91886719 2.82417969 -0.95882812 1.92570312 -1 1 C-0.67 0.67 -0.34 0.34 0 0 Z " fill="#F6DD8C" transform="translate(45,111)"/>
<path d="M0 0 C0.33 0 0.66 0 1 0 C1.55353075 10.55808656 1.55353075 10.55808656 -2 15 C-2.625 13.125 -2.625 13.125 -3 11 C-2.34 10.34 -1.68 9.68 -1 9 C-0.53993654 6.79749008 -0.53993654 6.79749008 -0.375 4.375 C-0.30023438 3.55773438 -0.22546875 2.74046875 -0.1484375 1.8984375 C-0.09945313 1.27195313 -0.05046875 0.64546875 0 0 Z " fill="#F5DD7C" transform="translate(265,35)"/>
<path d="M0 0 C0.33 0.99 0.66 1.98 1 3 C-3.95 4.485 -3.95 4.485 -9 6 C-8.67 5.01 -8.34 4.02 -8 3 C-6.68 3 -5.36 3 -4 3 C-4 2.34 -4 1.68 -4 1 C-2 0 -2 0 0 0 Z " fill="#FBE045" transform="translate(230,222)"/>
<path d="M0 0 C2.475 0.495 2.475 0.495 5 1 C5 2.32 5 3.64 5 5 C3.68 5 2.36 5 1 5 C0.67 3.35 0.34 1.7 0 0 Z " fill="#FDDF4F" transform="translate(113,185)"/>
<path d="M0 0 C-0.66 2.31 -1.32 4.62 -2 7 C-2.33 5.68 -2.66 4.36 -3 3 C-4.32 2.67 -5.64 2.34 -7 2 C-4.35261084 0.5393715 -3.10551666 0 0 0 Z " fill="#F9E388" transform="translate(298,152)"/>
<path d="M0 0 C0.66 0 1.32 0 2 0 C1.67 1.65 1.34 3.3 1 5 C-0.8125 5.6875 -0.8125 5.6875 -3 6 C-4.75 4.5625 -4.75 4.5625 -6 3 C-3.03 3.495 -3.03 3.495 0 4 C-0.33 3.01 -0.66 2.02 -1 1 C-0.67 0.67 -0.34 0.34 0 0 Z " fill="#F5DF7C" transform="translate(269,140)"/>
<path d="M0 0 C1.65 1.65 3.3 3.3 5 5 C3.1875 5.6875 3.1875 5.6875 1 6 C-0.75 4.6875 -0.75 4.6875 -2 3 C-2 2.34 -2 1.68 -2 1 C-1.34 0.67 -0.68 0.34 0 0 Z " fill="#FBDF7A" transform="translate(31,138)"/>
<path d="M0 0 C1.15957207 3.47871621 0.77456651 4.34219645 -0.4375 7.6875 C-0.72496094 8.49574219 -1.01242187 9.30398437 -1.30859375 10.13671875 C-1.65083984 11.05904297 -1.65083984 11.05904297 -2 12 C-2.33 12 -2.66 12 -3 12 C-3 10.02 -3 8.04 -3 6 C-2.34 6 -1.68 6 -1 6 C-1.0309375 4.7934375 -1.0309375 4.7934375 -1.0625 3.5625 C-1 1 -1 1 0 0 Z " fill="#F6E084" transform="translate(298,125)"/>
<path d="M0 0 C-1.1875 1.5 -1.1875 1.5 -3 3 C-5.6875 3.1875 -5.6875 3.1875 -8 3 C-7.67 2.01 -7.34 1.02 -7 0 C-3.86650268 -1.04449911 -3.01031744 -0.93423645 0 0 Z " fill="#FDE24C" transform="translate(24,57)"/>
<path d="M0 0 C2.97 0.495 2.97 0.495 6 1 C6 1.33 6 1.66 6 2 C4.35 2 2.7 2 1 2 C1 2.99 1 3.98 1 5 C-0.32 4.67 -1.64 4.34 -3 4 C-3 3.34 -3 2.68 -3 2 C-2.01 2 -1.02 2 0 2 C0 1.34 0 0.68 0 0 Z " fill="#F8E288" transform="translate(140,253)"/>
<path d="M0 0 C2.475 0.495 2.475 0.495 5 1 C5 2.98 5 4.96 5 7 C3.29115995 5.37660195 1.62553283 3.70680947 0 2 C0 1.34 0 0.68 0 0 Z " fill="#F7DE74" transform="translate(95,227)"/>
<path d="M0 0 C-0.66 1.32 -1.32 2.64 -2 4 C-2.33 3.34 -2.66 2.68 -3 2 C-3.61875 2.20625 -4.2375 2.4125 -4.875 2.625 C-5.57625 2.74875 -6.2775 2.8725 -7 3 C-7.66 2.34 -8.32 1.68 -9 1 C-3.375 -1.125 -3.375 -1.125 0 0 Z " fill="#FBE696" transform="translate(288,188)"/>
<path d="M0 0 C1.65 0 3.3 0 5 0 C5 0.66 5 1.32 5 2 C4.01 2.33 3.02 2.66 2 3 C2.66 3.33 3.32 3.66 4 4 C3.67 4.66 3.34 5.32 3 6 C1.68 5.01 0.36 4.02 -1 3 C-0.67 2.01 -0.34 1.02 0 0 Z " fill="#F6DE7F" transform="translate(137,187)"/>
<path d="M0 0 C2.89932357 2.39509338 3.50168276 4.31245243 4 8 C3.34 8 2.68 8 2 8 C2 6.68 2 5.36 2 4 C1.01 4.33 0.02 4.66 -1 5 C-1.33 4.34 -1.66 3.68 -2 3 C-1.34 2.01 -0.68 1.02 0 0 Z " fill="#F5DB88" transform="translate(149,178)"/>
<path d="M0 0 C0.66 0 1.32 0 2 0 C2.33 1.65 2.66 3.3 3 5 C1.02 5.99 1.02 5.99 -1 7 C-1.625 4.625 -1.625 4.625 -2 2 C-1.34 1.34 -0.68 0.68 0 0 Z " fill="#FBE360" transform="translate(30,159)"/>
<path d="M0 0 C0.103125 0.639375 0.20625 1.27875 0.3125 1.9375 C0.539375 2.618125 0.76625 3.29875 1 4 C1.99 4.33 2.98 4.66 4 5 C3.34 6.65 2.68 8.3 2 10 C1.67 9.01 1.34 8.02 1 7 C0.34 7 -0.32 7 -1 7 C-0.67 4.69 -0.34 2.38 0 0 Z " fill="#F9DC77" transform="translate(272,147)"/>
<path d="M0 0 C0.33 0 0.66 0 1 0 C1 3.3 1 6.6 1 10 C-1.59482129 7.40517871 -1.69990302 5.60116375 -2 2 C-1.34 1.34 -0.68 0.68 0 0 Z " fill="#C2C5C6" transform="translate(211,151)"/>
<path d="M0 0 C2 2 2 2 2.1953125 3.9453125 C2.13020833 5.96354167 2.06510417 7.98177083 2 10 C1.67 9.34 1.34 8.68 1 8 C0.34 8 -0.32 8 -1 8 C-0.67 5.36 -0.34 2.72 0 0 Z " fill="#FBE049" transform="translate(23,128)"/>
<path d="M0 0 C0.99 0.33 1.98 0.66 3 1 C2.67 3.31 2.34 5.62 2 8 C1.01 7.67 0.02 7.34 -1 7 C-0.67 4.69 -0.34 2.38 0 0 Z " fill="#F7DD74" transform="translate(26,89)"/>
<path d="M0 0 C2.31 0.66 4.62 1.32 7 2 C4 4 4 4 0 4 C-0.33 3.01 -0.66 2.02 -1 1 C-0.67 0.67 -0.34 0.34 0 0 Z " fill="#FBE17C" transform="translate(248,86)"/>
<path d="M0 0 C0.99 0 1.98 0 3 0 C3.144375 0.78375 3.28875 1.5675 3.4375 2.375 C3.87798925 4.96421018 3.87798925 4.96421018 5 7 C2.11562221 5.70700306 0.12780579 4.34058637 -2 2 C-1.34 2 -0.68 2 0 2 C0 1.34 0 0.68 0 0 Z " fill="#F8DE7C" transform="translate(226,22)"/>
<path d="M0 0 C3.34373475 0.55728913 6.03312999 1.35173889 9 3 C9 3.66 9 4.32 9 5 C8.34 5 7.68 5 7 5 C7 4.34 7 3.68 7 3 C5.02 3 3.04 3 1 3 C0.67 2.01 0.34 1.02 0 0 Z " fill="#F4DE7B" transform="translate(224,246)"/>
<path d="M0 0 C0 1.65 0 3.3 0 5 C-0.99 5.33 -1.98 5.66 -3 6 C-3.66 4.68 -4.32 3.36 -5 2 C-1.125 0 -1.125 0 0 0 Z " fill="#F9DF71" transform="translate(216,230)"/>
<path d="M0 0 C0.66 0.99 1.32 1.98 2 3 C0.35 4.32 -1.3 5.64 -3 7 C-3.66 6.67 -4.32 6.34 -5 6 C-4.01 5.67 -3.02 5.34 -2 5 C-2.33 3.68 -2.66 2.36 -3 1 C-2.01 1.33 -1.02 1.66 0 2 C0 1.34 0 0.68 0 0 Z " fill="#F5D872" transform="translate(73,228)"/>
<path d="M0 0 C2.31 0.66 4.62 1.32 7 2 C6.67 2.66 6.34 3.32 6 4 C3.4375 4.625 3.4375 4.625 1 5 C1.33 4.01 1.66 3.02 2 2 C1.34 2 0.68 2 0 2 C0 1.34 0 0.68 0 0 Z " fill="#C9CBCC" transform="translate(184,157)"/>
<path d="M0 0 C1.98 0 3.96 0 6 0 C6 0.99 6 1.98 6 3 C3.69 3 1.38 3 -1 3 C-0.67 2.01 -0.34 1.02 0 0 Z " fill="#CED1D3" transform="translate(170,158)"/>
<path d="M0 0 C1.5625 1.25 1.5625 1.25 3 3 C2.6875 5.1875 2.6875 5.1875 2 7 C1.01 6.34 0.02 5.68 -1 5 C-0.67 3.35 -0.34 1.7 0 0 Z " fill="#C5C7C9" transform="translate(152,111)"/>
<path d="M0 0 C0.88492145 2.47778006 1.11637742 3.66056586 0.25 6.1875 C-1 8 -1 8 -4 9 C-2.80100302 5.9168649 -1.52299523 2.93720508 0 0 Z " fill="#F9E186" transform="translate(286,84)"/>
<path d="M0 0 C2.56687367 3.8503105 1.83288724 5.58569763 1 10 C0.34 10 -0.32 10 -1 10 C-0.67 6.7 -0.34 3.4 0 0 Z " fill="#F9DB72" transform="translate(270,60)"/>
<path d="M0 0 C1.77706209 2.66559313 2.87548273 5.0280615 4 8 C2.68 8.33 1.36 8.66 0 9 C-1.53445094 5.93109813 -0.54984289 3.29905734 0 0 Z " fill="#FEE352" transform="translate(254,45)"/>
<path d="M0 0 C-2.98646769 1.99097846 -5.59687262 2.94124926 -9 4 C-9.66 3.34 -10.32 2.68 -11 2 C-7.17010894 0.19769832 -4.21878192 -0.19622241 0 0 Z " fill="#F6D974" transform="translate(68,27)"/>
<path d="M0 0 C0.33 0.66 0.66 1.32 1 2 C0.0625 4.625 0.0625 4.625 -1 7 C-1.99 6.67 -2.98 6.34 -4 6 C-4.33 5.01 -4.66 4.02 -5 3 C-4.01 3 -3.02 3 -2 3 C-1.34 2.01 -0.68 1.02 0 0 Z " fill="#F5DF7F" transform="translate(206,224)"/>
<path d="M0 0 C1.32 0.33 2.64 0.66 4 1 C1.03 3.475 1.03 3.475 -2 6 C-2 4.68 -2 3.36 -2 2 C-1.34 2 -0.68 2 0 2 C0 1.34 0 0.68 0 0 Z " fill="#F8DD78" transform="translate(274,203)"/>
<path d="M0 0 C0.66 0 1.32 0 2 0 C0.62845496 2.95409701 -0.98863724 5.44008376 -3 8 C-3.99 7.67 -4.98 7.34 -6 7 C-5.071875 6.1028125 -5.071875 6.1028125 -4.125 5.1875 C-1.86323046 2.99188856 -1.86323046 2.99188856 0 0 Z " fill="#CFCFD0" transform="translate(156,164)"/>
<path d="M0 0 C0.33 0 0.66 0 1 0 C1.33 2.97 1.66 5.94 2 9 C1.01 9 0.02 9 -1 9 C-1 8.34 -1 7.68 -1 7 C-1.66 6.67 -2.32 6.34 -3 6 C-2.01 5.67 -1.02 5.34 0 5 C0 3.35 0 1.7 0 0 Z " fill="#D6D7D8" transform="translate(212,156)"/>
<path d="M0 0 C0.66 0 1.32 0 2 0 C2 2.97 2 5.94 2 9 C1.67 8.01 1.34 7.02 1 6 C0.34 6 -0.32 6 -1 6 C-0.67 4.02 -0.34 2.04 0 0 Z " fill="#D0D4D7" transform="translate(90,134)"/>
<path d="M0 0 C2 3 2 3 2 5 C1.34 5 0.68 5 0 5 C-0.66 5.99 -1.32 6.98 -2 8 C-2.33 5.69 -2.66 3.38 -3 1 C-2.01 1.495 -2.01 1.495 -1 2 C-0.67 1.34 -0.34 0.68 0 0 Z " fill="#FCE694" transform="translate(274,93)"/>
<path d="" fill="#CCCCCC" transform="translate(0,0)"/>
<path d="" fill="#E6E6E6" transform="translate(0,0)"/>
</svg>
